<svg width="71" height="24" viewBox="0 0 71 24" fill="none" xmlns="http://www.w3.org/2000/svg">
<path fill-rule="evenodd" clip-rule="evenodd" d="M58.1991 1.71877e-05C55.4445 -0.00434373 52.7696 0.906966 50.6112 2.58522C48.4528 0.906856 45.7779 -0.00446716 43.0232 1.71877e-05C40.2688 -0.00416283 37.5941 0.907131 35.4357 2.58522C33.2775 0.906775 30.6027 -0.004564 27.8482 1.71877e-05C25.0937 -0.00416283 22.4191 0.907131 20.2607 2.58522C18.1023 0.907077 15.4276 -0.00422452 12.6731 1.71877e-05C5.91367 1.71877e-05 0.435913 5.37119 0.435913 12C0.435913 18.628 5.91327 24 12.6731 24C15.4276 24.0041 18.1022 23.0928 20.2607 21.4148C22.419 23.0929 25.0937 24.0042 27.8482 24C30.6027 24.0045 33.2775 23.0932 35.4357 21.4148C37.5941 23.0929 40.2688 24.0042 43.0232 24C45.7779 24.0044 48.4527 23.0931 50.6112 21.4148C52.7696 23.0931 55.4444 24.0044 58.1991 24C64.9586 24 70.4359 18.6284 70.4359 12C70.4359 5.37158 64.9586 1.71877e-05 58.1991 1.71877e-05ZM18.2584 19.4545C16.6991 20.57 14.751 21.2507 12.6731 21.2507C7.45866 21.2507 3.23912 17.1134 3.23912 12C3.23912 6.88661 7.45866 2.74887 12.6731 2.74887C14.751 2.74887 16.6979 3.43003 18.2584 4.5459C16.5391 6.66408 15.6056 9.29274 15.6114 12C15.6127 14.7062 16.5453 17.3328 18.2584 19.4545ZM20.2611 17.4965C19.0585 15.9069 18.411 13.9793 18.415 12C18.4099 10.0206 19.0575 8.09254 20.2611 6.50346C21.4644 8.09265 22.112 10.0206 22.1072 12C22.1109 13.9792 21.4635 15.9069 20.2611 17.4965ZM33.4339 19.4545C31.8138 20.6241 29.8536 21.2528 27.8418 21.248C25.8342 21.252 23.8784 20.6233 22.2629 19.4545C23.9761 17.333 24.9089 14.7065 24.91 12.0004C24.9157 9.29313 23.9822 6.66447 22.2629 4.54629C23.8783 3.37718 25.8341 2.74828 27.8418 2.75239C29.9349 2.75239 31.8686 3.41636 33.4339 4.54629C31.7145 6.66447 30.7811 9.29313 30.7868 12.0004C30.788 14.7065 31.7207 17.333 33.4339 19.4545ZM35.4357 17.4965C34.2331 15.9069 33.5857 13.9793 33.5896 12C33.5847 10.0206 34.2323 8.09263 35.4357 6.50346C36.6394 8.09253 37.2871 10.0205 37.2822 12C37.2861 13.9793 36.6385 15.907 35.4357 17.4965ZM48.6089 19.4545C47.0436 20.5848 45.1099 21.248 43.0173 21.248C40.9246 21.248 39.0032 20.5836 37.4379 19.4545C39.1514 17.3331 40.0841 14.7065 40.085 12.0004C40.0908 9.29313 39.1573 6.66447 37.4379 4.54629C39.0032 3.41675 40.9246 2.75239 43.0173 2.75239C45.1099 2.75239 47.0436 3.41636 48.6089 4.54629C46.8898 6.66457 45.9563 9.29317 45.9619 12.0004C45.9632 14.7065 46.8959 17.3329 48.6089 19.4545ZM50.6116 17.4965C49.409 15.9069 48.7615 13.9793 48.7655 12C48.7602 10.0205 49.4078 8.09246 50.6116 6.50346C51.8149 8.09265 52.4625 10.0206 52.4577 12C52.4613 13.9792 51.8139 15.9068 50.6116 17.4965ZM58.1991 21.2507C56.1204 21.2507 54.1727 20.57 52.6138 19.4545C54.3269 17.3329 55.2596 14.7065 55.2609 12.0004C55.2664 9.29317 54.3329 6.66457 52.6138 4.54629C54.1743 3.43081 56.1208 2.74926 58.1991 2.74926C63.4128 2.74926 67.6331 6.887 67.6331 12.0004C67.6331 17.113 63.4128 21.2507 58.1991 21.2507Z" fill="black"/>
</svg>
