<svg width="49" height="48" viewBox="0 0 49 48" fill="none" xmlns="http://www.w3.org/2000/svg">
<path d="M38.6583 24.0001C38.6583 31.8599 32.296 38.2223 24.4361 38.2223V24.0001H38.6583ZM24.4361 9.77783V24.0001H10.2139C10.2139 16.1402 16.5762 9.77783 24.4361 9.77783Z" fill="black"/>
<path d="M24.4361 9.77783C32.296 9.77783 38.6583 16.1402 38.6583 24.0001H24.4361V9.77783ZM10.2139 24.0001H24.4361V38.2223C16.5762 38.2223 10.2139 31.8599 10.2139 24.0001Z" fill="white"/>
<path d="M24.436 9.77778V10.5576C31.8475 10.5576 37.8785 16.5871 37.8785 24H38.6583C38.6583 16.1458 32.2903 9.77778 24.436 9.77778ZM24.436 37.4424C17.0246 37.4424 10.9936 31.4129 10.9936 24H10.2138C10.2138 31.8542 16.5818 38.2222 24.436 38.2222M24.436 0C11.1816 0 0.436035 10.7455 0.436035 24C0.436035 37.2545 11.1816 48 24.436 48C37.6905 48 48.436 37.2545 48.436 24C48.436 10.7455 37.6905 0 24.436 0ZM46.8754 24C46.8754 36.3923 36.8297 46.4393 24.436 46.4393C12.0423 46.4393 1.99671 36.3923 1.99671 24C1.99671 11.6077 12.0438 1.56068 24.436 1.56068C36.8283 1.56068 46.8754 11.6077 46.8754 24Z" fill="black"/>
<path d="M14.1797 12.4218C14.9466 11.6196 15.3808 10.6927 14.6139 9.80789C14.1966 9.32766 13.4959 9.22266 12.9151 9.45927L12.8573 9.48167L12.8756 9.43127C12.9616 9.20305 13.0166 8.47501 12.3921 7.97238C12.0876 7.72737 11.7055 7.63636 11.3192 7.67556C10.5988 7.74837 10.0448 8.237 8.53628 9.90729C8.08092 10.4113 7.41831 11.2066 7.02075 11.7218L11.1641 15.6252C12.5373 14.1159 13.097 13.5545 14.1797 12.4218ZM8.77313 11.467C9.60773 10.4533 10.4945 9.53347 10.8963 9.16945C11.0232 9.05465 11.1613 8.93984 11.3291 8.89504C11.6012 8.82083 11.8817 9.01264 11.9452 9.28986C12.0086 9.56847 11.8324 9.83309 11.6364 10.0515C11.1952 10.5457 9.57671 12.2272 9.57671 12.2272L8.77313 11.467ZM10.3958 12.9959C10.3958 12.9959 11.972 11.341 12.4865 10.8117C12.691 10.6017 12.8221 10.4743 12.963 10.4057C13.1449 10.3175 13.3437 10.2993 13.5213 10.4169C13.6961 10.5331 13.7765 10.7333 13.7328 10.9322C13.6806 11.1688 13.4861 11.3942 13.3254 11.5664C13.1083 11.7974 11.2389 13.7841 11.236 13.7869L10.3958 12.9959ZM24.9097 7.76657L26.2363 4.8152L26.3209 4.55338L26.2969 4.8264L26.4365 8.77043C26.9017 8.81383 27.3825 8.87823 27.8561 8.95664L27.6404 3.1155C26.9778 3.0427 26.3181 2.99089 25.6583 2.96289L24.3514 6.18448L24.3049 6.42389L24.2583 6.18448L22.9529 2.96289C22.2931 2.99089 21.6333 3.0427 20.9707 3.1155L20.755 8.95664C21.2287 8.87823 21.7094 8.81523 22.1747 8.77043L22.3142 4.8264L22.2903 4.55338L22.3749 4.8152L23.7015 7.76657H24.9097H24.9097ZM35.9272 13.8723C36.2529 14.2195 36.7224 14.7796 36.986 15.1198L41.8413 12.0592C41.5988 11.7442 41.2126 11.2654 40.9235 10.928L37.8488 12.9469L37.6387 13.1261L37.7952 12.8993L39.1528 10.2083L38.1928 9.25486L35.4817 10.6031L35.2533 10.7585L35.4352 10.5499L37.4695 7.49775C37.1115 7.19534 36.7675 6.91812 36.329 6.5821L33.2472 11.3998C33.6377 11.698 34.1523 12.1362 34.4808 12.4344L37.3821 10.9392L37.5682 10.8033L37.4315 10.9882L35.9272 13.8723Z" fill="black"/>
</svg>
