<svg width="86" height="33" viewBox="0 0 86 33" fill="none" xmlns="http://www.w3.org/2000/svg">
<path d="M42.9345 0C19.3489 0 0.436035 7.11848 0.436035 16.0478C0.436035 24.9218 19.5014 32.0974 42.9345 32.0974C66.3677 32.0974 85.4331 24.8968 85.4331 16.0478C85.4331 7.19884 66.3695 0 42.9345 0Z" fill="black"/>
<path d="M67.9033 11.4442C67.9583 11.346 67.9033 11.2656 67.7774 11.2656H65.6334C65.4738 11.2656 65.3922 11.2853 65.316 11.4335C65.0695 11.9085 62.0689 16.4339 61.5103 17.3269C61.4163 17.4608 61.3011 17.4412 61.2887 17.2894C61.2319 16.7679 60.7833 16.1661 60.0775 15.8803C59.5661 15.6773 59.0102 15.6156 58.4673 15.7017C57.4795 15.8357 56.5999 16.3607 55.8267 16.9518C54.6616 17.8448 53.6561 19.0002 52.358 19.8539C51.6487 20.32 50.6787 20.7254 50.0296 20.12C49.4426 19.5717 49.51 18.352 50.4074 17.4108C50.5031 17.3126 50.6166 17.3947 50.5989 17.4822C50.5507 17.6866 50.5568 17.9002 50.6166 18.1014C50.6763 18.3027 50.7877 18.4846 50.9394 18.6288C51.1351 18.797 51.3766 18.9021 51.6324 18.9305C51.8882 18.9588 52.1466 18.9091 52.374 18.7877C52.6444 18.6455 52.8764 18.4392 53.0501 18.1865C53.2237 17.9339 53.3337 17.6425 53.3706 17.3376C53.4023 17.1134 53.3879 16.885 53.3282 16.6667C53.2685 16.4483 53.1648 16.2447 53.0236 16.0685C52.8823 15.8922 52.7066 15.7472 52.5073 15.6423C52.308 15.5374 52.0894 15.475 51.865 15.4589C51.1167 15.4071 50.402 15.6678 49.7033 16.2482C49.3732 16.5167 49.0861 16.8347 48.8521 17.1911C48.7776 17.2965 48.6659 17.3072 48.6748 17.1501C48.7085 15.9178 48.2031 15.2267 47.1923 15.2035C46.4084 15.1838 45.5696 15.6142 44.9153 16.1375C44.2059 16.7161 43.5728 17.484 42.9007 18.2055C42.8174 18.2948 42.7447 18.2912 42.7234 18.118C42.725 17.3536 42.5177 16.6035 42.124 15.95C42.0549 15.8478 41.9507 15.7751 41.8315 15.7457C41.7123 15.7164 41.5866 15.7325 41.4785 15.791C41.2109 15.9185 40.9562 16.0716 40.7177 16.2482C40.6483 16.3053 40.5984 16.3829 40.5752 16.4701C40.552 16.5572 40.5565 16.6496 40.5883 16.734C40.9444 17.9821 40.8668 19.3152 40.3684 20.5129C39.9179 21.5844 39.0419 22.5523 38.0116 22.8791C37.3324 23.0952 36.6266 22.9899 36.1921 22.3844C35.5927 21.5487 35.8374 20.095 36.7241 18.8877C37.5115 17.8162 38.6535 17.1483 39.7903 16.7143C39.8168 16.7089 39.8418 16.6974 39.8633 16.6808C39.8848 16.6641 39.9022 16.6427 39.9142 16.6182C39.9262 16.5937 39.9324 16.5668 39.9325 16.5395C39.9325 16.5122 39.9263 16.4852 39.9144 16.4607C39.8523 16.2732 39.7548 16.016 39.714 15.8982C39.6094 15.6196 39.3168 15.5731 38.9603 15.6124C38.1495 15.7221 37.3669 15.987 36.655 16.3929C34.7256 17.4233 33.7591 19.4413 33.3352 20.5129C33.1919 20.9173 32.988 21.2974 32.7305 21.6397C32.4273 22.0255 32.0442 22.3755 31.3455 22.9917C31.3074 23.0272 31.2813 23.0739 31.2711 23.1253C31.261 23.1766 31.2671 23.2298 31.2888 23.2774C31.3597 23.4256 31.7233 23.9417 31.8208 23.9917C31.8715 24.008 31.9254 24.011 31.9776 24.0004C32.0297 23.9897 32.0783 23.9659 32.1187 23.931C32.621 23.5841 33.0775 23.1742 33.4771 22.7113C33.5782 22.588 33.681 22.6398 33.7342 22.8274C33.8639 23.304 34.1076 23.7414 34.444 24.1013C34.7803 24.4612 35.1991 24.7326 35.6637 24.8918C37.437 25.4919 39.2671 24.6239 40.6521 23.1059C41.5388 22.1434 41.8491 21.5254 42.1861 21.104C42.7571 20.3896 43.8849 18.7949 45.2291 17.7698C45.7204 17.3929 46.3038 17.1036 46.5982 17.2947C46.834 17.4483 46.9085 17.8055 46.5308 18.4966C45.1618 21.0147 43.1472 23.9739 42.7784 24.69C42.711 24.815 42.7784 24.9132 42.899 24.9132C43.6083 24.9132 44.3176 24.9132 44.9773 24.9132C45.0209 24.9118 45.0634 24.8989 45.1004 24.8757C45.1375 24.8525 45.1678 24.8199 45.1884 24.7811C46.2382 23.1238 47.2277 21.5469 48.2882 19.9182C48.3467 19.8217 48.4017 19.8967 48.4035 19.9378C48.4159 20.371 48.5314 20.7948 48.7404 21.1736C48.9048 21.4514 49.1388 21.6809 49.4188 21.8392C49.6989 21.9974 50.0153 22.0789 50.3364 22.0755C50.8383 22.0755 51.0919 22.0041 51.6327 21.8005C52.0113 21.6575 52.3691 21.4641 52.6968 21.2254C52.8546 21.1147 52.8741 21.3004 52.8741 21.329C52.6311 22.6434 52.9308 24.2025 54.2289 24.8472C55.7806 25.6187 57.4884 24.5346 58.469 23.556C58.5648 23.4613 58.6694 23.4721 58.6783 23.6756C58.7078 24.0982 58.8835 24.4969 59.1748 24.8025C59.9977 25.633 61.6575 25.3043 63.3245 24.0042C64.503 23.0413 65.5734 21.9514 66.5165 20.7539C66.5432 20.7269 66.5581 20.6903 66.5581 20.6522C66.5581 20.614 66.5432 20.5775 66.5165 20.5504C66.3622 20.3896 66.1388 20.2021 65.9845 20.0593C65.9515 20.0335 65.911 20.0195 65.8693 20.0195C65.8275 20.0195 65.787 20.0335 65.754 20.0593C64.7166 21.0522 63.7838 22.1844 62.436 23.1202C61.982 23.4399 61.2567 23.6971 60.9304 23.2542C60.8028 23.0756 60.8187 22.8434 60.9429 22.5398C61.3365 21.5522 67.561 12.0032 67.8838 11.446M59.6749 19.4413C59.6873 19.5146 59.7813 19.5842 59.8753 19.6199C59.9072 19.6324 59.9267 19.6556 59.8895 19.7324C59.6513 20.2219 59.3706 20.6892 59.0507 21.129C58.7562 21.5678 58.3975 21.9591 57.9867 22.2898C57.3589 22.8131 56.4882 23.3828 55.7664 23.0042C55.4472 22.8363 55.3071 22.3845 55.3142 22.0201C55.3302 20.9933 55.7842 19.9396 56.6212 18.902C57.6426 17.6358 58.7723 16.9786 59.5118 17.3376C60.2513 17.6965 60.0349 18.6002 59.6891 19.302C59.6774 19.324 59.6701 19.3481 59.6677 19.3729C59.6652 19.3978 59.6677 19.4228 59.6749 19.4467" fill="white"/>
<path d="M22.7538 24.8806C20.4324 24.8967 18.3878 23.4519 18.1537 20.9517C18.0178 19.6495 18.3898 18.3451 19.1911 17.3139C19.8809 16.4067 21.0496 15.6548 22.0391 15.4709C22.3601 15.4119 22.7928 15.4495 22.9719 15.6638C23.2521 15.9924 23.1723 16.3531 22.8921 16.4978C22.1384 16.8853 21.2287 17.5496 20.7782 18.4622C20.5714 18.8479 20.4732 19.2831 20.4941 19.721C20.5151 20.1588 20.6544 20.5825 20.8971 20.9464C21.8281 22.3626 24.426 22.4018 26.8431 20.1427C27.4343 19.6039 27.9944 19.0315 28.5207 18.4283C29.5847 17.2032 29.9394 16.7567 31.3581 14.7797C31.3656 14.7704 31.3708 14.7593 31.3732 14.7475C31.3757 14.7357 31.3754 14.7235 31.3723 14.7119C31.3599 14.6869 31.3404 14.6797 31.2996 14.678C30.3685 14.6946 29.4677 15.0141 28.7318 15.5887C28.6804 15.6312 28.6212 15.6629 28.5576 15.682C28.4939 15.7011 28.4271 15.7073 28.3611 15.7001C28.2951 15.693 28.2311 15.6727 28.173 15.6404C28.1148 15.6081 28.0636 15.5644 28.0224 15.512C27.861 15.2601 27.9763 14.9333 28.2423 14.7476C29.5298 13.8547 30.9343 13.6761 32.3707 13.4386C32.4063 13.4358 32.4407 13.4248 32.4715 13.4066C32.5022 13.3883 32.5284 13.3632 32.548 13.3332C33.1368 12.5706 33.5819 11.8831 34.2097 11.1134C34.8418 10.3748 35.536 9.69241 36.2845 9.0739C36.8919 8.54883 37.5643 8.10521 38.2848 7.75414C38.4338 7.67556 38.2653 7.57555 38.2192 7.57555C35.0449 6.9755 31.7465 6.19864 28.5952 7.37375C26.414 8.19346 25.4564 9.93647 25.9157 11.1009C26.2437 11.9277 27.3219 12.0617 28.331 11.5634C29.2168 11.1247 29.9681 10.4527 30.5051 9.61859C30.8137 9.14176 31.4627 9.48643 31.1116 10.3133C30.1895 12.4956 28.4285 14.2279 26.281 14.3011C24.4544 14.3601 23.2751 13.0082 23.2805 11.3384C23.2805 8.04524 26.9283 5.87719 30.7534 5.55216C35.3641 5.1682 39.723 6.40402 44.2983 6.963C47.8024 7.38982 51.163 7.40054 54.6848 6.58439C54.7715 6.5576 54.8635 6.55354 54.9521 6.57261C55.0408 6.59168 55.1231 6.63324 55.1913 6.69335C55.2596 6.75346 55.3114 6.83013 55.3419 6.91607C55.3725 7.00202 55.3807 7.0944 55.3658 7.18444C55.3321 7.797 54.8604 8.38634 53.7006 9.02389C52.3813 9.75253 51.0016 9.97397 49.5598 9.98647C46.0734 10.015 42.8211 8.64707 39.4659 7.91129C39.4659 8.05952 39.5084 8.23632 39.3861 8.32919C37.5241 9.71145 35.8394 11.1151 34.7168 13.0867C34.6778 13.1332 34.6991 13.176 34.7647 13.1707C35.7418 13.1189 36.6214 13.0939 37.5365 13.0207C37.6961 13.0064 37.7014 12.9671 37.6872 12.8421C37.638 12.4777 37.6768 12.1068 37.8003 11.7608C37.9237 11.4148 38.1283 11.1038 38.3966 10.8544C39.003 10.3061 39.7656 10.2436 40.2692 10.6383C40.842 11.0884 40.7924 11.8974 40.4785 12.5046C40.338 12.7707 40.1458 13.0057 39.9133 13.1956C39.6809 13.3855 39.413 13.5264 39.1254 13.61C39.1254 13.61 39.019 13.6332 39.035 13.7297C39.0562 13.885 39.7443 14.2654 39.8028 14.3726C39.8271 14.4329 39.8328 14.4993 39.8192 14.563C39.8056 14.6267 39.7734 14.6848 39.7266 14.7297C39.6858 14.7796 39.6347 14.8199 39.5767 14.8476C39.5188 14.8754 39.4556 14.89 39.3914 14.8905C39.269 14.8798 39.1515 14.8366 39.0509 14.7655C38.687 14.5711 38.3632 14.3087 38.0969 13.9922C38.0082 13.8815 37.9639 13.8797 37.7422 13.8904C36.7527 13.9475 35.2116 14.0993 34.1689 14.2297C33.9153 14.2601 33.878 14.3083 33.8266 14.3976C32.1614 17.1621 30.3845 20.1427 28.4321 22.1393C26.3395 24.2824 24.5981 24.8431 22.7573 24.8574M38.6218 12.5724C38.6484 12.7135 38.7033 12.7421 38.7672 12.7296C39.123 12.6321 39.4317 12.4082 39.6361 12.0992C39.8241 11.8224 39.911 11.4241 39.7248 11.2652C39.6275 11.1993 39.51 11.1707 39.3936 11.1844C39.2772 11.1982 39.1695 11.2534 39.0899 11.3402C38.9193 11.4925 38.7876 11.6841 38.7062 11.8986C38.6247 12.1131 38.5957 12.3442 38.6218 12.5724Z" fill="white"/>
<path d="M42.9346 30.6921C20.4431 30.6921 2.20947 24.1344 2.20947 16.0479C2.20947 7.96152 20.4414 1.40381 42.9346 1.40381C65.4279 1.40381 83.6562 7.96152 83.6562 16.0479C83.6562 24.1344 65.4243 30.6921 42.9346 30.6921ZM42.9346 2.61463C21.2323 2.61463 3.64234 8.65444 3.64234 16.0426C3.64234 23.4307 21.2323 29.4723 42.9346 29.4723C64.637 29.4723 82.2251 23.4432 82.2251 16.0479C82.2251 8.65266 64.6352 2.62356 42.9346 2.62356" fill="white"/>
</svg>
