<svg width="49" height="48" viewBox="0 0 49 48" fill="none" xmlns="http://www.w3.org/2000/svg">
<path fill-rule="evenodd" clip-rule="evenodd" d="M35.575 2.72088C43.2166 6.73967 48.4367 14.752 48.4367 23.9877C48.4367 33.2234 43.2166 41.261 35.575 45.2551V42.509C38.4974 40.7607 40.9694 38.3146 42.7682 35.4194L35.575 32.4996V28.0564L43.4667 34.2219C45.1151 31.1764 46.0392 27.7065 46.0392 23.9871C46.0392 16.1491 41.8429 9.26033 35.575 5.46576V2.72088ZM24.4616 0C28.4577 0 32.2282 0.973908 35.575 2.72088V5.46702C32.503 3.61899 28.9067 2.5213 25.1109 2.39624L27.8577 22.0411L35.575 28.057V32.5002L24.4111 27.9818L13.3223 32.5248V28.1063L21.0896 22.0405L23.8117 2.39561C19.9653 2.52066 16.3944 3.61899 13.3223 5.46576V2.72088C16.6445 0.973908 20.4403 0 24.4616 0ZM35.575 45.2551C32.2282 47.0021 28.457 48 24.4616 48C20.4409 48 16.6451 47.0021 13.3229 45.2798V42.509C16.5699 44.4802 20.3904 45.6038 24.4616 45.6038C28.5076 45.6038 32.304 44.4802 35.575 42.509V45.2551ZM13.3229 45.2798C5.65547 41.261 0.436035 33.2234 0.436035 23.9877C0.436035 14.752 5.65547 6.73967 13.3229 2.72088V5.46702C7.02917 9.26096 2.83354 16.1251 2.83354 23.9877C2.83354 27.7065 3.78282 31.2269 5.43126 34.2718L13.3229 28.1063V32.5248L6.15506 35.4693C7.95319 38.3411 10.4006 40.7614 13.3229 42.509V45.2798Z" fill="#231F20"/>
</svg>
