<svg width="64" height="49" viewBox="0 0 64 49" fill="none" xmlns="http://www.w3.org/2000/svg">
<path d="M62.8985 26.8118L57.0431 26.4561H56.3321V24.5025C56.3207 18.0089 53.7378 11.7843 49.149 7.19192C44.5601 2.59949 38.3394 0.0134316 31.8488 0C20.3157 0 10.5574 8.16497 8.07403 18.9949H2.74165C2.60456 18.9977 2.46983 19.0311 2.34727 19.0926C2.22471 19.1541 2.11742 19.2423 2.03321 19.3505L0.613777 21.3041C0.517096 21.3999 0.454637 21.5249 0.436035 21.6598C0.443919 21.7987 0.502631 21.9299 0.600975 22.0283C0.699319 22.1267 0.830419 22.1854 0.969275 22.1933L6.82474 22.5489H7.53317V24.5025C7.54592 30.9958 10.1298 37.2194 14.719 41.8108C19.3082 46.4022 25.5288 48.9872 32.019 49C43.5521 49 53.3104 40.835 55.7938 30.0051H61.1261C61.2632 30.0023 61.398 29.9689 61.5205 29.9074C61.6431 29.8459 61.7504 29.7577 61.8346 29.6495L63.254 27.6959C63.3507 27.6001 63.4131 27.4751 63.4317 27.3402C63.4416 27.2681 63.4345 27.1946 63.4111 27.1257C63.3877 27.0567 63.3486 26.9942 63.2969 26.9429C63.2452 26.8917 63.1823 26.8532 63.1131 26.8304C63.044 26.8077 62.9705 26.8013 62.8985 26.8118ZM32.0266 2.67763C43.9152 2.67763 53.6735 12.4405 53.6735 24.3349V26.1132L35.5764 25.0487L43.382 19.7138C43.5598 19.7138 43.5598 19.536 43.5598 19.3582C43.5538 19.2658 43.5144 19.1788 43.449 19.1133C43.3836 19.0479 43.2966 19.0085 43.2043 19.0025H11.2582C12.3827 14.3417 15.0433 10.1955 18.8111 7.23251C22.5788 4.2695 27.2342 2.66229 32.0266 2.67V2.67763ZM32.0266 45.9896C20.1379 45.9896 10.3797 36.2267 10.3797 24.3323V22.554L28.4767 23.6261L20.6711 28.961C20.4934 28.961 20.4934 29.1388 20.4934 29.3167C20.4994 29.409 20.5387 29.4961 20.6042 29.5615C20.6696 29.627 20.7566 29.6664 20.8489 29.6723H52.7848C50.4791 39.0618 41.9626 45.982 32.0266 45.982V45.9896Z" fill="#1D1D1B"/>
</svg>
