<svg width="38" height="50" viewBox="0 0 38 50" fill="none" xmlns="http://www.w3.org/2000/svg">
<path d="M17.0409 0.00786475C16.3939 1.21661 7.67331 17.5302 3.91688 24.5393C3.78669 24.7817 3.7967 24.9569 3.92389 25.1943C7.60421 32.0622 15.063 45.9944 15.1401 46.1246C15.2172 45.9954 22.676 32.0622 26.3563 25.1953C26.4835 24.9579 26.4945 24.7827 26.3633 24.5403C24.2573 20.6237 22.1653 16.699 20.0592 12.7823C19.924 12.532 19.915 12.3447 20.0552 12.0923C20.6341 11.0488 21.1889 9.9923 21.7757 8.89672C21.8588 9.03792 27.4399 19.456 30.1769 24.5604C30.292 24.7747 30.302 24.9349 30.1839 25.1562C25.8526 33.2389 21.5283 41.3256 17.2091 49.4153C17.0939 49.6316 16.9768 49.7298 16.7144 49.7258C15.6448 49.7077 14.5743 49.7127 13.5047 49.7228C13.3065 49.7248 13.2013 49.6617 13.1082 49.4854C8.76689 41.3557 4.42161 33.2279 0.0713146 25.1032C-0.0188158 24.9339 -0.0268273 24.8077 0.0663074 24.6325C4.4176 16.5057 8.76188 8.37797 13.1132 0.25322C13.1683 0.151072 13.2974 0.0198822 13.3936 0.0188807C14.5873 0.00185612 15.781 0.00786475 17.0409 0.00786475Z" fill="black"/>
<path d="M21.988 4.98533C19.9971 8.6957 14.5092 18.9465 11.5179 24.5296C11.3907 24.7679 11.3817 24.9432 11.5119 25.1845C13.6179 29.1022 15.7099 33.0259 17.816 36.9426C17.9512 37.1939 17.9582 37.3802 17.818 37.6325C17.2391 38.6761 16.6843 39.7326 16.0965 40.8292C16.0184 40.697 10.4383 30.2779 7.69533 25.1635C7.58017 24.9492 7.57115 24.789 7.68932 24.5677C12.0196 16.486 16.3438 8.39927 20.6631 0.309567C20.7793 0.0922529 20.8974 -0.00388579 21.1578 0.000120007C22.2273 0.0181461 23.2979 0.0131387 24.3674 0.00312423C24.5667 0.00112133 24.6699 0.0662152 24.764 0.241469C29.1063 8.37123 33.4516 16.499 37.8019 24.6237C37.893 24.793 37.899 24.9202 37.8059 25.0944C33.4556 33.2192 29.1113 41.3469 24.76 49.4717C24.7049 49.5738 24.5757 49.704 24.4796 49.705C23.2859 49.721 22.0922 49.715 20.8413 49.715C20.9235 49.5548 29.6481 33.2262 33.9573 25.1835C34.0875 24.9412 34.0775 24.7659 33.9493 24.5286C30.269 17.6607 22.8102 3.72851 22.7331 3.59933C22.7191 3.62336 22.4457 4.13109 21.988 4.98533Z" fill="black"/>
</svg>
