<svg width="70" height="20" viewBox="0 0 70 20" fill="none" xmlns="http://www.w3.org/2000/svg">
<path d="M46.4022 11.8321H42.7782L45.1189 3.39375C45.353 2.54912 46.1278 1.95947 47.0156 1.95947H47.7905C48.4685 1.95947 48.9689 2.59693 48.7832 3.25032L46.4022 11.8321Z" fill="#1C1E2B"/>
<path d="M69.5019 6.55702L69.4615 6.89965L69.4373 7.13073L69.2032 9.35386L69.179 9.5929L69.0257 10.9873V11.0431L68.9934 11.33L68.9611 11.5929L68.8804 12.3818C68.8562 12.6049 68.8078 12.828 68.7351 13.0352C68.4284 13.9595 67.6858 14.7005 66.7254 15.0113L63.513 16.0551L63.2386 16.1428L63.1579 16.1746H2.01835C1.28387 16.1746 0.638168 15.7045 0.42025 15.0033L0.0166855 13.6965C-0.419159 5.80801 7.28886 6.32594 21.4942 5.52116C27.5073 1.50518 29.4605 0.214338 31.1635 0.11872C31.3976 0.102783 31.6317 0.118719 31.8657 0.142623L26.4257 5.71239L48.444 4.51716L48.9929 1.96734L54.9495 3.62472L55.5629 3.66456L56.4346 3.72831L56.9673 3.76815L57.839 3.8319L58.3717 3.86377L59.2434 3.92752L59.776 3.96735L60.6477 4.0311L61.1804 4.07094L62.0521 4.12672L62.5848 4.16656L63.4565 4.23031L65.3291 4.3578C69.0257 4.5331 69.5745 5.87972 69.5019 6.57296V6.55702Z" fill="#1C1E2B"/>
<path d="M3.75343 7.56856C1.84055 8.26179 0.662147 9.05065 0.0810184 11.1542C-0.0158362 11.4969 0.266651 11.8315 0.629856 11.8076C0.710568 11.8076 0.654068 11.8076 1.46119 11.7837C2.16339 11.7598 2.75259 11.2658 2.89787 10.5885C3.07544 9.79169 3.5355 8.91519 4.1247 8.03072C4.29419 7.77574 4.04399 7.457 3.75343 7.56059V7.56856Z" fill="#1C1E2B"/>
<path d="M19.2266 14.5408V16.1663H7.24885V14.5408C7.24885 11.5766 9.4523 9.13041 12.3257 8.69216C12.6243 8.65232 12.9229 8.62842 13.2377 8.62842C16.5469 8.62842 19.2266 11.2739 19.2266 14.5408Z" fill="#1C1E2B"/>
<path d="M62.8184 14.5413V16.1668H50.8407V14.5413C50.8407 11.5771 53.0441 9.1309 55.9175 8.69265C56.2161 8.65281 56.5147 8.62891 56.8295 8.62891C60.1387 8.62891 62.8184 11.2743 62.8184 14.5413Z" fill="#1C1E2B"/>
<path d="M69.4707 6.89941L69.4465 7.13049L69.2124 9.35362L69.1882 9.59267L69.0348 10.9871V11.0429L69.0026 11.3297L68.9703 11.5927H68.7685C68.4456 11.5927 68.1389 11.4493 67.9372 11.2022C67.7354 10.9552 67.6466 10.6285 67.7031 10.3178L67.9452 7.75998C68.0502 7.26595 68.4941 6.89941 69.0026 6.89941H69.4626H69.4707Z" fill="#1C1E2B"/>
<path d="M69.4375 7.13086L69.2034 9.35399L69.1792 9.59303L69.0259 10.9875V11.0432L68.9936 11.3301H68.7353C68.2026 11.3301 67.8071 10.852 67.904 10.342L68.1703 7.81612C68.251 7.42568 68.5981 7.1468 68.9936 7.1468H69.4294L69.4375 7.13086Z" fill="#1C1E2B"/>
<path d="M29.5081 0.541173C27.9665 1.19457 25.7469 2.67665 21.4934 5.51333H24.4797L30.3314 0.756312C30.4202 0.684598 30.3717 0.533203 30.2507 0.533203H29.5001L29.5081 0.541173Z" fill="white"/>
<path d="M56.4355 3.72033L56.3548 4.68448C56.3387 4.92352 56.1288 5.09882 55.8867 5.08289C55.6607 5.06695 55.4831 4.87571 55.4831 4.65261C55.4831 4.64464 55.4831 4.6287 55.4831 4.62073L55.5639 3.66455L56.4355 3.7283V3.72033Z" fill="#1C1E2B"/>
<path d="M57.8398 3.82399L57.7591 4.79612C57.743 5.03516 57.5331 5.21047 57.291 5.18656C57.065 5.17063 56.8874 4.97939 56.8874 4.75628C56.8874 4.74831 56.8874 4.73237 56.8874 4.7244L56.9681 3.76025L57.8398 3.82399Z" fill="#1C1E2B"/>
<path d="M59.2441 3.91955L59.1634 4.9076C59.1473 5.14665 58.9374 5.32195 58.6953 5.30601C58.4693 5.29007 58.2917 5.09884 58.2917 4.87573C58.2917 4.86777 58.2917 4.85183 58.2917 4.84386L58.3724 3.86377L59.2441 3.92752V3.91955Z" fill="#1C1E2B"/>
<path d="M60.6484 4.01525L60.5677 5.01127C60.5516 5.25032 60.3417 5.42562 60.0996 5.40968C59.8736 5.39375 59.696 5.20251 59.696 4.9794C59.696 4.97143 59.696 4.9555 59.696 4.94753L59.7767 3.95947L60.6484 4.02321V4.01525Z" fill="#1C1E2B"/>
<path d="M62.0527 4.11062L61.972 5.12258C61.9559 5.36163 61.746 5.53692 61.5039 5.51302C61.2779 5.49708 61.1003 5.30585 61.1003 5.08274C61.1003 5.07477 61.1003 5.05883 61.1003 5.05086L61.181 4.04688L62.0527 4.10265V4.11062Z" fill="#1C1E2B"/>
<path d="M63.457 4.20633L63.3763 5.22625C63.3602 5.4653 63.1503 5.6406 62.9082 5.62466C62.6822 5.60873 62.5046 5.41749 62.5046 5.19438C62.5046 5.18641 62.5046 5.17047 62.5046 5.16251L62.5853 4.14258L63.457 4.20633Z" fill="#1C1E2B"/>
<path d="M11.1139 14.6371C11.1139 15.7925 12.0583 16.7328 13.2367 16.7328C14.415 16.7328 15.3594 15.7925 15.3594 14.6371C15.3594 13.4818 14.407 12.5415 13.2367 12.5415C12.0663 12.5415 11.1139 13.4818 11.1139 14.6371Z" fill="white"/>
<path d="M18.5645 14.6369C18.5645 17.5374 16.1834 19.896 13.2375 19.896C10.2915 19.896 7.91044 17.5453 7.91044 14.6369C7.91044 11.7286 10.2915 9.37793 13.2375 9.37793C16.1834 9.37793 18.5645 11.7286 18.5645 14.6369ZM16.8534 14.6369C16.8534 12.6608 15.231 11.0672 13.2375 11.0672C11.2439 11.0672 9.62153 12.6688 9.62153 14.6369C9.62153 16.6051 11.2439 18.2067 13.2375 18.2067C15.231 18.2067 16.8534 16.6051 16.8534 14.6369Z" fill="#1C1E2B"/>
<path d="M13.2374 10.9395C15.3036 10.9395 16.9824 12.5968 16.9824 14.6367C16.9824 16.6766 15.3036 18.3339 13.2374 18.3339C11.1711 18.3339 9.49232 16.6766 9.49232 14.6367C9.49232 12.5968 11.1711 10.9395 13.2374 10.9395ZM12.0912 16.3339C12.3092 16.4774 12.5513 16.5809 12.8177 16.6288C12.9549 16.6606 13.0921 16.6686 13.2374 16.6686C13.3827 16.6686 13.5199 16.6527 13.6571 16.6288C13.9234 16.573 14.1656 16.4694 14.3835 16.3339C14.6176 16.1746 14.8193 15.9754 14.9727 15.7443C15.1099 15.5291 15.2148 15.2901 15.2632 15.0351C15.2875 14.9076 15.3036 14.7722 15.3036 14.6367C15.3036 14.4933 15.2875 14.3498 15.2552 14.2064C15.1987 13.9514 15.0937 13.7124 14.9565 13.5052C14.8032 13.2741 14.5933 13.0749 14.3593 12.9235C14.1494 12.7881 13.9073 12.6925 13.649 12.6367C13.5118 12.6128 13.3746 12.5968 13.2293 12.5968C13.084 12.5968 12.9468 12.6128 12.8096 12.6367C12.5513 12.6925 12.3173 12.7881 12.0993 12.9235C11.8653 13.0749 11.6635 13.2741 11.5021 13.5052C11.3648 13.7124 11.2599 13.9514 11.2034 14.2064C11.1711 14.3419 11.155 14.4853 11.155 14.6367C11.155 14.7722 11.1711 14.9076 11.1953 15.0351C11.2518 15.2901 11.3487 15.5291 11.494 15.7443C11.6473 15.9754 11.8491 16.1746 12.0832 16.3339H12.0912ZM11.8653 12.6845C12.1477 12.4933 12.4625 12.3578 12.8096 12.302V11.298C12.1881 11.3697 11.615 11.6168 11.1469 11.9753L11.8653 12.6845ZM13.649 12.302C13.9961 12.3658 14.3189 12.4933 14.5933 12.6845L15.3117 11.9753C14.8435 11.6088 14.2705 11.3697 13.649 11.298V12.302ZM15.1906 13.2741C15.3843 13.553 15.5215 13.8638 15.5861 14.2144H16.6031C16.5224 13.6008 16.2721 13.0351 15.9009 12.5729L15.1825 13.2821L15.1906 13.2741ZM15.5942 15.0351C15.5377 15.3857 15.4005 15.7044 15.1987 15.9833L15.917 16.6925C16.2883 16.2224 16.5304 15.6566 16.6031 15.0351H15.5861H15.5942ZM14.6095 16.573C14.327 16.7722 14.0041 16.9076 13.649 16.9714V17.9754C14.2786 17.8957 14.8516 17.6566 15.3278 17.2821L14.6095 16.573ZM12.8096 16.9714C12.4545 16.9076 12.1316 16.7722 11.8491 16.573L11.1308 17.2821C11.607 17.6487 12.18 17.8957 12.8096 17.9754V16.9714ZM11.2518 15.9913C11.0581 15.7124 10.9209 15.3937 10.8564 15.0431H9.83938C9.91202 15.6646 10.1622 16.2303 10.5335 16.7005L11.2518 15.9913ZM10.8644 14.2144C10.929 13.8718 11.0662 13.553 11.2599 13.2741L10.5416 12.565C10.1703 13.0271 9.92009 13.5929 9.83938 14.2064H10.8564L10.8644 14.2144Z" fill="white"/>
<path d="M54.7624 14.6371C54.7624 15.7925 55.7067 16.7328 56.8851 16.7328C58.0635 16.7328 59.0078 15.7925 59.0078 14.6371C59.0078 13.4818 58.0554 12.5415 56.8851 12.5415C55.7147 12.5415 54.7624 13.4818 54.7624 14.6371Z" fill="white"/>
<path d="M62.2129 14.6369C62.2129 17.5374 59.8319 19.896 56.8859 19.896C53.9399 19.896 51.5589 17.5453 51.5589 14.6369C51.5589 11.7286 53.9399 9.37793 56.8859 9.37793C59.8319 9.37793 62.2129 11.7286 62.2129 14.6369ZM60.5018 14.6369C60.5018 12.6608 58.8795 11.0672 56.8859 11.0672C54.8923 11.0672 53.27 12.6688 53.27 14.6369C53.27 16.6051 54.8923 18.2067 56.8859 18.2067C58.8795 18.2067 60.5018 16.6051 60.5018 14.6369Z" fill="#1C1E2B"/>
<path d="M56.8858 10.9395C58.952 10.9395 60.6309 12.5968 60.6309 14.6367C60.6309 16.6766 58.952 18.3339 56.8858 18.3339C54.8196 18.3339 53.1408 16.6766 53.1408 14.6367C53.1408 12.5968 54.8196 10.9395 56.8858 10.9395ZM55.7397 16.3339C55.9576 16.4774 56.1998 16.5809 56.4661 16.6288C56.6033 16.6606 56.7405 16.6686 56.8858 16.6686C57.0311 16.6686 57.1683 16.6527 57.3055 16.6288C57.5719 16.573 57.814 16.4694 58.0319 16.3339C58.266 16.1746 58.4678 15.9754 58.6211 15.7443C58.7583 15.5291 58.8633 15.2901 58.9117 15.0351C58.9359 14.9076 58.9521 14.7722 58.9521 14.6367C58.9521 14.4933 58.9359 14.3498 58.9036 14.2064C58.8471 13.9514 58.7422 13.7124 58.605 13.5052C58.4516 13.2741 58.2498 13.0749 58.0077 12.9235C57.7979 12.7881 57.5557 12.6925 57.2975 12.6367C57.1602 12.6128 57.023 12.5968 56.8777 12.5968C56.7325 12.5968 56.5952 12.6128 56.458 12.6367C56.1998 12.6925 55.9657 12.7881 55.7478 12.9235C55.5137 13.0749 55.3119 13.2741 55.1505 13.5052C55.0133 13.7124 54.9084 13.9514 54.8519 14.2064C54.8196 14.3419 54.8034 14.4853 54.8034 14.6367C54.8034 14.7722 54.8196 14.9076 54.8438 15.0351C54.9003 15.2901 54.9972 15.5291 55.1424 15.7443C55.2958 15.9754 55.4976 16.1746 55.7316 16.3339H55.7397ZM55.5137 12.6845C55.7962 12.4933 56.111 12.3578 56.458 12.302V11.298C55.8366 11.3697 55.2635 11.6168 54.7954 11.9753L55.5137 12.6845ZM57.2975 12.302C57.6445 12.3658 57.9674 12.4933 58.2418 12.6845L58.9601 11.9753C58.492 11.6088 57.9189 11.3697 57.2975 11.298V12.302ZM58.8391 13.2741C59.0328 13.553 59.178 13.8638 59.2345 14.2144H60.2515C60.1708 13.6008 59.9206 13.0351 59.5493 12.5729L58.831 13.2821L58.8391 13.2741ZM59.2426 15.0351C59.1861 15.3857 59.0489 15.7044 58.8471 15.9833L59.5655 16.6925C59.9367 16.2224 60.1789 15.6566 60.2515 15.0351H59.2345H59.2426ZM58.2579 16.573C57.9754 16.7722 57.6526 16.9076 57.2975 16.9714V17.9754C57.927 17.8957 58.5001 17.6566 58.9763 17.2821L58.2579 16.573ZM56.458 16.9714C56.1029 16.9076 55.7801 16.7722 55.4976 16.573L54.7792 17.2821C55.2554 17.6487 55.8285 17.8957 56.458 17.9754V16.9714ZM54.9003 15.9913C54.7066 15.7124 54.5694 15.3937 54.5048 15.0431H53.4878C53.5605 15.6646 53.8107 16.2303 54.182 16.7005L54.9003 15.9913ZM54.5129 14.2144C54.5774 13.8718 54.7147 13.553 54.9084 13.2741L54.19 12.565C53.8187 13.0271 53.5685 13.5929 53.4878 14.2064H54.5048L54.5129 14.2144Z" fill="white"/>
</svg>
