<svg width="41" height="28" viewBox="0 0 41 28" fill="currentColor" xmlns="http://www.w3.org/2000/svg">
<path d="M37.2696 15.1929C37.7912 15.1689 38.3256 15.4644 38.6316 15.942C39.0489 16.597 38.9028 17.3825 38.3041 17.6942C37.7028 18.009 36.8783 17.7306 36.4609 17.0728C36.0404 16.4173 36.1865 15.6322 36.7883 15.3201C36.9314 15.2432 37.0964 15.2003 37.2696 15.1929ZM29.2131 7.40245H31.7164C32.8419 7.40245 33.9939 7.86803 34.6667 8.64385C35.7227 9.86543 36.8297 11.1668 37.29 12.1993C37.6364 12.9775 37.407 13.2458 36.7955 13.2458H29.2213C28.5403 13.2458 28.2767 13.1162 28.2767 12.4704V8.17319C28.2767 7.60896 28.5562 7.40245 29.2131 7.40245ZM19.8535 7.40245H25.6457C26.3027 7.40245 26.5822 7.60896 26.5822 8.17273V12.4681C26.5822 13.113 26.3185 13.2453 25.6376 13.2453H19.8586C19.1771 13.2453 18.914 13.113 18.914 12.4681V8.17273C18.9145 7.60896 19.1965 7.40245 19.8535 7.40245ZM10.4933 7.40245H16.2825C16.94 7.40245 17.2189 7.60896 17.2189 8.17273V12.4681C17.2189 13.113 16.9584 13.2453 16.2774 13.2453H10.4989C9.81792 13.2453 9.55431 13.113 9.55431 12.4681V8.17273C9.55482 7.60896 9.83376 7.40245 10.4933 7.40245ZM4.93042 7.40245H6.92077C7.58082 7.40245 7.86026 7.60896 7.86026 8.17273V12.4681C7.86026 13.113 7.59665 13.2453 6.91515 13.2453H2.88182C2.20083 13.2453 1.93722 13.113 1.93722 12.4681V10.8519C1.93722 8.99142 3.37686 7.40245 4.93042 7.40245ZM14.8193 4.15719H22.5274V5.38661H14.8193V4.15719ZM5.52098 0.111678C4.99428 0.130577 4.90079 0.585098 5.37743 0.913773C5.86684 1.25443 6.11717 1.95557 6.12534 2.64196C5.31612 2.71618 4.65659 2.79777 4.18812 2.88997C3.73038 2.97848 3.48312 3.19467 3.48312 3.42977C3.48312 4.06868 5.84028 4.15719 6.64643 4.15719H12.2466V5.38661H6.02113C2.59982 5.38661 0 7.53013 0 10.7906V21.5723C0 22.7584 0.904753 23.7136 2.02765 23.7136H4.66987C4.66987 21.2169 6.91515 19.1909 9.68458 19.1909C11.0123 19.1909 12.2864 19.6685 13.2285 20.5162C14.168 21.3663 14.6973 22.5159 14.6973 23.714H25.8981C25.8981 21.2174 28.1439 19.1914 30.9133 19.1914C32.2411 19.1914 33.5183 19.669 34.4572 20.5167C35.3962 21.3667 35.926 22.5164 35.926 23.7145H38.839C39.8127 23.7145 40.5953 22.8866 40.5953 21.8591V16.7745C40.5953 13.2577 38.5227 9.45516 36.0588 7.25632C34.7663 6.10158 33.0922 5.38614 31.3736 5.38614H25.1001V4.15673H30.7008C31.507 4.15673 33.8616 4.06822 33.8616 3.42931C33.8616 3.19375 33.6143 2.97801 33.1566 2.88951C31.3103 2.53179 26.5714 2.28379 20.9876 2.28379H16.3581C13.5192 2.28379 10.9066 2.34925 8.77268 2.45711C8.23524 1.46786 7.27429 0.71417 6.1892 0.25965C5.91997 0.147633 5.69672 0.107068 5.52098 0.111678Z" fill="currentColor"/>
<path d="M30.9143 27.1946C28.7829 27.1946 27.0562 25.6361 27.0562 23.7129C27.0562 21.7925 28.7829 20.2344 30.9143 20.2344C31.9355 20.2344 32.9174 20.6018 33.6382 21.2545C34.3621 21.9054 34.7693 22.7909 34.7693 23.7129C34.7693 25.6356 33.0425 27.1946 30.9143 27.1946ZM30.9143 25.0188C31.7127 25.0188 32.3585 24.4329 32.3585 23.7129C32.3585 22.9933 31.7122 22.4093 30.9143 22.4093C30.1163 22.4093 29.467 22.9933 29.467 23.7129C29.467 24.4334 30.1163 25.0188 30.9143 25.0188Z" fill="currentColor"/>
<path d="M9.68622 27.1946C7.55487 27.1946 5.82812 25.6361 5.82812 23.7129C5.82812 21.7925 7.55487 20.2344 9.68622 20.2344C10.708 20.2344 11.6899 20.6018 12.4107 21.2545C13.1341 21.9054 13.5413 22.7909 13.5413 23.7129C13.5413 25.6356 11.8145 27.1946 9.68622 27.1946ZM9.68622 25.0188C10.4847 25.0188 11.131 24.4329 11.131 23.7129C11.131 22.9933 10.4842 22.4093 9.68622 22.4093C8.88824 22.4093 8.23892 22.9933 8.23892 23.7129C8.23892 24.4334 8.88824 25.0188 9.68622 25.0188Z" fill="currentColor"/>
</svg>
