<svg width="46" height="22" viewBox="0 0 46 22" fill="currentColor" xmlns="http://www.w3.org/2000/svg">
<path d="M10.5175 12.251C9.58495 12.251 8.67329 12.5257 7.89787 13.0405C7.12244 13.5552 6.51807 14.2869 6.16118 15.1429C5.80429 15.9989 5.71091 16.9409 5.89285 17.8496C6.07479 18.7583 6.52388 19.5931 7.18333 20.2482C7.84277 20.9034 8.68296 21.3496 9.59764 21.5303C10.5123 21.7111 11.4604 21.6183 12.322 21.2637C13.1836 20.9092 13.92 20.3087 14.4382 19.5383C14.9563 18.7679 15.2328 17.8622 15.2328 16.9357C15.2314 15.6936 14.7342 14.5029 13.8502 13.6246C12.9662 12.7464 11.7677 12.2524 10.5175 12.251ZM10.5175 19.0978C10.0871 19.0978 9.66635 18.971 9.30846 18.7334C8.95057 18.4958 8.67163 18.1582 8.50691 17.7631C8.3422 17.368 8.2991 16.9333 8.38307 16.5138C8.46704 16.0944 8.67432 15.7092 8.97868 15.4068C9.28304 15.1044 9.67081 14.8985 10.093 14.815C10.5151 14.7316 10.9527 14.7744 11.3504 14.9381C11.748 15.1017 12.0879 15.3789 12.3271 15.7344C12.5662 16.09 12.6938 16.508 12.6938 16.9357C12.6938 17.5091 12.4646 18.059 12.0564 18.4645C11.6483 18.87 11.0947 19.0978 10.5175 19.0978Z" fill="currentColor"/>
<path d="M36.6333 12.251C35.7007 12.251 34.789 12.5257 34.0136 13.0405C33.2382 13.5552 32.6338 14.2869 32.2769 15.1429C31.92 15.9989 31.8266 16.9409 32.0086 17.8496C32.1905 18.7583 32.6396 19.5931 33.299 20.2482C33.9585 20.9034 34.7987 21.3496 35.7134 21.5303C36.628 21.7111 37.5761 21.6183 38.4377 21.2637C39.2993 20.9092 40.0358 20.3087 40.5539 19.5383C41.072 18.7679 41.3486 17.8622 41.3486 16.9357C41.3472 15.6936 40.8499 14.5029 39.9659 13.6246C39.0819 12.7464 37.8834 12.2524 36.6333 12.251ZM36.6333 19.0978C36.2028 19.0978 35.7821 18.971 35.4242 18.7334C35.0663 18.4958 34.7874 18.1582 34.6226 17.7631C34.4579 17.368 34.4148 16.9333 34.4988 16.5138C34.5828 16.0944 34.79 15.7092 35.0944 15.4068C35.3988 15.1044 35.7865 14.8985 36.2087 14.815C36.6309 14.7316 37.0684 14.7744 37.4661 14.9381C37.8638 15.1017 38.2037 15.3789 38.4428 15.7344C38.6819 16.09 38.8096 16.508 38.8096 16.9357C38.8096 17.5091 38.5803 18.059 38.1721 18.4645C37.764 18.87 37.2105 19.0978 36.6333 19.0978Z" fill="currentColor"/>
<path d="M42.9273 8.38198L34.4579 6.84685L27.2476 0.903163C26.533 0.319979 25.6371 0.000822671 24.7123 1.10652e-05H14.0897C13.4911 -0.00139751 12.8999 0.131693 12.3603 0.389327C11.8208 0.646961 11.3469 1.02247 10.974 1.48776L6.36855 6.84685H3.26444C2.39895 6.8478 1.56918 7.18981 0.957192 7.79783C0.345199 8.40584 0.000960054 9.23022 0 10.0901V14.054C0.00117606 15.105 0.421914 16.1126 1.1699 16.8557C1.91789 17.5988 2.93205 18.0168 3.98987 18.018H4.81913C4.65817 17.184 4.68462 16.325 4.8966 15.5023C5.10858 14.6797 5.50084 13.9137 6.04536 13.2591C6.58988 12.6046 7.27321 12.0776 8.04651 11.7158C8.81982 11.3541 9.664 11.1665 10.5187 11.1665C11.3735 11.1665 12.2177 11.3541 12.991 11.7158C13.7643 12.0776 14.4476 12.6046 14.9921 13.2591C15.5366 13.9137 15.9289 14.6797 16.1409 15.5023C16.3529 16.325 16.3793 17.184 16.2184 18.018H30.9346C30.7737 17.184 30.8001 16.325 31.0121 15.5023C31.2241 14.6797 31.6163 13.9137 32.1609 13.2591C32.7054 12.6046 33.3887 12.0776 34.162 11.7158C34.9353 11.3541 35.7795 11.1665 36.6342 11.1665C37.489 11.1665 38.3332 11.3541 39.1065 11.7158C39.8798 12.0776 40.5631 12.6046 41.1076 13.2591C41.6521 13.9137 42.0444 14.6797 42.2564 15.5023C42.4684 16.325 42.4948 17.184 42.3339 18.018H42.4377C43.3032 18.0171 44.1329 17.6751 44.7449 17.067C45.3569 16.459 45.7012 15.6346 45.7021 14.7748V11.5885C45.706 10.8116 45.4275 10.0594 44.9177 9.47022C44.4079 8.88109 43.7011 8.49466 42.9273 8.38198ZM15.9595 5.76577C15.9595 6.05249 15.8448 6.32747 15.6408 6.53021C15.4367 6.73295 15.1599 6.84685 14.8713 6.84685H10.0876C9.98353 6.84691 9.88167 6.81733 9.79404 6.76163C9.70641 6.70593 9.63669 6.62644 9.59314 6.53257C9.5496 6.43871 9.53405 6.33441 9.54834 6.23203C9.56264 6.12966 9.60618 6.0335 9.6738 5.95496L12.8399 2.27028C12.9422 2.15154 13.0691 2.05623 13.2119 1.99091C13.3548 1.92559 13.5102 1.89181 13.6675 1.8919H14.8713C15.1599 1.8919 15.4367 2.0058 15.6408 2.20854C15.8448 2.41128 15.9595 2.68626 15.9595 2.97298V5.76577ZM21.4002 10.8108H19.9493C19.6607 10.8108 19.384 10.6969 19.1799 10.4942C18.9758 10.2914 18.8612 10.0164 18.8612 9.72973C18.8612 9.44301 18.9758 9.16803 19.1799 8.96529C19.384 8.76255 19.6607 8.64865 19.9493 8.64865H21.4002C21.6888 8.64865 21.9656 8.76255 22.1696 8.96529C22.3737 9.16803 22.4883 9.44301 22.4883 9.72973C22.4883 10.0164 22.3737 10.2914 22.1696 10.4942C21.9656 10.6969 21.6888 10.8108 21.4002 10.8108ZM29.9674 6.87334L19.5841 6.84937C19.2959 6.8487 19.0198 6.73451 18.8163 6.53184C18.6128 6.32917 18.4985 6.05458 18.4985 5.76829V2.97298C18.4985 2.68626 18.6131 2.41128 18.8172 2.20854C19.0213 2.0058 19.298 1.8919 19.5866 1.8919H24.805C25.0496 1.89192 25.287 1.9738 25.479 2.12433L30.3057 5.90811C30.3946 5.97771 30.4595 6.07316 30.4913 6.18114C30.5231 6.28913 30.5201 6.40427 30.4829 6.51052C30.4457 6.61677 30.376 6.70883 30.2836 6.77387C30.1912 6.8389 30.0807 6.87368 29.9674 6.87334Z" fill="currentColor"/>
</svg>
