<svg width="41" height="42" viewBox="0 0 41 42" fill="currentColor" xmlns="http://www.w3.org/2000/svg">
<g clip-path="url(#clip0_2691_36571)">
<path d="M33.3964 26.8086C31.4991 26.8086 29.9556 28.3525 29.9556 30.2494C29.9556 32.1467 31.4991 33.6902 33.3964 33.6902C35.2933 33.6902 36.8372 32.1467 36.8372 30.2494C36.8372 28.3525 35.2933 26.8086 33.3964 26.8086ZM33.3964 31.2614C32.8382 31.2614 32.3844 30.8076 32.3844 30.2494C32.3844 29.6912 32.8382 29.2374 33.3964 29.2374C33.9546 29.2374 34.4084 29.6912 34.4084 30.2494C34.4084 30.8076 33.9546 31.2614 33.3964 31.2614Z" fill="currentColor"/>
<path d="M33.0665 12.5059H27.1216C26.6743 12.5059 26.312 12.8686 26.312 13.3155V29.1028C26.312 29.5496 26.6743 29.9124 27.1216 29.9124H27.9802C28.381 29.9124 28.736 29.6237 28.7878 29.2262C29.1055 26.7917 31.0474 25.2819 33.3965 25.2819C35.7455 25.2819 37.6874 26.7918 38.0051 29.2262C38.0569 29.6238 38.4115 29.9124 38.8127 29.9124H39.6704C40.1173 29.9124 40.48 29.5496 40.48 29.1028V21.2091C40.48 21.0189 40.4132 20.8351 40.2914 20.6897L33.6874 12.7961C33.5337 12.6124 33.3062 12.5059 33.0665 12.5059ZM27.9312 18.9827V14.9347C27.9312 14.4878 28.2935 14.1251 28.7408 14.1251H32.3071C32.5472 14.1251 32.7751 14.232 32.9289 14.4165L36.3021 18.4645C36.7413 18.992 36.3665 19.7923 35.6799 19.7923H28.7408C28.2935 19.7923 27.9312 19.43 27.9312 18.9827Z" fill="currentColor"/>
<path d="M0.809605 29.9121H2.88263C3.2834 29.9121 3.63839 29.6234 3.69018 29.2259C4.00794 26.7914 5.9498 25.2816 8.29885 25.2816C10.6479 25.2816 12.5898 26.7915 12.9075 29.2259C12.9593 29.6235 13.3139 29.9121 13.7151 29.9121H23.8833C24.3303 29.9121 24.6929 29.5493 24.6929 29.1025V8.86234C24.6929 8.41547 24.3302 8.05273 23.8833 8.05273H0.809605C0.362272 8.05273 0 8.41547 0 8.86234V29.1025C0 29.5494 0.362272 29.9121 0.809605 29.9121Z" fill="currentColor"/>
<path d="M8.29922 26.8086C6.40194 26.8086 4.8584 28.3525 4.8584 30.2494C4.8584 32.1467 6.40194 33.6902 8.29922 33.6902C10.1961 33.6902 11.74 32.1467 11.74 30.2494C11.74 28.3525 10.1961 26.8086 8.29922 26.8086ZM8.29922 31.2614C7.74103 31.2614 7.28721 30.8076 7.28721 30.2494C7.28721 29.6912 7.74103 29.2374 8.29922 29.2374C8.85741 29.2374 9.31122 29.6912 9.31122 30.2494C9.31122 30.8076 8.85741 31.2614 8.29922 31.2614Z" fill="currentColor"/>
</g>
<defs>
<clipPath id="clip0_2691_36571">
<rect width="40.4802" height="40.4802" fill="white" transform="translate(0 0.630859)"/>
</clipPath>
</defs>
</svg>
