<svg width="74" height="20" viewBox="0 0 74 20" fill="none" xmlns="http://www.w3.org/2000/svg">
<path d="M71.8337 11.3677H72.4077C72.8684 11.3677 73.2564 11.0297 73.3049 10.5817L73.4746 8.85247C73.5231 8.34157 73.1109 7.89355 72.5774 7.89355H71.8337V11.3755V11.3677Z" fill="#1C1E2B"/>
<path d="M2.65068 9.8586C2.81234 10.8725 2.52135 11.7528 1.99594 11.8314C1.47053 11.91 0.912791 11.1555 0.751127 10.1416C0.589463 9.12762 0.880457 8.24731 1.40586 8.16871C1.93127 8.09011 2.48093 8.84467 2.65068 9.8586Z" fill="#1C1E2B"/>
<path d="M72.9981 7.87008L72.1008 13.1048L69.6112 15.0619C68.6735 15.8008 67.5096 16.2016 66.3052 16.2016H5.95599C5.18809 16.2016 4.4606 15.8794 3.95136 15.3213L2.05181 13.2306L1.29198 8.44385C1.1869 7.7679 1.6719 7.1391 2.36705 7.04478C14.0554 5.53567 15.9549 5.44135 24.0866 5.56711L29.6398 0.80398C30.1571 0.363823 30.8199 0.112305 31.507 0.112305H41.3523C50.2762 0.112305 52.5071 2.50959 54.9483 5.15839C56.088 5.07979 65.9899 5.22127 71.8341 6.26665C72.602 6.40026 73.1112 7.10766 72.9819 7.85436L72.9981 7.87008Z" fill="#1C1E2B"/>
<path d="M41.3695 0.835449H31.6535C31.0554 0.835449 30.4895 1.04767 30.045 1.44067L25.195 5.72434L44.8534 5.6929L50.1641 5.31562C50.1641 5.31562 47.5128 0.843309 41.3938 0.843309H41.3695V0.835449Z" fill="white"/>
<path d="M25.1949 5.72436C23.6429 7.02911 21.0401 11.1163 23.8127 15.4943H42.4202C43.7539 15.4943 44.7643 14.3153 44.5138 13.042C44.0773 10.9041 44.0692 8.31028 44.8613 5.68506L25.203 5.7165L25.1949 5.72436Z" fill="#1C1E2B"/>
<path d="M41.5459 0.654785H42.2168V5.68515H41.5459V0.654785Z" fill="#1C1E2B"/>
<path d="M68.4636 14.8576H72.9982C73.2488 14.8576 73.4751 14.7161 73.5721 14.4882L73.944 13.6393C74.1137 13.2463 73.8146 12.8062 73.3701 12.8062H68.8354C68.5848 12.8062 68.3585 12.9555 68.2615 13.1756L67.8896 14.0244C67.7199 14.4253 68.019 14.8576 68.4636 14.8576Z" fill="#1C1E2B"/>
<g opacity="0.15">
<path d="M36.6093 1.09473L31.9372 5.457H35.6312L40.3438 1.09473H36.6093Z" fill="white"/>
<path d="M34.9362 1.09473L30.2884 5.457H31.4847L36.1406 1.09473H34.9362Z" fill="white"/>
</g>
<path d="M5.52826 14.8576H0.993587C0.743008 14.8576 0.516679 14.7161 0.419681 14.4882L0.0478539 13.6393C-0.121893 13.2463 0.177185 12.8062 0.621761 12.8062H5.15644C5.40702 12.8062 5.63335 12.9555 5.73034 13.1756L6.10217 14.0244C6.27192 14.4253 5.97284 14.8576 5.52826 14.8576Z" fill="#1C1E2B"/>
<path d="M61.8594 14.6138V16.2173H49.8639V14.6138C49.8639 11.6899 52.0706 9.27691 54.9482 8.84461C55.2473 8.80531 55.5464 8.78174 55.8616 8.78174C59.1758 8.78174 61.8594 11.3912 61.8594 14.6138Z" fill="#1C1E2B"/>
<path d="M53.7932 14.7078C53.7932 15.8475 54.7389 16.775 55.919 16.775C57.0992 16.775 58.0449 15.8475 58.0449 14.7078C58.0449 13.5681 57.0911 12.6406 55.919 12.6406C54.747 12.6406 53.7932 13.5681 53.7932 14.7078Z" fill="white"/>
<path d="M61.2539 14.7081C61.2539 17.5691 58.8694 19.8956 55.919 19.8956C52.9686 19.8956 50.5841 17.577 50.5841 14.7081C50.5841 11.8392 52.9686 9.52051 55.919 9.52051C58.8694 9.52051 61.2539 11.8392 61.2539 14.7081ZM59.5403 14.7081C59.5403 12.7588 57.9155 11.1868 55.919 11.1868C53.9224 11.1868 52.2977 12.7667 52.2977 14.7081C52.2977 16.6495 53.9224 18.2293 55.919 18.2293C57.9155 18.2293 59.5403 16.6495 59.5403 14.7081Z" fill="#1C1E2B"/>
<path d="M55.9193 11.061C57.9886 11.061 59.6699 12.6959 59.6699 14.7081C59.6699 16.7202 57.9886 18.3551 55.9193 18.3551C53.85 18.3551 52.1687 16.7202 52.1687 14.7081C52.1687 12.6959 53.85 11.061 55.9193 11.061ZM54.7715 16.3822C54.9897 16.5237 55.2323 16.6259 55.499 16.673C55.6364 16.7045 55.7738 16.7123 55.9193 16.7123C56.0648 16.7123 56.2022 16.6966 56.3396 16.673C56.6064 16.618 56.8489 16.5158 57.0671 16.3822C57.3016 16.225 57.5036 16.0285 57.6572 15.8006C57.7946 15.5884 57.8997 15.3526 57.9482 15.1011C57.9725 14.9753 57.9886 14.8417 57.9886 14.7081C57.9886 14.5666 57.9724 14.4251 57.9401 14.2836C57.8835 14.0321 57.7785 13.7963 57.641 13.5919C57.4875 13.364 57.2854 13.1675 57.0429 13.0182C56.8327 12.8845 56.5902 12.7902 56.3316 12.7352C56.1942 12.7116 56.0567 12.6959 55.9112 12.6959C55.7657 12.6959 55.6283 12.7116 55.4909 12.7352C55.2322 12.7902 54.9978 12.8845 54.7796 13.0182C54.5452 13.1675 54.3431 13.364 54.1814 13.5919C54.044 13.7963 53.9389 14.0321 53.8824 14.2836C53.85 14.4172 53.8339 14.5587 53.8339 14.7081C53.8339 14.8417 53.85 14.9753 53.8743 15.1011C53.9308 15.3526 54.0279 15.5884 54.1734 15.8006C54.3269 16.0285 54.529 16.225 54.7634 16.3822H54.7715ZM54.5452 12.7824C54.8281 12.5937 55.1433 12.4601 55.4909 12.4051V11.4147C54.8685 11.4855 54.2946 11.7291 53.8258 12.0828L54.5452 12.7824ZM56.3316 12.4051C56.6791 12.468 57.0025 12.5937 57.2773 12.7824L57.9967 12.0828C57.5279 11.7213 56.954 11.4855 56.3316 11.4147V12.4051ZM57.8755 13.364C58.0695 13.6391 58.2149 13.9456 58.2715 14.2915H59.29C59.2092 13.6863 58.9586 13.1282 58.5868 12.6723L57.8674 13.3719L57.8755 13.364ZM58.2796 15.1011C58.223 15.4469 58.0856 15.7613 57.8835 16.0364L58.6029 16.7359C58.9748 16.2722 59.2173 15.7141 59.29 15.1011H58.2715H58.2796ZM57.2935 16.618C57.0106 16.8145 56.6872 16.9481 56.3316 17.011V18.0014C56.9621 17.9228 57.536 17.687 58.0129 17.3176L57.2935 16.618ZM55.4909 17.011C55.1352 16.9481 54.8119 16.8145 54.529 16.618L53.8096 17.3176C54.2865 17.6791 54.8604 17.9228 55.4909 18.0014V17.011ZM53.9309 16.0442C53.7369 15.7691 53.5994 15.4547 53.5348 15.1089H52.5163C52.589 15.722 52.8396 16.28 53.2115 16.7438L53.9309 16.0442ZM53.5429 14.2915C53.6075 13.9535 53.7449 13.6391 53.9389 13.364L53.2195 12.6645C52.8477 13.1203 52.5971 13.6784 52.5163 14.2836H53.5348L53.5429 14.2915Z" fill="white"/>
<path d="M21.4434 14.6138V16.2173H9.44789V14.6138C9.44789 11.6899 11.6546 9.27691 14.5322 8.84461C14.8313 8.80531 15.1304 8.78174 15.4456 8.78174C18.7597 8.78174 21.4434 11.3912 21.4434 14.6138Z" fill="#1C1E2B"/>
<path d="M13.3752 14.7078C13.3752 15.8475 14.3209 16.775 15.5011 16.775C16.6812 16.775 17.627 15.8475 17.627 14.7078C17.627 13.5681 16.6731 12.6406 15.5011 12.6406C14.329 12.6406 13.3752 13.5681 13.3752 14.7078Z" fill="white"/>
<path d="M20.8359 14.7081C20.8359 17.5691 18.4514 19.8956 15.501 19.8956C12.5507 19.8956 10.1661 17.577 10.1661 14.7081C10.1661 11.8392 12.5507 9.52051 15.501 9.52051C18.4514 9.52051 20.8359 11.8392 20.8359 14.7081ZM19.1223 14.7081C19.1223 12.7588 17.4976 11.1868 15.501 11.1868C13.5045 11.1868 11.8797 12.7667 11.8797 14.7081C11.8797 16.6495 13.5045 18.2293 15.501 18.2293C17.4976 18.2293 19.1223 16.6495 19.1223 14.7081Z" fill="#1C1E2B"/>
<path d="M15.5013 11.061C17.5706 11.061 19.252 12.6959 19.252 14.7081C19.252 16.7202 17.5706 18.3551 15.5013 18.3551C13.432 18.3551 11.7507 16.7202 11.7507 14.7081C11.7507 12.6959 13.432 11.061 15.5013 11.061ZM14.3535 16.3822C14.5718 16.5237 14.8143 16.6259 15.081 16.673C15.2184 16.7045 15.3558 16.7123 15.5013 16.7123C15.6468 16.7123 15.7843 16.6966 15.9217 16.673C16.1884 16.618 16.4309 16.5158 16.6492 16.3822C16.8836 16.225 17.0857 16.0285 17.2392 15.8006C17.3767 15.5884 17.4817 15.3526 17.5302 15.1011C17.5545 14.9753 17.5707 14.8417 17.5707 14.7081C17.5707 14.5666 17.5545 14.4251 17.5221 14.2836C17.4656 14.0321 17.3605 13.7963 17.2231 13.5919C17.0695 13.364 16.8674 13.1675 16.6249 13.0182C16.4147 12.8845 16.1723 12.7902 15.9136 12.7352C15.7762 12.7116 15.6388 12.6959 15.4933 12.6959C15.3478 12.6959 15.2104 12.7116 15.0729 12.7352C14.8143 12.7902 14.5799 12.8845 14.3616 13.0182C14.1272 13.1675 13.9251 13.364 13.7635 13.5919C13.626 13.7963 13.521 14.0321 13.4644 14.2836C13.4321 14.4172 13.4159 14.5587 13.4159 14.7081C13.4159 14.8417 13.432 14.9753 13.4563 15.1011C13.5129 15.3526 13.6099 15.5884 13.7554 15.8006C13.909 16.0285 14.111 16.225 14.3455 16.3822H14.3535ZM14.1272 12.7824C14.4101 12.5937 14.7254 12.4601 15.0729 12.4051V11.4147C14.4505 11.4855 13.8766 11.7291 13.4078 12.0828L14.1272 12.7824ZM15.9136 12.4051C16.2612 12.468 16.5845 12.5937 16.8593 12.7824L17.5787 12.0828C17.1099 11.7213 16.536 11.4855 15.9136 11.4147V12.4051ZM17.4575 13.364C17.6515 13.6391 17.797 13.9456 17.8536 14.2915H18.8721C18.7912 13.6863 18.5406 13.1282 18.1688 12.6723L17.4494 13.3719L17.4575 13.364ZM17.8617 15.1011C17.8051 15.4469 17.6677 15.7613 17.4656 16.0364L18.185 16.7359C18.5568 16.2722 18.7993 15.7141 18.8721 15.1011H17.8536H17.8617ZM16.8755 16.618C16.5926 16.8145 16.2693 16.9481 15.9136 17.011V18.0014C16.5441 17.9228 17.118 17.687 17.5949 17.3176L16.8755 16.618ZM15.0729 17.011C14.7173 16.9481 14.394 16.8145 14.111 16.618L13.3916 17.3176C13.8685 17.6791 14.4424 17.9228 15.0729 18.0014V17.011ZM13.5129 16.0442C13.3189 15.7691 13.1815 15.4547 13.1168 15.1089H12.0983C12.1711 15.722 12.4217 16.28 12.7935 16.7438L13.5129 16.0442ZM13.1249 14.2915C13.1896 13.9535 13.327 13.6391 13.521 13.364L12.8016 12.6645C12.4297 13.1203 12.1792 13.6784 12.0983 14.2836H13.1168L13.1249 14.2915Z" fill="white"/>
</svg>
