<svg width="24" height="23" viewBox="0 0 24 23" fill="none" xmlns="http://www.w3.org/2000/svg">
<g clip-path="url(#clip0_2691_36848)">
<path d="M22.5714 8.49642H20.4476C20.0561 8.49642 19.7397 8.81357 19.7397 9.20434V9.91225H19.0318V9.20434C19.0318 8.81357 18.7153 8.49642 18.3239 8.49642H17.2011L15.2855 6.5808C15.2204 6.51497 15.1418 6.46329 15.0547 6.42719C14.9683 6.39179 14.8763 6.37268 14.7843 6.37268H12.6605V4.95685H14.0764C14.4678 4.95685 14.7843 4.6397 14.7843 4.24893C14.7843 3.85816 14.4678 3.54102 14.0764 3.54102H7.70513C7.31365 3.54102 6.99721 3.85816 6.99721 4.24893C6.99721 4.6397 7.31365 4.95685 7.70513 4.95685H9.12096V6.37268H6.99721C6.97456 6.37268 6.95545 6.3833 6.9335 6.38542C6.88253 6.39037 6.8351 6.39958 6.78696 6.41515C6.7452 6.4286 6.70697 6.44347 6.66874 6.464C6.6291 6.48524 6.593 6.51001 6.55689 6.53904C6.51937 6.57019 6.48681 6.60275 6.45637 6.64027C6.4415 6.65797 6.42168 6.66859 6.40823 6.68841L5.20265 8.49642H3.45764C3.06616 8.49642 2.74972 8.81357 2.74972 9.20434V11.3281H2.04181V9.20434C2.04181 8.81357 1.72537 8.49642 1.33389 8.49642C0.942415 8.49642 0.625977 8.81357 0.625977 9.20434V15.5756C0.625977 15.9663 0.942415 16.2835 1.33389 16.2835C1.72537 16.2835 2.04181 15.9663 2.04181 15.5756V12.7439H2.74972V15.5756C2.74972 15.9663 3.06616 16.2835 3.45764 16.2835H5.14389L6.36434 18.7237C6.39761 18.7902 6.4415 18.8483 6.49106 18.8992C6.50097 18.9099 6.51371 18.9169 6.52433 18.9261C6.57459 18.9722 6.63051 19.009 6.6914 19.0387C6.71193 19.0486 6.73245 19.0578 6.7544 19.0656C6.83156 19.0946 6.91227 19.1144 6.9958 19.1152C6.99651 19.1152 6.99651 19.1152 6.99721 19.1152H15.4922C15.5956 19.1152 15.6925 19.0904 15.781 19.0507C15.8044 19.0401 15.8221 19.021 15.844 19.0083C15.9085 18.97 15.9679 18.9276 16.0175 18.8716C16.0253 18.8624 16.0373 18.8596 16.0451 18.8497L18.6644 15.5756H19.7397V16.2835C19.7397 16.6743 20.0561 16.9914 20.4476 16.9914H22.5714C22.9628 16.9914 23.2793 16.6743 23.2793 16.2835V9.20434C23.2793 8.81357 22.9628 8.49642 22.5714 8.49642ZM21.8634 15.5756H21.1555V14.8677C21.1555 14.4769 20.8391 14.1597 20.4476 14.1597H18.3239C18.3104 14.1597 18.2991 14.1668 18.2856 14.1675C18.2375 14.1704 18.1922 14.1831 18.1455 14.1959C18.1016 14.2079 18.0584 14.2164 18.018 14.2355C17.9812 14.2532 17.9501 14.2801 17.9161 14.3042C17.875 14.3339 17.8347 14.3622 17.8007 14.4004C17.7915 14.4103 17.7795 14.4146 17.771 14.4252L15.1517 17.6993H7.43471L6.21426 15.2591C6.19869 15.228 6.17179 15.2075 6.15196 15.1791C6.12223 15.1367 6.09604 15.0942 6.05781 15.0588C6.02383 15.0277 5.9849 15.0071 5.94596 14.9838C5.90773 14.9597 5.87234 14.9342 5.82915 14.9179C5.78031 14.8995 5.72863 14.8946 5.67624 14.8868C5.64439 14.8825 5.61536 14.8677 5.58138 14.8677H4.16555V9.91225H5.58138H5.58209C5.66633 9.91225 5.74845 9.89243 5.82703 9.8627C5.84261 9.85704 5.85818 9.85208 5.87375 9.845C5.94525 9.81244 6.01109 9.76925 6.06914 9.71333C6.08046 9.70271 6.08896 9.68997 6.09958 9.67864C6.12365 9.65245 6.14984 9.62767 6.16966 9.59723L7.37595 7.78851H9.82888C10.2204 7.78851 10.5368 7.47136 10.5368 7.08059V4.95685H11.2447V7.08059C11.2447 7.47136 11.5611 7.78851 11.9526 7.78851H14.4912L16.4068 9.70413C16.472 9.76996 16.5505 9.82164 16.6376 9.85774C16.724 9.89314 16.816 9.91225 16.908 9.91225H17.6159V10.6202C17.6159 11.0109 17.9324 11.3281 18.3239 11.3281H20.4476C20.8391 11.3281 21.1555 11.0109 21.1555 10.6202V9.91225H21.8634V15.5756Z" fill="white"/>
<path d="M14.4718 10.0328C14.1469 9.81339 13.708 9.89905 13.4885 10.2226L10.5577 14.5543L8.84386 13.2319C8.53309 12.9926 8.08993 13.0507 7.85137 13.36C7.6128 13.6694 7.67014 14.114 7.9795 14.3525L10.2901 16.1351C10.4147 16.2321 10.5669 16.283 10.7227 16.283C10.7602 16.283 10.797 16.2802 10.8352 16.2738C11.0278 16.2427 11.1998 16.1337 11.3088 15.9715L14.6615 11.0161C14.881 10.6919 14.7953 10.2523 14.4718 10.0328Z" fill="white"/>
</g>
<defs>
<clipPath id="clip0_2691_36848">
<rect width="22.6533" height="22.6533" fill="white" transform="translate(0.626953)"/>
</clipPath>
</defs>
</svg>
