<svg width="35" height="23" viewBox="0 0 35 23" fill="none" xmlns="http://www.w3.org/2000/svg">
<path d="M21.4901 0.847692C21.5401 0.597692 21.3701 0.357692 21.1201 0.307692C18.9201 -0.0923077 16.6901 -0.102308 14.4901 0.277692C14.2401 0.317692 14.0701 0.557692 14.1201 0.807692L15.0701 6.24769C15.1101 6.49769 15.3501 6.66769 15.6001 6.61769C17.0501 6.36769 18.5201 6.36769 19.9601 6.63769C20.0401 6.64769 20.1101 6.63769 20.1801 6.62769C20.3401 6.57769 20.4601 6.44769 20.4901 6.26769L21.4801 0.837692L21.4901 0.847692Z" fill="#287D0E"/>
<path d="M27.7106 12.4773C28.0006 13.5973 28.1506 14.7673 28.1506 15.9473C28.1506 16.1473 28.1506 16.3473 28.1406 16.5673C28.1406 16.6973 28.1806 16.8173 28.2606 16.9173C28.3406 17.0073 28.4606 17.0673 28.5806 17.0773L34.1806 17.3473C34.1806 17.3473 34.1906 17.3473 34.2006 17.3473C34.4506 17.3473 34.6506 17.1473 34.6706 16.8873C34.6806 16.5673 34.6906 16.2573 34.6906 15.9573C34.6906 14.1773 34.4606 12.4173 34.0206 10.7073C33.9906 10.5873 33.9106 10.4773 33.8006 10.4173C33.6906 10.3573 33.5606 10.3373 33.4506 10.3673L28.0406 11.8873C27.7906 11.9573 27.6406 12.2273 27.7106 12.4873V12.4773Z" fill="#287D0E"/>
<path d="M22.8692 7.47764C23.8592 8.07764 24.7792 8.81764 25.5992 9.65764C25.7392 9.79764 25.8792 9.94764 26.0192 10.1176C26.1092 10.2176 26.2192 10.2776 26.3492 10.2876C26.4792 10.2976 26.5992 10.2576 26.6892 10.1776L30.8992 6.47764C30.8992 6.47764 30.9092 6.47764 30.9192 6.46764C31.0992 6.29764 31.1092 6.00764 30.9292 5.80764C30.7192 5.56764 30.5092 5.33764 30.2992 5.11764C29.0592 3.83764 27.6692 2.72764 26.1692 1.81764C26.0592 1.74764 25.9292 1.72764 25.8092 1.75764C25.6892 1.78764 25.5792 1.86764 25.5192 1.96764L22.6892 6.82764C22.5592 7.04764 22.6392 7.34764 22.8692 7.48764V7.47764Z" fill="#287D0E"/>
<path d="M7.56015 11.8875L2.15015 10.3675C2.03015 10.3375 1.90016 10.3475 1.80016 10.4175C1.69016 10.4775 1.61015 10.5875 1.58015 10.7075C1.14015 12.4075 0.910156 14.1775 0.910156 15.9575C0.910156 16.2575 0.910145 16.5675 0.930145 16.8875C0.940145 17.1475 1.15015 17.3475 1.40015 17.3475C1.40015 17.3475 1.41015 17.3475 1.42015 17.3475L7.02016 17.0775C7.14016 17.0775 7.26015 17.0175 7.34015 16.9175C7.42015 16.8175 7.47016 16.6975 7.46016 16.5675C7.46016 16.3475 7.45015 16.1475 7.45015 15.9475C7.45015 14.7675 7.60015 13.6075 7.89015 12.4775C7.96015 12.2175 7.81015 11.9475 7.56015 11.8775V11.8875Z" fill="#287D0E"/>
<path d="M12.8995 6.8181L10.0695 1.9581C10.0095 1.8481 9.89948 1.7781 9.77948 1.7481C9.65948 1.7181 9.52948 1.7481 9.41948 1.8081C7.91948 2.7181 6.52947 3.8381 5.28947 5.1081C5.07947 5.3281 4.86948 5.5481 4.65948 5.7981C4.48948 5.9881 4.48948 6.2781 4.66948 6.4581C4.66948 6.4581 4.67948 6.4681 4.68948 6.4681L8.89947 10.1681C8.98947 10.2481 9.11948 10.2881 9.23948 10.2781C9.36948 10.2681 9.48949 10.2081 9.56949 10.1081C9.70949 9.9481 9.84948 9.7981 9.98948 9.6481C10.8095 8.7981 11.7295 8.0681 12.7195 7.4681C12.9495 7.3281 13.0295 7.0381 12.8995 6.8081V6.8181Z" fill="#287D0E"/>
<path d="M16.3893 15.9376C17.1993 15.5276 18.1093 15.4576 18.9693 15.7376C19.0793 15.7776 19.1893 15.8176 19.2993 15.8676L25.9893 14.6976C26.1493 14.6676 26.3093 14.7476 26.3793 14.8976C26.4393 15.0476 26.3993 15.2176 26.2693 15.3276L21.0193 19.6376C20.9893 19.7476 20.9493 19.8576 20.8993 19.9676C20.5493 20.8076 19.8993 21.4576 19.0693 21.7976C18.2293 22.1476 17.3093 22.1476 16.4793 21.7976C15.7293 21.4876 15.1493 20.9276 14.7893 20.2176C14.4893 19.4776 14.4493 18.6676 14.6993 17.9076C14.9793 17.0476 15.5793 16.3476 16.3893 15.9476V15.9376Z" fill="#15203E"/>
</svg>
