<svg width="27" height="29" viewBox="0 0 27 29" fill="none" xmlns="http://www.w3.org/2000/svg">
<g clip-path="url(#clip0_2659_12143)">
<path d="M13.2767 0.662109C5.94238 0.662109 0 6.79565 0 14.3659C0 21.9361 5.94238 28.0696 13.2767 28.0696C20.6109 28.0696 26.5533 21.9361 26.5533 14.3659C26.6069 6.85091 20.6109 0.662109 13.2767 0.662109ZM16.5958 14.8632H14.4544C14.4544 18.4549 14.4544 22.8202 14.4544 22.8202H11.2423C11.2423 22.8202 11.2423 18.4549 11.2423 14.8632H9.74336V12.1003H11.2423V10.2769C11.2423 8.95068 11.8312 6.96143 14.4544 6.96143H16.81V9.66902C16.81 9.66902 15.3645 9.66902 15.0968 9.66902C14.8292 9.66902 14.4009 9.83479 14.4009 10.4426V12.1003H16.8635L16.5958 14.8632Z" fill="white"/>
</g>
<defs>
<clipPath id="clip0_2659_12143">
<rect width="26.6069" height="27.4628" fill="white" transform="translate(0 0.662109)"/>
</clipPath>
</defs>
</svg>
