<svg width="35" height="23" viewBox="0 0 35 23" fill="none" xmlns="http://www.w3.org/2000/svg">
<path d="M21.2791 0.847692C21.3291 0.597692 21.1591 0.357692 20.9091 0.307692C18.7091 -0.0923077 16.4791 -0.102308 14.2791 0.277692C14.0291 0.317692 13.8591 0.557692 13.9091 0.807692L14.8591 6.24769C14.8991 6.49769 15.1391 6.66769 15.3891 6.61769C16.8391 6.36769 18.3091 6.36769 19.7491 6.63769C19.8291 6.64769 19.8991 6.63769 19.9691 6.62769C20.1291 6.57769 20.2491 6.44769 20.2791 6.26769L21.2691 0.837692L21.2791 0.847692Z" fill="#80BD23"/>
<path d="M27.4996 12.4773C27.7896 13.5973 27.9396 14.7673 27.9396 15.9473C27.9396 16.1473 27.9396 16.3473 27.9296 16.5673C27.9296 16.6973 27.9696 16.8173 28.0496 16.9173C28.1296 17.0073 28.2496 17.0673 28.3696 17.0773L33.9696 17.3473C33.9696 17.3473 33.9796 17.3473 33.9896 17.3473C34.2396 17.3473 34.4397 17.1473 34.4597 16.8873C34.4697 16.5673 34.4796 16.2573 34.4796 15.9573C34.4796 14.1773 34.2496 12.4173 33.8096 10.7073C33.7796 10.5873 33.6996 10.4773 33.5896 10.4173C33.4796 10.3573 33.3496 10.3373 33.2396 10.3673L27.8296 11.8873C27.5796 11.9573 27.4296 12.2273 27.4996 12.4873V12.4773Z" fill="#E8E9EC"/>
<path d="M22.67 7.47764C23.66 8.07764 24.58 8.81764 25.4 9.65764C25.54 9.79764 25.68 9.94764 25.82 10.1176C25.91 10.2176 26.02 10.2776 26.15 10.2876C26.28 10.2976 26.4 10.2576 26.49 10.1776L30.7 6.47764C30.7 6.47764 30.71 6.47764 30.72 6.46764C30.9 6.29764 30.91 6.00764 30.73 5.80764C30.52 5.56764 30.31 5.33764 30.1 5.11764C28.86 3.83764 27.47 2.72764 25.97 1.81764C25.86 1.74764 25.73 1.72764 25.61 1.75764C25.49 1.78764 25.38 1.86764 25.32 1.96764L22.49 6.82764C22.36 7.04764 22.44 7.34764 22.67 7.48764V7.47764Z" fill="#80BD23"/>
<path d="M7.36094 11.8875L1.95094 10.3675C1.83094 10.3375 1.70094 10.3475 1.60094 10.4175C1.49094 10.4775 1.41094 10.5875 1.38094 10.7075C0.940936 12.4075 0.710938 14.1775 0.710938 15.9575C0.710938 16.2575 0.710942 16.5675 0.730942 16.8875C0.740942 17.1475 0.950935 17.3475 1.20094 17.3475C1.20094 17.3475 1.21094 17.3475 1.22094 17.3475L6.82095 17.0775C6.94095 17.0775 7.06094 17.0175 7.14094 16.9175C7.22094 16.8175 7.27093 16.6975 7.26093 16.5675C7.26093 16.3475 7.25094 16.1475 7.25094 15.9475C7.25094 14.7675 7.40094 13.6075 7.69094 12.4775C7.76094 12.2175 7.61094 11.9475 7.36094 11.8775V11.8875Z" fill="#80BD23"/>
<path d="M12.7003 6.8181L9.87025 1.9581C9.81025 1.8481 9.70026 1.7781 9.58026 1.7481C9.46026 1.7181 9.33026 1.7481 9.22026 1.8081C7.72026 2.7181 6.33025 3.8381 5.09025 5.1081C4.88025 5.3281 4.67026 5.5481 4.46026 5.7981C4.29026 5.9881 4.29026 6.2781 4.47026 6.4581C4.47026 6.4581 4.48026 6.4681 4.49026 6.4681L8.70025 10.1681C8.79025 10.2481 8.92025 10.2881 9.04025 10.2781C9.17025 10.2681 9.29025 10.2081 9.37025 10.1081C9.51025 9.9481 9.65025 9.7981 9.79025 9.6481C10.6103 8.7981 11.5303 8.0681 12.5203 7.4681C12.7503 7.3281 12.8303 7.0381 12.7003 6.8081V6.8181Z" fill="#80BD23"/>
<path d="M14.7891 17.1776C15.2291 16.3876 15.9492 15.8176 16.8192 15.5676C16.9292 15.5376 17.0492 15.5076 17.1592 15.4876L22.0591 10.7776C22.1791 10.6676 22.3492 10.6476 22.4892 10.7176C22.6192 10.8076 22.6892 10.9776 22.6392 11.1276L20.6991 17.6376C20.7291 17.7476 20.7591 17.8576 20.7891 17.9776C20.9691 18.8676 20.7891 19.7676 20.2891 20.5176C19.7891 21.2676 19.0292 21.7876 18.1392 21.9676C17.3492 22.1276 16.5492 21.9876 15.8492 21.6076C15.1892 21.1576 14.6991 20.5176 14.4791 19.7376C14.2291 18.8676 14.3392 17.9576 14.7792 17.1676L14.7891 17.1776Z" fill="#15203E"/>
</svg>
