<svg width="34" height="23" viewBox="0 0 34 23" fill="none" xmlns="http://www.w3.org/2000/svg">
<path d="M14.1904 6.27941C14.2204 6.44941 14.3504 6.58941 14.5004 6.63941C14.5704 6.65941 14.6504 6.66941 14.7204 6.64941C16.1704 6.38941 17.6304 6.37941 19.0804 6.62941C19.3304 6.66941 19.5704 6.50941 19.6104 6.25941L20.5604 0.819411C20.6004 0.569411 20.4404 0.329411 20.1904 0.289411C17.9904 -0.0905889 15.7604 -0.0805889 13.5604 0.319411C13.3104 0.369411 13.1404 0.609411 13.1904 0.859411L14.1804 6.28941L14.1904 6.27941Z" fill="#E8E9EC"/>
<path d="M6.65 11.8797L1.24 10.3597C1.12 10.3297 0.99 10.3397 0.89 10.4097C0.78 10.4697 0.7 10.5797 0.67 10.6997C0.23 12.3997 0 14.1697 0 15.9497C0 16.2497 0 16.5597 0.02 16.8797C0.03 17.1397 0.24 17.3397 0.49 17.3397C0.49 17.3397 0.5 17.3397 0.51 17.3397L6.11 17.0697C6.23 17.0697 6.35 17.0097 6.43 16.9097C6.51 16.8097 6.56 16.6897 6.55 16.5597C6.55 16.3397 6.54 16.1397 6.54 15.9397C6.54 14.7597 6.69 13.5997 6.98 12.4697C7.05 12.2097 6.9 11.9397 6.65 11.8697V11.8797Z" fill="#FF740F"/>
<path d="M11.9891 6.80931L9.16909 1.94931C9.10909 1.83931 8.99909 1.76931 8.87909 1.73931C8.75909 1.70931 8.62909 1.73931 8.51909 1.79931C7.01909 2.70931 5.62909 3.82931 4.38909 5.09931C4.17909 5.31931 3.96909 5.53931 3.75909 5.78931C3.58909 5.97931 3.58909 6.26931 3.76909 6.44931C3.76909 6.44931 3.77909 6.45931 3.78909 6.45931L7.99909 10.1593C8.08909 10.2393 8.21909 10.2793 8.33909 10.2693C8.46909 10.2593 8.58909 10.1993 8.66909 10.0993C8.80909 9.93931 8.94909 9.78931 9.08909 9.63931C9.90909 8.78931 10.8291 8.05931 11.8191 7.45931C12.0491 7.31931 12.1291 7.02931 11.9991 6.79931L11.9891 6.80931Z" fill="#E8E9EC"/>
<path d="M26.8004 12.4695C27.0904 13.5895 27.2404 14.7595 27.2404 15.9395C27.2404 16.1395 27.2404 16.3395 27.2304 16.5595C27.2304 16.6895 27.2704 16.8095 27.3504 16.9095C27.4304 16.9995 27.5504 17.0595 27.6704 17.0695L33.2704 17.3395C33.2704 17.3395 33.2804 17.3395 33.2904 17.3395C33.5404 17.3395 33.7404 17.1395 33.7604 16.8795C33.7704 16.5595 33.7804 16.2495 33.7804 15.9495C33.7804 14.1695 33.5504 12.4095 33.1104 10.6995C33.0804 10.5795 33.0004 10.4695 32.8904 10.4095C32.7804 10.3495 32.6504 10.3295 32.5404 10.3595L27.1304 11.8795C26.8804 11.9495 26.7304 12.2195 26.8004 12.4795V12.4695Z" fill="#E8E9EC"/>
<path d="M21.9708 7.46983C22.9608 8.06983 23.8808 8.80983 24.7008 9.64983C24.8408 9.78983 24.9808 9.93983 25.1208 10.1098C25.2108 10.2098 25.3208 10.2698 25.4508 10.2798C25.5808 10.2898 25.7008 10.2498 25.7908 10.1698L30.0008 6.46983C30.0008 6.46983 30.0108 6.46983 30.0208 6.45983C30.2008 6.28983 30.2108 5.99983 30.0308 5.79983C29.8208 5.55983 29.6108 5.32983 29.4008 5.10983C28.1608 3.82983 26.7708 2.71983 25.2708 1.80983C25.1608 1.73983 25.0308 1.71983 24.9108 1.74983C24.7908 1.77983 24.6808 1.85983 24.6208 1.95983L21.7908 6.81983C21.6608 7.03983 21.7408 7.33983 21.9708 7.47983V7.46983Z" fill="#E8E9EC"/>
<path d="M18.3005 15.9298C17.4905 15.5198 16.5805 15.4498 15.7205 15.7298C15.6105 15.7698 15.5005 15.8098 15.3905 15.8598L8.70048 14.6898C8.54048 14.6598 8.38048 14.7398 8.31048 14.8898C8.25048 15.0398 8.29048 15.2098 8.42048 15.3198L13.6705 19.6298C13.7005 19.7398 13.7405 19.8498 13.7905 19.9598C14.1405 20.7998 14.7905 21.4498 15.6205 21.7898C16.4605 22.1398 17.3805 22.1398 18.2105 21.7898C18.9605 21.4798 19.5405 20.9198 19.9005 20.2098C20.2005 19.4698 20.2405 18.6598 19.9905 17.8998C19.7105 17.0398 19.1105 16.3398 18.3005 15.9398V15.9298Z" fill="#15203E"/>
</svg>
