<svg width="34" height="23" viewBox="0 0 34 23" fill="none" xmlns="http://www.w3.org/2000/svg">
<path d="M14.3994 6.26769C14.4294 6.43769 14.5594 6.57769 14.7094 6.62769C14.7794 6.64769 14.8594 6.65769 14.9294 6.63769C16.3794 6.37769 17.8394 6.36769 19.2894 6.61769C19.5394 6.65769 19.7794 6.49769 19.8194 6.24769L20.7694 0.807692C20.8094 0.557692 20.6494 0.317692 20.3994 0.277692C18.1994 -0.102308 15.9694 -0.0923077 13.7694 0.307692C13.5194 0.357692 13.3494 0.597692 13.3994 0.847692L14.3894 6.27769L14.3994 6.26769Z" fill="#E8E9EC"/>
<path d="M6.86094 11.868L1.45094 10.348C1.33094 10.318 1.20094 10.328 1.10094 10.398C0.990937 10.458 0.910939 10.568 0.880939 10.688C0.440939 12.388 0.210938 14.158 0.210938 15.938C0.210938 16.238 0.210938 16.548 0.230938 16.868C0.240938 17.128 0.450939 17.328 0.700939 17.328C0.700939 17.328 0.71094 17.328 0.72094 17.328L6.32094 17.058C6.44094 17.058 6.56094 16.998 6.64094 16.898C6.72094 16.798 6.77094 16.678 6.76094 16.548C6.76094 16.328 6.75094 16.128 6.75094 15.928C6.75094 14.748 6.90094 13.588 7.19094 12.458C7.26094 12.198 7.11094 11.928 6.86094 11.858V11.868Z" fill="#FF9E0F"/>
<path d="M12.2003 6.79759L9.37026 1.93759C9.31026 1.82759 9.20026 1.75759 9.08026 1.72759C8.96026 1.69759 8.83026 1.72759 8.72026 1.78759C7.22026 2.69759 5.83026 3.81759 4.59026 5.08759C4.38026 5.30759 4.17026 5.52759 3.96026 5.77759C3.79026 5.96759 3.79026 6.25759 3.97026 6.43759C3.97026 6.43759 3.98026 6.44759 3.99026 6.44759L8.20026 10.1476C8.29026 10.2276 8.42026 10.2676 8.54026 10.2576C8.67026 10.2476 8.79026 10.1876 8.87026 10.0876C9.01026 9.92759 9.15026 9.77759 9.29026 9.62759C10.1103 8.77759 11.0303 8.04759 12.0203 7.44759C12.2503 7.30759 12.3303 7.01759 12.2003 6.78759V6.79759Z" fill="#FF9E0F"/>
<path d="M27.0094 12.4578C27.2994 13.5778 27.4494 14.7478 27.4494 15.9278C27.4494 16.1278 27.4494 16.3278 27.4394 16.5478C27.4394 16.6778 27.4794 16.7978 27.5594 16.8978C27.6394 16.9878 27.7594 17.0478 27.8794 17.0578L33.4794 17.3278C33.4794 17.3278 33.4894 17.3278 33.4994 17.3278C33.7494 17.3278 33.9494 17.1278 33.9694 16.8678C33.9794 16.5478 33.9894 16.2378 33.9894 15.9378C33.9894 14.1578 33.7594 12.3978 33.3194 10.6878C33.2894 10.5678 33.2094 10.4578 33.0994 10.3978C32.9894 10.3378 32.8594 10.3178 32.7494 10.3478L27.3394 11.8678C27.0894 11.9378 26.9394 12.2078 27.0094 12.4678V12.4578Z" fill="#E8E9EC"/>
<path d="M22.17 7.45811C23.16 8.05811 24.08 8.79811 24.9 9.63811C25.04 9.77811 25.18 9.92811 25.32 10.0981C25.41 10.1981 25.52 10.2581 25.65 10.2681C25.78 10.2781 25.9 10.2381 25.99 10.1581L30.2 6.45811C30.2 6.45811 30.21 6.45811 30.22 6.44811C30.4 6.27811 30.41 5.98811 30.23 5.78811C30.02 5.54811 29.81 5.31811 29.6 5.09811C28.36 3.81811 26.97 2.70811 25.47 1.79811C25.36 1.72811 25.23 1.70811 25.11 1.73811C24.99 1.76811 24.88 1.84811 24.82 1.94811L21.99 6.80811C21.86 7.02811 21.94 7.32811 22.17 7.46811V7.45811Z" fill="#E8E9EC"/>
<path d="M19.8994 17.1571C19.4594 16.3671 18.7394 15.7971 17.8694 15.5471C17.7594 15.5171 17.6394 15.4871 17.5294 15.4671L12.6294 10.7571C12.5094 10.6471 12.3394 10.6271 12.1994 10.6971C12.0694 10.7871 11.9994 10.9571 12.0494 11.1071L13.9894 17.6171C13.9594 17.7271 13.9294 17.8371 13.8994 17.9571C13.7194 18.8471 13.8994 19.7471 14.3994 20.4971C14.8994 21.2471 15.6594 21.7671 16.5494 21.9471C17.3394 22.1071 18.1394 21.9671 18.8394 21.5871C19.4994 21.1371 19.9894 20.4971 20.2094 19.7171C20.4594 18.8471 20.3494 17.9371 19.9094 17.1471L19.8994 17.1571Z" fill="#15203E"/>
</svg>
