<svg width="28" height="28" viewBox="0 0 28 28" fill="none" xmlns="http://www.w3.org/2000/svg">
<g clip-path="url(#clip0_2659_12151)">
<path d="M16.4335 14.1523C16.4335 15.5784 15.3136 16.7344 13.932 16.7344C12.5504 16.7344 11.4304 15.5784 11.4304 14.1523C11.4304 12.7263 12.5504 11.5703 13.932 11.5703C15.3136 11.5703 16.4335 12.7263 16.4335 14.1523Z" fill="white"/>
<path d="M19.7822 9.5837C19.6619 9.24736 19.4701 8.94292 19.2208 8.69304C18.9787 8.43574 18.6839 8.23772 18.3579 8.1136C18.0935 8.0076 17.6962 7.88142 16.9645 7.84704C16.173 7.80979 15.9357 7.80176 13.9319 7.80176C11.9279 7.80176 11.6906 7.80958 10.8993 7.84684C10.1676 7.88142 9.77014 8.0076 9.5059 8.1136C9.17984 8.23772 8.8849 8.43574 8.643 8.69304C8.39372 8.94292 8.20187 9.24715 8.08142 9.5837C7.97872 9.85664 7.85647 10.2669 7.82317 11.0221C7.78707 11.8389 7.7793 12.0838 7.7793 14.1523C7.7793 16.2205 7.78707 16.4655 7.82317 17.2824C7.85647 18.0377 7.97872 18.4477 8.08142 18.7206C8.20187 19.0572 8.39352 19.3614 8.6428 19.6113C8.8849 19.8686 9.17965 20.0666 9.5057 20.1907C9.77014 20.2969 10.1676 20.4231 10.8993 20.4575C11.6906 20.4947 11.9277 20.5026 13.9317 20.5026C15.9359 20.5026 16.1732 20.4947 16.9643 20.4575C17.696 20.4231 18.0935 20.2969 18.3579 20.1907C19.0124 19.9301 19.5297 19.3962 19.7822 18.7206C19.8849 18.4477 20.0071 18.0377 20.0406 17.2824C20.0767 16.4655 20.0843 16.2205 20.0843 14.1523C20.0843 12.0838 20.0767 11.8389 20.0406 11.0221C20.0073 10.2669 19.8851 9.85664 19.7822 9.5837ZM13.9319 18.1297C11.8035 18.1297 10.078 16.349 10.078 14.1521C10.078 11.9552 11.8035 10.1745 13.9319 10.1745C16.0601 10.1745 17.7855 11.9552 17.7855 14.1521C17.7855 16.349 16.0601 18.1297 13.9319 18.1297ZM17.9379 10.9468C17.4405 10.9468 17.0373 10.5306 17.0373 10.0172C17.0373 9.50383 17.4405 9.08763 17.9379 9.08763C18.4353 9.08763 18.8385 9.50383 18.8385 10.0172C18.8383 10.5306 18.4353 10.9468 17.9379 10.9468Z" fill="white"/>
<path d="M13.9319 0.662109C6.71501 0.662109 0.862549 6.70283 0.862549 14.1519C0.862549 21.601 6.71501 27.6417 13.9319 27.6417C21.1488 27.6417 27.0013 21.601 27.0013 14.1519C27.0013 6.70283 21.1488 0.662109 13.9319 0.662109ZM21.3913 17.3455C21.3551 18.1701 21.228 18.733 21.0426 19.2258C20.6527 20.2663 19.8558 21.0888 18.8477 21.4912C18.3705 21.6827 17.8249 21.8136 17.0262 21.8513C16.2259 21.8889 15.9702 21.898 13.9321 21.898C11.8938 21.898 11.6384 21.8889 10.8379 21.8513C10.0392 21.8136 9.49358 21.6827 9.01636 21.4912C8.51541 21.2967 8.06192 20.9919 7.687 20.5977C7.30531 20.2109 7.00996 19.7427 6.82151 19.2258C6.63604 18.7332 6.50901 18.1701 6.47272 17.3457C6.43582 16.5194 6.42725 16.2556 6.42725 14.1519C6.42725 12.0482 6.43582 11.7844 6.47252 10.9583C6.50881 10.1337 6.63564 9.57077 6.82111 9.07799C7.00956 8.56114 7.30511 8.09285 7.687 7.70609C8.06172 7.31191 8.51541 7.00706 9.01616 6.81254C9.49358 6.62111 10.039 6.4902 10.8379 6.45253C11.6382 6.41486 11.8938 6.40581 13.9319 6.40581C15.97 6.40581 16.2257 6.41486 17.026 6.45274C17.8249 6.4902 18.3703 6.62111 18.8477 6.81234C19.3485 7.00685 19.8021 7.31191 20.1771 7.70609C20.5588 8.09306 20.8543 8.56114 21.0426 9.07799C21.2282 9.57077 21.3551 10.1337 21.3915 10.9583C21.428 11.7844 21.4366 12.0482 21.4366 14.1519C21.4366 16.2556 21.428 16.5194 21.3913 17.3455Z" fill="white"/>
</g>
<defs>
<clipPath id="clip0_2659_12151">
<rect width="26.1388" height="26.9796" fill="white" transform="translate(0.862549 0.662109)"/>
</clipPath>
</defs>
</svg>
