<svg width="142" height="53" viewBox="0 0 142 53" fill="none" xmlns="http://www.w3.org/2000/svg">
<path d="M17.8269 18.834C2.36039 21.0891 0.25104 24.6649 0.0091844 27.159L0 27.2571L0.0336761 30.7532L3.70744 30.7164L3.67376 27.4654C3.78091 27.0518 4.98101 24.429 18.329 22.4802C26.0561 21.3496 33.8231 21.0616 33.8935 21.0585C35.7059 21.0003 37.6285 20.3752 39.4868 19.4805L32.0107 17.4644C29.2401 17.6145 23.5947 17.9944 17.8239 18.834H17.8269Z" fill="white"/>
<path d="M0.0274862 29.1843H7.47931V30.5756C8.16341 30.0449 8.92691 29.6221 9.74234 29.3222C10.57 29.0134 11.4495 28.8575 12.3383 28.8575C13.4347 28.8305 14.5249 29.0494 15.5236 29.4991C16.4062 29.9249 17.1361 30.6056 17.6065 31.4511C17.9607 31.0643 18.3577 30.7165 18.7884 30.4107C19.2251 30.0928 19.6893 29.82 20.1779 29.5891C20.6727 29.3552 21.1919 29.1753 21.7263 29.0494C22.2699 28.9205 22.8258 28.8545 23.3847 28.8545C25.3789 28.8545 26.909 29.3942 27.9779 30.4766C29.0468 31.559 29.5813 33.1392 29.5813 35.2141V40.944H31.8932V45.1718H24.4505V36.0027C24.4963 35.2291 24.2398 34.4675 23.7328 33.8738C23.4793 33.6099 23.1678 33.4061 22.8258 33.2711C22.4837 33.1362 22.1142 33.0792 21.7447 33.1002C21.1644 33.1002 20.5963 33.2381 20.0863 33.508C19.4725 33.8648 18.9441 34.3476 18.5379 34.9232C18.5501 35.0402 18.5563 35.1541 18.5563 35.2711V40.944H20.917V45.1718H13.4774V35.9697C13.4805 35.5739 13.4133 35.1811 13.2728 34.8093C13.1445 34.4765 12.9521 34.1736 12.7047 33.9128C12.4604 33.6639 12.1703 33.466 11.8466 33.3341C11.5015 33.1902 11.1289 33.1152 10.7532 33.1092C10.1913 33.1092 9.6385 33.2232 9.12543 33.451C8.48408 33.7479 7.9313 34.2006 7.5129 34.7613V40.953H10.121V45.1808H0V40.941H2.4249V33.4061H0.0335943L0.0274862 29.1753V29.1843Z" fill="white"/>
<path d="M72.1277 44.312C71.758 44.5364 71.419 44.7309 71.1109 44.8895C70.8151 45.0421 70.507 45.1707 70.1896 45.2754C69.8815 45.3742 69.561 45.446 69.2406 45.4909C68.8832 45.5387 68.5196 45.5627 68.159 45.5597C67.2624 45.5717 66.3688 45.44 65.5184 45.1677C64.7974 44.9373 64.1288 44.5693 63.5526 44.0876C63.0257 43.6418 62.6066 43.0883 62.3231 42.4689C62.0366 41.8256 61.8887 41.1314 61.8887 40.4313C61.8887 39.7312 62.0366 39.037 62.3231 38.3937C62.6097 37.7714 63.0411 37.2208 63.5834 36.787C64.1811 36.3142 64.8683 35.9582 65.6047 35.7367C66.4921 35.4734 67.4134 35.3478 68.3408 35.3597C69.028 35.3568 69.7151 35.3957 70.3961 35.4764C71.0154 35.5512 71.5885 35.647 72.1185 35.7667V35.276C72.1277 34.9139 72.0476 34.5579 71.8812 34.2347C71.7241 33.9445 71.4961 33.6962 71.2157 33.5107C70.9014 33.3072 70.5501 33.1666 70.1834 33.0948C69.7521 33.005 69.3084 32.9601 68.8677 32.9661C67.9834 32.9571 67.1022 33.0529 66.2425 33.2563C65.4845 33.4478 64.7543 33.7231 64.061 34.0791L62.5573 31.0811C63.5988 30.378 64.7388 29.8244 65.9436 29.4325C67.1546 29.0435 68.421 28.849 69.6966 28.855C70.6549 28.846 71.6132 28.9567 72.5437 29.1841C73.3572 29.3876 74.1151 29.7586 74.7684 30.2732C75.4124 30.7998 75.9177 31.4671 76.2381 32.2211C76.6171 33.1516 76.7958 34.148 76.7681 35.1473V40.9579H78.9743V45.1767H72.1246L72.1308 44.312H72.1277ZM68.5134 41.9243C69.2128 41.9333 69.9061 41.8136 70.5594 41.5713C71.1263 41.3618 71.6532 41.0686 72.1277 40.7036V38.6779H68.3224C68.0789 38.6779 67.8386 38.7139 67.6075 38.7857C67.3826 38.8545 67.17 38.9592 66.982 39.0938C66.7971 39.2255 66.6462 39.393 66.5352 39.5875C66.4212 39.794 66.3627 40.0274 66.3688 40.2637C66.3658 40.4881 66.4089 40.7096 66.5013 40.913C66.5938 41.1165 66.7293 41.302 66.9019 41.4486C67.2562 41.7628 67.7955 41.9213 68.5134 41.9213V41.9243Z" fill="#FF9E0F"/>
<path d="M90.9306 29.2354H98.6453V41.1068H100.615V45.3725H93.701V44.005C93.1322 44.5103 92.4687 44.9005 91.7501 45.1577C90.9184 45.439 90.0439 45.5782 89.1663 45.56C88.2979 45.5661 87.4356 45.4239 86.6161 45.1426C85.8364 44.8733 85.1239 44.4377 84.5307 43.8719C83.9131 43.2729 83.4361 42.5468 83.1303 41.7451C82.7695 40.783 82.5952 39.7635 82.6196 38.7379V33.5041H80.4915V29.2354H87.7016V38.7379C87.7016 39.818 87.9982 40.6257 88.5395 41.1582C88.83 41.4305 89.1694 41.6392 89.5424 41.7784C89.9155 41.9175 90.313 41.9781 90.7105 41.9629C91.3312 41.9629 91.9366 41.7572 92.4289 41.379C92.9518 40.9827 93.3401 40.4382 93.545 39.821V33.5041H90.9337V29.2354H90.9306Z" fill="#FF9E0F"/>
<path d="M108.488 28.8525H111.674V32.9891H108.458L108.425 39.8836C108.419 40.2107 108.449 40.5348 108.518 40.8528C108.563 41.0668 108.656 41.2686 108.787 41.4428C108.898 41.5835 109.045 41.6844 109.213 41.7394C109.402 41.7975 109.597 41.822 109.792 41.8189C110.139 41.822 110.487 41.7822 110.826 41.6997C111.117 41.6202 111.422 41.5284 111.722 41.4214L112.385 44.4635C111.839 44.809 111.249 45.0781 110.631 45.2646C109.885 45.4786 109.114 45.5764 108.338 45.5611C107.723 45.5611 107.115 45.4511 106.539 45.231C105.973 45.0108 105.46 44.6714 105.034 44.2281C104.582 43.7481 104.228 43.1764 104 42.5527C103.73 41.8006 103.604 41.0056 103.628 40.2077L103.673 32.983H101.374V28.8464H103.691L103.721 23.9209L108.524 24.9665L108.482 28.8555L108.488 28.8525Z" fill="#FF9E0F"/>
<path d="M41.7668 45.5545C40.0392 45.5545 38.3518 45.064 36.9147 44.1479C35.4776 43.2289 34.3589 41.9257 33.6975 40.4008C33.0361 38.876 32.863 37.1946 33.1999 35.5752C33.5368 33.9558 34.3681 32.4664 35.5889 31.2991C36.8096 30.1319 38.3673 29.3369 40.0609 29.0148C41.7545 28.6927 43.513 28.8582 45.1077 29.4906C46.7024 30.123 48.0684 31.1927 49.0265 32.5669C49.9876 33.941 50.4975 35.5545 50.4975 37.2064C50.4975 39.4197 49.5735 41.5445 47.9355 43.1107C46.2975 44.6769 44.0785 45.5575 41.7607 45.5604L41.7668 45.5545ZM41.7668 33.3204C40.9633 33.3204 40.1783 33.548 39.5108 33.9735C38.8432 34.399 38.324 35.0078 38.0149 35.714C37.709 36.4233 37.6286 37.2034 37.7832 37.957C37.9377 38.7105 38.3271 39.402 38.8926 39.9458C39.4613 40.4895 40.1845 40.8589 40.9726 41.0066C41.7607 41.1573 42.5765 41.0805 43.3183 40.785C44.06 40.4924 44.6936 39.993 45.1386 39.3547C45.5836 38.7164 45.8216 37.9658 45.8216 37.1975C45.8185 36.1691 45.3889 35.1851 44.6287 34.4611C43.8684 33.7371 42.8362 33.3263 41.7637 33.3263V33.3175L41.7668 33.3204Z" fill="white"/>
<path d="M41.7653 38.3484C42.3942 38.3484 42.9043 37.8383 42.9043 37.2094C42.9043 36.5804 42.3942 36.0703 41.7653 36.0703C41.1363 36.0703 40.6262 36.5804 40.6262 37.2094C40.6262 37.8383 41.1363 38.3484 41.7653 38.3484Z" fill="white"/>
<path d="M122.638 38.3484C123.266 38.3484 123.777 37.8383 123.777 37.2094C123.777 36.5804 123.266 36.0703 122.638 36.0703C122.009 36.0703 121.499 36.5804 121.499 37.2094C121.499 37.8383 122.009 38.3484 122.638 38.3484Z" fill="white"/>
<path d="M122.829 45.5545C121.139 45.5545 119.488 45.064 118.083 44.1479C116.677 43.2289 115.582 41.9257 114.935 40.4008C114.288 38.876 114.119 37.1946 114.448 35.5752C114.778 33.9558 115.591 32.4664 116.785 31.2991C117.98 30.1319 119.503 29.3369 121.16 29.0148C122.817 28.6927 124.534 28.8582 126.097 29.4906C127.657 30.123 128.994 31.1927 129.931 32.5669C130.871 33.941 131.37 35.5545 131.37 37.2064C131.37 39.4197 130.466 41.5445 128.864 43.1107C127.261 44.6769 125.091 45.5575 122.823 45.5604L122.829 45.5545ZM122.829 33.3204C122.043 33.3204 121.275 33.548 120.622 33.9735C119.969 34.399 119.461 35.0078 119.159 35.714C118.86 36.4233 118.781 37.2034 118.932 37.957C119.086 38.7105 119.464 39.402 120.017 39.9458C120.574 40.4895 121.281 40.8589 122.052 41.0066C122.823 41.1573 123.621 41.0805 124.347 40.785C125.072 40.4924 125.692 39.993 126.128 39.3547C126.563 38.7164 126.796 37.9658 126.796 37.1975C126.793 36.1691 126.372 35.1851 125.629 34.4611C124.885 33.7341 123.875 33.3263 122.826 33.3263V33.3175L122.829 33.3204Z" fill="#FF9E0F"/>
<path d="M48.5984 29.2354C50.1517 30.2923 51.0721 31.7776 51.812 33.521H54.3958V46.0468C54.4355 46.8426 54.2429 47.6323 53.8423 48.3217C53.6619 48.6012 53.4112 48.832 53.1177 48.9899C52.8241 49.1479 52.4939 49.2269 52.1576 49.2238L52.2187 52.7744C53.2308 52.7896 54.2398 52.6529 55.2122 52.3674C56.0347 52.1244 56.7869 51.6901 57.4076 51.1009C58.0253 50.4873 58.4901 49.7371 58.7622 48.911C59.0955 47.8813 59.2514 46.8031 59.227 45.7188V29.2354H48.5984Z" fill="white"/>
<path d="M53.1559 23.5395C53.1528 23.1319 53.2303 22.7304 53.3823 22.3539C53.5282 21.9929 53.7453 21.6661 54.0214 21.3892C54.2976 21.1122 54.6233 20.8913 54.9832 20.7388C55.3617 20.577 55.7712 20.4961 56.1838 20.5023C56.584 20.5023 56.9812 20.5801 57.3503 20.7388C58.0825 21.0469 58.6658 21.6257 58.9853 22.3539C59.1466 22.7273 59.2304 23.1319 59.2304 23.5395C59.2304 23.9472 59.1466 24.3517 58.9853 24.7252C58.8271 25.0861 58.6006 25.4129 58.3214 25.6899C58.0391 25.9637 57.7102 26.1815 57.3503 26.3371C56.9812 26.4958 56.584 26.5799 56.1838 26.5768C55.7712 26.5799 55.3648 26.499 54.9832 26.3371C54.6233 26.1847 54.2976 25.9637 54.0214 25.6899C53.7453 25.4129 53.5282 25.0861 53.3823 24.7252C53.2272 24.3486 53.1497 23.9441 53.1559 23.5364V23.5395Z" fill="#FF9E0F"/>
<path d="M141.486 28.2717C139.405 23.5166 136.257 17.337 133.087 14.9122C132.23 14.2564 131.183 13.8477 130.067 13.7318L118.953 12.5819C118.873 12.5728 110.969 11.5845 107.204 8.00062L107.109 7.90911L107.002 7.83286C106.819 7.70476 102.445 4.63328 94.5978 2.36704C87.4191 0.292957 75.8107 -1.47611 61.2673 1.86072L61.2185 1.87292C60.8799 1.96137 52.8653 4.07206 47.0229 9.27557L46.9467 9.34877C45.1955 11.0965 40.5674 15.0952 36.4487 16.6935L41.6962 18.1057C45.7416 15.632 49.0457 12.4202 49.4941 11.9749C54.5311 7.50955 61.6914 5.53307 62.1155 5.42021C75.7954 2.28774 86.6869 3.9165 93.411 5.83503C100.126 7.75051 104.153 10.3279 104.791 10.7549C109.471 15.0922 118.147 16.1688 118.544 16.2146L129.689 17.3675C130.134 17.4133 130.54 17.5689 130.86 17.8129C132.791 19.2922 135.51 23.7454 138.13 29.7327C138.612 30.8369 138.228 32.124 137.236 32.7249C134.588 34.3293 129.737 34.3903 128.087 34.2744L127.831 37.9254C127.91 37.9315 128.474 37.9681 129.338 37.9681C131.644 37.9681 136.089 37.7027 139.137 35.8513C141.694 34.3018 142.703 31.0382 141.486 28.2626V28.2717Z" fill="#FF9E0F"/>
</svg>
