<svg width="19" height="19" viewBox="0 0 19 19" fill="none" xmlns="http://www.w3.org/2000/svg">
<path d="M12.8524 0.372565C13.0509 0.316488 13.2573 0.431899 13.3134 0.630359L18.1704 17.8166C18.2265 18.0151 18.1111 18.2215 17.9126 18.2777C17.8795 18.2872 17.8454 18.2921 17.811 18.2923C17.6437 18.2922 17.4969 18.1809 17.4516 18.0199L12.5946 0.833617C12.5385 0.635122 12.6539 0.428747 12.8524 0.372565Z" fill="white" stroke="white" stroke-width="0.377555"/>
<path d="M1.01411 17.8168L5.87111 0.630555C5.92722 0.431956 6.13374 0.316439 6.33234 0.372586C6.53094 0.428698 6.64645 0.635214 6.5903 0.833813L1.7333 18.0201C1.6878 18.181 1.5408 18.2922 1.37351 18.292C1.33915 18.2919 1.30496 18.2872 1.2719 18.2779C1.07344 18.2217 0.958063 18.0153 1.01411 17.8168Z" fill="white" stroke="white" stroke-width="0.377555"/>
<path d="M9.59219 14.5576C9.79853 14.5576 9.96582 14.7249 9.96582 14.9312V17.9202C9.96582 18.1265 9.79853 18.2938 9.59219 18.2938C9.38585 18.2938 9.21857 18.1265 9.21857 17.9202V14.9312C9.2186 14.7249 9.38585 14.5576 9.59219 14.5576Z" fill="white"/>
<path d="M9.59415 8.57812C9.80049 8.57812 9.96777 8.74541 9.96777 8.95175V11.9407C9.96777 12.147 9.80049 12.3143 9.59415 12.3143C9.38781 12.3143 9.22052 12.147 9.22052 11.9407V8.95175C9.22056 8.74541 9.38781 8.57812 9.59415 8.57812Z" fill="white"/>
<path d="M9.59219 3.34668C9.79853 3.34668 9.96582 3.51397 9.96582 3.72031V5.96199C9.96582 6.16833 9.79853 6.33562 9.59219 6.33562C9.38585 6.33562 9.21857 6.16833 9.21857 5.96199V3.72031C9.2186 3.51397 9.38585 3.34668 9.59219 3.34668Z" fill="white"/>
<path d="M9.59415 0.358398C9.80049 0.358398 9.96777 0.525684 9.96777 0.732025V1.47924C9.96777 1.68558 9.80049 1.85287 9.59415 1.85287C9.38781 1.85287 9.22052 1.68558 9.22052 1.47924V0.73199C9.22056 0.525649 9.38781 0.358398 9.59415 0.358398Z" fill="white"/>
</svg>
