<svg width="34" height="33" viewBox="0 0 34 33" fill="currentColor" xmlns="http://www.w3.org/2000/svg">
<g clip-path="url(#clip0_2691_36564)">
<path d="M18.9675 7.51915H21.4562L24.3891 14.9465C24.5336 15.3125 24.902 15.555 25.3137 15.555H30.2421C31.2468 15.555 31.8212 16.0974 32.0216 16.287C32.4089 16.6525 33.0341 16.6497 33.4181 16.2827C33.8024 15.9154 33.8005 15.3216 33.4136 14.9565C33.3703 14.9155 32.2399 13.6794 30.2421 13.6794H30.213L29.4097 11.7722C28.6125 9.87977 26.7107 8.65701 24.5646 8.65701H24.0147L23.0651 6.25206C22.9206 5.88607 22.5521 5.64355 22.1405 5.64355H18.9675C18.4221 5.64355 17.98 6.06344 17.98 6.58135C17.98 7.09926 18.4221 7.51915 18.9675 7.51915Z" fill="currentColor"/>
<path d="M28.4873 17.6963C28.1894 17.6963 27.8976 17.7214 27.6131 17.7672L29.412 22.3227C29.6035 22.8077 29.3447 23.3482 28.8341 23.5301C28.1893 23.7598 27.6995 23.3278 27.5627 22.9813L25.7642 18.4266C24.2688 19.299 23.269 20.8666 23.269 22.6521C23.269 25.3847 25.61 27.6079 28.4873 27.6079C31.3647 27.6079 33.7057 25.3846 33.7057 22.652C33.7057 19.9194 31.3647 17.6963 28.4873 17.6963Z" fill="currentColor"/>
<path d="M5.91659 23.3151C5.53081 23.6815 4.90567 23.6813 4.52009 23.3151C4.13445 22.9489 4.13445 22.3551 4.52009 21.9889L8.14197 18.5492C7.30735 18.0111 6.30091 17.6963 5.21831 17.6963C2.34092 17.6963 0 19.9194 0 22.652C0 25.3847 2.34092 27.6078 5.21831 27.6078C8.09569 27.6078 10.4366 25.3847 10.4366 22.652C10.4366 21.624 10.1051 20.6681 9.53847 19.8755L5.91659 23.3151Z" fill="currentColor"/>
<path d="M22.5408 15.6057L20.5834 10.6487C18.3765 10.4739 16.461 11.4798 15.3588 12.7448L1.13704 10.6775C0.666739 10.6091 0.211906 10.869 0.0552255 11.2957C-0.101521 11.7224 0.0845208 12.1945 0.497683 12.4187L13.4545 19.4501C13.6037 19.5311 13.7726 19.5737 13.9444 19.5737H21.0839C21.3458 19.5737 21.597 19.4749 21.7821 19.299L24.0401 17.1546C23.3626 16.846 22.8142 16.298 22.5408 15.6057Z" fill="currentColor"/>
<path d="M12.4745 21.0774L12.1753 20.915C12.3291 21.47 12.4114 22.0523 12.4114 22.6525C12.4114 23.0431 12.3761 23.4261 12.3095 23.799L13.0925 24.3908C13.2672 24.5229 13.484 24.5948 13.7074 24.5948H18.9683C19.3721 24.5948 19.7352 24.3614 19.8851 24.0053L20.9622 21.448H13.9441C13.4296 21.448 12.9214 21.3199 12.4745 21.0774Z" fill="currentColor"/>
</g>
<defs>
<clipPath id="clip0_2691_36564">
<rect y="0.621094" width="33.706" height="32.0101" rx="8" fill="white"/>
</clipPath>
</defs>
</svg>
