<svg width="34" height="22" viewBox="0 0 34 22" fill="none" xmlns="http://www.w3.org/2000/svg">
<path d="M14.1904 6.26769C14.2204 6.43769 14.3504 6.57769 14.5004 6.62769C14.5704 6.64769 14.6504 6.65769 14.7204 6.63769C16.1704 6.37769 17.6304 6.36769 19.0804 6.61769C19.3304 6.65769 19.5704 6.49769 19.6104 6.24769L20.5604 0.807692C20.6004 0.557692 20.4404 0.317692 20.1904 0.277692C17.9904 -0.102308 15.7604 -0.0923077 13.5604 0.307692C13.3104 0.357692 13.1404 0.597692 13.1904 0.847692L14.1804 6.27769L14.1904 6.26769Z" fill="#E8E9EC"/>
<path d="M6.65 11.868L1.24 10.348C1.12 10.318 0.99 10.328 0.89 10.398C0.78 10.458 0.7 10.568 0.67 10.688C0.23 12.388 0 14.158 0 15.938C0 16.238 0 16.548 0.02 16.868C0.03 17.128 0.24 17.328 0.49 17.328C0.49 17.328 0.5 17.328 0.51 17.328L6.11 17.058C6.23 17.058 6.35 16.998 6.43 16.898C6.51 16.798 6.56 16.678 6.55 16.548C6.55 16.328 6.54 16.128 6.54 15.928C6.54 14.748 6.69 13.588 6.98 12.458C7.05 12.198 6.9 11.928 6.65 11.858V11.868Z" fill="#E8E9EC"/>
<path d="M11.9891 6.79759L9.16909 1.93759C9.10909 1.82759 8.99909 1.75759 8.87909 1.72759C8.75909 1.69759 8.62909 1.72759 8.51909 1.78759C7.01909 2.69759 5.62909 3.81759 4.38909 5.08759C4.17909 5.30759 3.96909 5.52759 3.75909 5.77759C3.58909 5.96759 3.58909 6.25759 3.76909 6.43759C3.76909 6.43759 3.77909 6.44759 3.78909 6.44759L7.99909 10.1476C8.08909 10.2276 8.21909 10.2676 8.33909 10.2576C8.46909 10.2476 8.58909 10.1876 8.66909 10.0876C8.80909 9.92759 8.94909 9.77759 9.08909 9.62759C9.90909 8.77759 10.8291 8.04759 11.8191 7.44759C12.0491 7.30759 12.1291 7.01759 11.9991 6.78759L11.9891 6.79759Z" fill="#E8E9EC"/>
<path d="M26.8004 12.4578C27.0904 13.5778 27.2404 14.7478 27.2404 15.9278C27.2404 16.1278 27.2404 16.3278 27.2304 16.5478C27.2304 16.6778 27.2704 16.7978 27.3504 16.8978C27.4304 16.9878 27.5504 17.0478 27.6704 17.0578L33.2704 17.3278C33.2704 17.3278 33.2804 17.3278 33.2904 17.3278C33.5404 17.3278 33.7404 17.1278 33.7604 16.8678C33.7704 16.5478 33.7804 16.2378 33.7804 15.9378C33.7804 14.1578 33.5504 12.3978 33.1104 10.6878C33.0804 10.5678 33.0004 10.4578 32.8904 10.3978C32.7804 10.3378 32.6504 10.3178 32.5404 10.3478L27.1304 11.8678C26.8804 11.9378 26.7304 12.2078 26.8004 12.4678V12.4578Z" fill="#E8E9EC"/>
<path d="M21.9708 7.45811C22.9608 8.05811 23.8808 8.79811 24.7008 9.63811C24.8408 9.77811 24.9808 9.92811 25.1208 10.0981C25.2108 10.1981 25.3208 10.2581 25.4508 10.2681C25.5808 10.2781 25.7008 10.2381 25.7908 10.1581L30.0008 6.45811C30.0008 6.45811 30.0108 6.45811 30.0208 6.44811C30.2008 6.27811 30.2108 5.98811 30.0308 5.78811C29.8208 5.54811 29.6108 5.31811 29.4008 5.09811C28.1608 3.81811 26.7708 2.70811 25.2708 1.79811C25.1608 1.72811 25.0308 1.70811 24.9108 1.73811C24.7908 1.76811 24.6808 1.84811 24.6208 1.94811L21.7908 6.80811C21.6608 7.02811 21.7408 7.32811 21.9708 7.46811V7.45811Z" fill="#E8E9EC"/>
<path d="M16.9905 15.4776C16.0905 15.4476 15.2205 15.7576 14.5605 16.3776C14.4705 16.4576 14.3905 16.5376 14.3205 16.6276L7.75047 18.3576C7.59047 18.3976 7.48047 18.5376 7.48047 18.6976C7.48047 18.8576 7.60047 18.9976 7.75047 19.0376L14.3205 20.7676C14.4005 20.8576 14.4805 20.9376 14.5605 21.0176C15.2205 21.6276 16.0905 21.9476 16.9905 21.9176C17.8905 21.8876 18.7305 21.4976 19.3405 20.8376C19.8905 20.2476 20.1905 19.4976 20.2205 18.6976C20.1805 17.8976 19.8905 17.1476 19.3405 16.5576C18.7305 15.8976 17.8905 15.5076 16.9905 15.4776Z" fill="#15203E"/>
</svg>
