<svg width="61" height="48" viewBox="0 0 61 48" fill="none" xmlns="http://www.w3.org/2000/svg">
<path d="M36.5234 43.8945H25.2266C24.2558 43.8945 23.4688 44.6816 23.4688 45.6523C23.4688 46.6231 24.2558 47.4102 25.2266 47.4102H36.5234C37.4942 47.4102 38.2813 46.6231 38.2813 45.6523C38.2813 44.6816 37.4942 43.8945 36.5234 43.8945Z" fill="black"/>
<path d="M35.8186 33.0477C36.1878 32.3071 36.3965 31.4725 36.3965 30.5887C36.3965 27.5392 33.9243 25.067 30.8747 25.067C29.9908 25.067 29.156 25.2758 28.4153 25.6451L20.1355 17.365C19.4492 16.6785 18.3361 16.6785 17.6496 17.365C16.9631 18.0513 16.9631 19.1643 17.6496 19.8509L25.93 28.1316C25.5614 28.8717 25.3531 29.7057 25.3531 30.5887C25.3531 33.6383 27.8253 36.1105 30.8748 36.1105C31.7581 36.1105 32.5922 35.902 33.3325 35.5334L35.2803 37.4814C35.9667 38.1679 37.0796 38.1681 37.7662 37.4816C38.4526 36.7952 38.4528 35.6823 37.7663 34.9957L35.8186 33.0477Z" fill="black"/>
<path d="M30.875 0.589844C14.3329 0.589844 0.875 14.0478 0.875 30.5898C0.875 35.8621 2.26508 41.0496 4.89512 45.5918C5.38098 46.4309 6.45465 46.7179 7.29441 46.2336C7.29477 46.2333 12.1871 43.4091 12.1871 43.4091C13.0278 42.9237 13.3159 41.8488 12.8305 41.0079C12.3451 40.1672 11.2702 39.8788 10.4293 40.3646L7.10914 42.2814C5.58406 39.1852 4.68113 35.805 4.45133 32.3478H8.28125C9.25203 32.3478 10.0391 31.5607 10.0391 30.59C10.0391 29.6192 9.25203 28.8321 8.28125 28.8321H4.45039C4.68383 25.2877 5.61723 21.9318 7.11418 18.9013L10.4294 20.8154C11.2704 21.3011 12.3454 21.0127 12.8306 20.172C13.316 19.3312 13.0279 18.2561 12.1872 17.7708L8.87609 15.859C10.8032 12.9905 13.2758 10.518 16.1443 8.59082L18.0559 11.9016C18.5413 12.7424 19.6163 13.0307 20.457 12.545C21.2977 12.0595 21.5858 10.9845 21.1004 10.1438L19.1865 6.82891C22.217 5.33207 25.573 4.39926 29.1172 4.16547V7.99621C29.1172 8.96699 29.9042 9.75402 30.875 9.75402C31.8458 9.75402 32.6328 8.96699 32.6328 7.99621V4.16547C36.177 4.39926 39.533 5.33219 42.5635 6.82891L40.6496 10.1438C40.1642 10.9845 40.4523 12.0596 41.293 12.545C42.1337 13.0307 43.2088 12.7424 43.6941 11.9016L45.6057 8.59082C48.4742 10.5179 50.9469 12.9904 52.8739 15.859L49.5629 17.7706C48.7222 18.256 48.4341 19.3309 48.9195 20.1718C49.4048 21.0125 50.4798 21.3009 51.3207 20.8151L54.6359 18.9011C56.1328 21.9316 57.0663 25.2875 57.2997 28.8319H53.4688C52.498 28.8319 51.7109 29.6189 51.7109 30.5897C51.7109 31.5605 52.498 32.3475 53.4688 32.3475H57.2987C57.0689 35.8048 56.1659 39.185 54.6409 42.2812L51.3207 40.3643C50.4798 39.8786 49.4049 40.167 48.9195 41.0077C48.4341 41.8485 48.7222 42.9236 49.5629 43.4089C49.5629 43.4089 54.4552 46.2331 54.4556 46.2333C55.2955 46.7177 56.369 46.4308 56.8549 45.5916C59.4849 41.0496 60.875 35.8622 60.875 30.5898C60.875 14.0478 47.4171 0.589844 30.875 0.589844Z" fill="black"/>
</svg>
