<svg width="35" height="22" viewBox="0 0 35 22" fill="none" xmlns="http://www.w3.org/2000/svg">
<path d="M15.1396 6.27941C15.1696 6.44941 15.2996 6.58941 15.4496 6.63941C15.5196 6.65941 15.5996 6.66941 15.6696 6.64941C17.1196 6.38941 18.5796 6.37941 20.0296 6.62941C20.2796 6.66941 20.5196 6.50941 20.5596 6.25941L21.5096 0.819411C21.5496 0.569411 21.3896 0.329411 21.1396 0.289411C18.9396 -0.0905889 16.7096 -0.0805889 14.5096 0.319411C14.2596 0.369411 14.0896 0.609411 14.1396 0.859411L15.1296 6.28941L15.1396 6.27941Z" fill="#FFCD4E"/>
<path d="M7.59922 11.8797L2.18922 10.3597C2.06922 10.3297 1.93922 10.3397 1.83922 10.4097C1.72922 10.4697 1.64922 10.5797 1.61922 10.6997C1.17922 12.3997 0.949219 14.1697 0.949219 15.9497C0.949219 16.2497 0.949223 16.5597 0.969223 16.8797C0.979223 17.1397 1.18922 17.3397 1.43922 17.3397C1.43922 17.3397 1.44922 17.3397 1.45922 17.3397L7.05922 17.0697C7.17922 17.0697 7.29922 17.0097 7.37922 16.9097C7.45922 16.8097 7.50922 16.6897 7.49922 16.5597C7.49922 16.3397 7.48922 16.1397 7.48922 15.9397C7.48922 14.7597 7.63922 13.5997 7.92922 12.4697C7.99922 12.2097 7.84922 11.9397 7.59922 11.8697V11.8797Z" fill="#FFCD4E"/>
<path d="M12.9405 6.80931L10.1105 1.94931C10.0505 1.83931 9.9405 1.76931 9.8205 1.73931C9.7005 1.70931 9.5705 1.73931 9.4605 1.79931C7.9605 2.70931 6.5705 3.82931 5.3305 5.09931C5.1205 5.31931 4.91049 5.53931 4.70049 5.78931C4.53049 5.97931 4.5305 6.26931 4.7105 6.44931C4.7105 6.44931 4.7205 6.45931 4.7305 6.45931L8.9405 10.1593C9.0305 10.2393 9.1605 10.2793 9.2805 10.2693C9.4105 10.2593 9.5305 10.1993 9.6105 10.0993C9.7505 9.93931 9.8905 9.78931 10.0305 9.63931C10.8505 8.78931 11.7705 8.05931 12.7605 7.45931C12.9905 7.31931 13.0705 7.02931 12.9405 6.79931V6.80931Z" fill="#FFCD4E"/>
<path d="M27.7399 12.4695C28.0299 13.5895 28.1799 14.7595 28.1799 15.9395C28.1799 16.1395 28.1799 16.3395 28.1699 16.5595C28.1699 16.6895 28.2099 16.8095 28.2899 16.9095C28.3699 16.9995 28.4899 17.0595 28.6099 17.0695L34.2099 17.3395C34.2099 17.3395 34.2199 17.3395 34.2299 17.3395C34.4799 17.3395 34.6799 17.1395 34.6999 16.8795C34.7099 16.5595 34.7199 16.2495 34.7199 15.9495C34.7199 14.1695 34.4899 12.4095 34.0499 10.6995C34.0199 10.5795 33.9399 10.4695 33.8299 10.4095C33.7199 10.3495 33.5899 10.3295 33.4799 10.3595L28.0699 11.8795C27.8199 11.9495 27.6699 12.2195 27.7399 12.4795V12.4695Z" fill="#E8E9EC"/>
<path d="M22.9102 7.46983C23.9002 8.06983 24.8202 8.80983 25.6402 9.64983C25.7802 9.78983 25.9202 9.93983 26.0602 10.1098C26.1502 10.2098 26.2602 10.2698 26.3902 10.2798C26.5202 10.2898 26.6402 10.2498 26.7302 10.1698L30.9402 6.46983C30.9402 6.46983 30.9502 6.46983 30.9602 6.45983C31.1402 6.28983 31.1502 5.99983 30.9702 5.79983C30.7602 5.55983 30.5502 5.32983 30.3402 5.10983C29.1002 3.82983 27.7102 2.71983 26.2102 1.80983C26.1002 1.73983 25.9702 1.71983 25.8502 1.74983C25.7302 1.77983 25.6202 1.85983 25.5602 1.95983L22.7302 6.81983C22.6002 7.03983 22.6802 7.33983 22.9102 7.47983V7.46983Z" fill="#E8E9EC"/>
<path d="M21.0806 18.5295C21.1106 17.6295 20.7906 16.7595 20.1806 16.0995C20.1006 16.0095 20.0206 15.9295 19.9306 15.8595L18.2006 9.28953C18.1606 9.12953 18.0206 9.01953 17.8606 9.01953C17.7006 9.02953 17.5606 9.13953 17.5206 9.29953L15.7906 15.8695C15.7006 15.9495 15.6206 16.0295 15.5406 16.1095C14.9306 16.7695 14.6106 17.6395 14.6406 18.5395C14.6706 19.4395 15.0606 20.2795 15.7206 20.8895C16.3106 21.4395 17.0606 21.7395 17.8606 21.7695C18.6606 21.7295 19.4106 21.4395 20.0006 20.8895C20.6606 20.2795 21.0506 19.4395 21.0806 18.5395V18.5295Z" fill="#15203E"/>
</svg>
