<svg width="74" height="20" viewBox="0 0 74 20" fill="none" xmlns="http://www.w3.org/2000/svg">
<path d="M72.153 12.0033L72.0163 12.0182C71.8796 12.033 71.7572 11.8026 71.7213 11.5054L71.5342 9.69944C71.4982 9.36501 71.5989 9.06775 71.75 9.06032H71.8508C71.9803 9.04546 72.1026 9.25354 72.1458 9.54338L72.3689 11.327C72.412 11.6763 72.3113 11.9959 72.1602 12.0107L72.153 12.0033Z" fill="#1C1E2B"/>
<path d="M1.3418 12.5608L0.838102 12.5162C0.521499 12.4864 0.262463 12.204 0.233681 11.8473L0.00341964 9.36507C-0.0253624 9.00835 0.168934 8.69623 0.471146 8.61448L0.787728 8.53271L1.33459 12.5608H1.3418Z" fill="#1C1E2B"/>
<path d="M1.55078 12.6793L0.824027 12.6273L0.38509 8.44319L1.28453 8.4209L1.55078 12.6793Z" fill="#1C1E2B"/>
<path d="M69.5842 15.4293L61.8994 15.9792L61.4964 16.0089L60.5322 16.0758H7.58763L3.1264 15.4887C2.1694 15.3624 1.41387 14.582 1.28436 13.5862L0.787865 8.65889C0.629562 7.41034 1.5362 7.17995 2.75224 7.1205L22.8421 6.08005C23.5905 6.04289 24.3028 5.7679 24.8928 5.29969L30.7932 0.602807C31.1889 0.283239 31.6782 0.112305 32.1747 0.112305H49.5303C51.214 0.112305 52.833 0.796022 54.0419 2.00741L56.6035 4.58625C56.9201 4.90581 57.3158 5.12133 57.7404 5.21052L70.5988 7.9603C71.2176 8.09407 71.6853 8.62173 71.75 9.2683L72.0738 12.3228C72.2393 13.8983 71.1025 15.3104 69.5698 15.4144L69.5842 15.4293Z" fill="#1C1E2B"/>
<path d="M32.1824 0.729004C31.8154 0.729004 31.4485 0.85536 31.1606 1.09318L25.2603 5.79007C25.0085 5.99072 24.735 6.16167 24.4544 6.29545L23.6701 9.61003L24.4544 15.4812H40.1406L39.5506 9.3945L40.1406 0.736443H32.1896L32.1824 0.729004Z" fill="#1C1E2B"/>
<path d="M39.5078 1.33838H32.1828C31.9453 1.33838 31.7079 1.42013 31.5136 1.56876L25.6133 6.26567C25.5701 6.30283 25.5269 6.33256 25.4766 6.36229H39.1552L39.5006 1.33838H39.5078Z" fill="white"/>
<path d="M51.2434 1.65798C50.8549 1.09316 50.2217 0.729004 49.5525 0.729004H40.7236L40.1335 9.38706L40.7236 15.4737H49.9914C50.236 12.8577 51.9774 10.6876 54.3879 9.93703L54.4238 7.02375C54.4238 6.53325 54.2871 6.05762 54.0065 5.66374L51.2362 1.66542L51.2434 1.65798Z" fill="#1C1E2B"/>
<path d="M50.7666 2.00724C50.4788 1.59106 50.0183 1.33838 49.5434 1.33838H41.2757L40.9304 6.37715L53.7168 6.36229L50.7666 2.00724Z" fill="white"/>
<path d="M72.0665 12.3228L72.1024 12.7166H70.4978C69.6847 12.7166 69.0228 13.4004 69.0228 14.2402V14.255L72.4982 14.0915C72.8939 14.0767 73.2537 13.7497 73.2249 13.3483C73.2249 13.2592 73.2106 13.1774 73.2034 13.0957C73.1674 12.6572 72.8148 12.3228 72.3903 12.3228H72.0665Z" fill="#1C1E2B"/>
<path d="M2.92461 14.7679H0.830733C0.650845 14.7679 0.492522 14.6341 0.449349 14.4483L0.327038 13.8538C0.276669 13.6011 0.456556 13.3633 0.708399 13.3633H2.8023C2.98218 13.3633 3.14049 13.4971 3.18366 13.6829L3.30597 14.2774C3.35634 14.5301 3.17645 14.7679 2.92461 14.7679Z" fill="#1C1E2B"/>
<path d="M19.3301 16.0756H8.78145L9.07647 14.3663C9.26355 13.2887 9.91835 12.3969 10.8106 11.9138C11.2711 11.6611 11.7964 11.5273 12.3504 11.5273H15.538C16.2504 11.5273 16.9196 11.7429 17.4808 12.1145C18.3011 12.657 18.8983 13.5414 19.0782 14.5967L19.3301 16.0756Z" fill="#1C1E2B"/>
<path d="M61.8977 15.9794L61.4948 16.0091L61.099 16.0388L60.5306 16.0834H51.3707L51.6657 14.3741C51.8456 13.2965 52.5004 12.4195 53.3854 11.9365C53.8531 11.6764 54.3856 11.5352 54.9397 11.5352H58.1273C58.8324 11.5352 59.4944 11.7432 60.0557 12.1148C60.8832 12.6574 61.4948 13.5492 61.6747 14.6119L61.9121 15.9942L61.8977 15.9794Z" fill="#1C1E2B"/>
<g opacity="0.75">
<path d="M34.528 1.5542L31.0958 6.22138H33.8085L37.2695 1.5542H34.528Z" fill="white"/>
<path d="M33.2986 1.5542L29.8879 6.22138H30.7657L34.1836 1.5542H33.2986Z" fill="white"/>
</g>
<g opacity="0.75">
<path d="M46.422 1.5542L42.9825 6.22138H45.7024L49.1562 1.5542H46.422Z" fill="white"/>
<path d="M45.1925 1.5542L41.7818 6.22138H42.6524L46.0703 1.5542H45.1925Z" fill="white"/>
</g>
<path d="M16.9492 15.199C16.9492 16.8489 15.654 18.1866 14.0494 18.1866C12.4448 18.1866 11.1568 16.8489 11.1568 15.199C11.1568 13.5491 12.452 12.2114 14.0494 12.2114C15.6468 12.2114 16.9492 13.5491 16.9492 15.199Z" fill="white"/>
<path d="M18.5963 15.2065C18.5963 15.5037 18.5675 15.801 18.5172 16.0834C18.1214 18.2535 16.2722 19.8959 14.0559 19.8959C11.8397 19.8959 9.99767 18.2535 9.60192 16.0834C9.55155 15.7936 9.52278 15.5037 9.52278 15.199C9.52278 13.9208 10.0193 12.7688 10.818 11.9216C11.2785 11.6689 11.8038 11.5352 12.3578 11.5352H15.5454C16.2578 11.5352 16.927 11.7507 17.4882 12.1223C18.1862 12.9472 18.6035 14.0248 18.6035 15.2065H18.5963ZM14.0559 18.09C15.3008 18.09 16.3585 17.2502 16.7183 16.0834C16.8046 15.8084 16.8478 15.5112 16.8478 15.2065C16.8478 13.6086 15.5958 12.3155 14.0559 12.3155C12.5161 12.3155 11.2569 13.6012 11.2569 15.199C11.2569 15.5112 11.3001 15.801 11.3864 16.0834C11.7462 17.2428 12.8039 18.09 14.0488 18.09H14.0559Z" fill="#1C1E2B"/>
<path d="M16.1641 15.199C16.1641 16.403 15.2214 17.3765 14.0486 17.3765C12.8757 17.3765 11.9403 16.403 11.9403 15.199C11.9403 13.995 12.8829 13.0215 14.0486 13.0215C15.2143 13.0215 16.1641 13.995 16.1641 15.199Z" fill="white"/>
<path d="M15.3301 15.1992C15.3301 15.9275 14.7616 16.5147 14.0565 16.5147C13.3513 16.5147 12.7829 15.9275 12.7829 15.1992C12.7829 14.4709 13.3513 13.8838 14.0565 13.8838C14.7616 13.8838 15.3301 14.4709 15.3301 15.1992Z" fill="white"/>
<path opacity="0.5" d="M12.9479 12.8208C12.5018 13.0438 12.1348 13.393 11.8758 13.8241L14.0488 15.1767L12.9479 12.8208Z" fill="white"/>
<path opacity="0.5" d="M14.0554 15.1768L15.1707 17.5624C15.6168 17.3394 15.991 16.9753 16.25 16.5368L14.0554 15.1768Z" fill="white"/>
<path d="M59.5312 15.1985C59.5312 16.8484 58.2361 18.1861 56.6315 18.1861C55.0269 18.1861 53.7317 16.8484 53.7317 15.1985C53.7317 13.5487 55.0269 12.2109 56.6315 12.2109C58.2361 12.2109 59.5312 13.5487 59.5312 15.1985Z" fill="white"/>
<path d="M61.1712 15.2061C61.1712 15.4885 61.1424 15.7709 61.0992 16.0385C60.7178 18.2308 58.8614 19.8956 56.6308 19.8881C54.4146 19.8881 52.5725 18.2457 52.1768 16.0756C52.1192 15.7858 52.0976 15.4959 52.0976 15.1912C52.0976 13.9204 52.5869 12.7685 53.3856 11.9287C53.8533 11.6686 54.3858 11.5273 54.9398 11.5273H58.1275C58.8326 11.5273 59.4946 11.7354 60.0559 12.107C60.761 12.932 61.1855 14.017 61.1855 15.2061H61.1712ZM56.6308 18.0896C57.8756 18.0896 58.9334 17.2498 59.2931 16.083C59.3795 15.8081 59.4227 15.5108 59.4227 15.2061C59.4227 13.6083 58.1706 12.3151 56.6308 12.3151C55.0838 12.3151 53.8317 13.6008 53.8317 15.1987C53.8317 15.5108 53.8749 15.8006 53.9613 16.083C54.321 17.2424 55.3788 18.0896 56.6236 18.0896H56.6308Z" fill="#1C1E2B"/>
<path d="M58.7461 15.1985C58.7461 16.4025 57.8035 17.376 56.6378 17.376C55.4721 17.376 54.5295 16.4025 54.5295 15.1985C54.5295 13.9946 55.4721 13.021 56.6378 13.021C57.8035 13.021 58.7461 13.9946 58.7461 15.1985Z" fill="white"/>
<path d="M57.9043 15.1987C57.9043 15.927 57.3359 16.5142 56.6307 16.5142C55.9255 16.5142 55.3571 15.927 55.3571 15.1987C55.3571 14.4704 55.9255 13.8833 56.6307 13.8833C57.3359 13.8833 57.9043 14.4704 57.9043 15.1987Z" fill="white"/>
<path opacity="0.5" d="M55.5299 12.8208C55.0838 13.0438 54.7169 13.393 54.4578 13.8241L56.6309 15.1767L55.5299 12.8208Z" fill="white"/>
<path opacity="0.5" d="M56.6315 15.1763L57.7468 17.5619C58.193 17.3389 58.5671 16.9748 58.8262 16.5363L56.6315 15.1763Z" fill="white"/>
</svg>
