<svg width="23" height="23" viewBox="0 0 23 23" fill="none" xmlns="http://www.w3.org/2000/svg">
<g clip-path="url(#clip0_2659_16836)">
<path d="M15.7317 14.5977L19.1667 18.0318L18.0318 19.1667L14.5977 15.7317C13.3199 16.7561 11.7306 17.3132 10.0929 17.3109C6.10863 17.3109 2.875 14.0772 2.875 10.0929C2.875 6.10863 6.10863 2.875 10.0929 2.875C14.0772 2.875 17.3109 6.10863 17.3109 10.0929C17.3132 11.7306 16.7561 13.3199 15.7317 14.5977ZM14.1229 14.0026C15.1408 12.9559 15.7092 11.5529 15.7069 10.0929C15.7069 6.99082 13.1942 4.47898 10.0929 4.47898C6.99082 4.47898 4.47898 6.99082 4.47898 10.0929C4.47898 13.1942 6.99082 15.7069 10.0929 15.7069C11.5529 15.7092 12.9559 15.1408 14.0026 14.1229L14.1229 14.0026Z" fill="#15203E"/>
</g>
<defs>
<clipPath id="clip0_2659_16836">
<rect width="23" height="23" fill="white"/>
</clipPath>
</defs>
</svg>
