<svg width="50" height="20" viewBox="0 0 50 20" fill="none" xmlns="http://www.w3.org/2000/svg">
<path d="M47.4131 13.1971L48.6034 12.9562C49.0288 12.868 49.3048 12.445 49.2186 12.0101L47.9996 5.7758C47.9191 5.34099 47.4994 5.05894 47.0739 5.14121L45.8836 5.38212C45.4581 5.47026 45.1821 5.89332 45.2684 6.32814L46.4816 12.5625C46.5679 12.9973 46.9819 13.2793 47.4074 13.1971H47.4131Z" fill="#1C1E2B"/>
<path d="M47.3496 12.9328L47.4531 14.1726C47.3554 14.5898 47.1599 14.9718 46.8896 15.2832C46.6884 15.5124 46.4526 15.7004 46.1824 15.8414C46.0961 15.8884 46.0099 15.9237 45.9179 15.9589L43.3534 17.0577H2.82206L1.75832 16.9167C1.17183 16.8403 0.688835 16.4172 0.522087 15.8414C0.510586 15.8003 0.499088 15.7533 0.487587 15.7063L0.458836 15.5476L0.430088 15.4125L0.142593 13.9787L0.0275917 13.4029C0.0160904 13.3383 0.00458908 13.2678 0.00458908 13.2031C-0.00115967 13.1032 0.0045929 12.9975 0.0160942 12.8976C0.0275917 12.8094 0.0448418 12.7213 0.0735931 12.6332C0.0793419 12.6097 0.0908432 12.5862 0.0965919 12.5627L1.11433 9.90674C1.16033 9.78335 1.21208 9.6717 1.27533 9.56594C1.31558 9.49542 1.36158 9.43079 1.40758 9.36616C1.49383 9.24864 1.59158 9.14875 1.69508 9.04886C1.69508 9.04886 1.70657 9.04298 1.71233 9.03711C1.76982 8.9901 1.83307 8.93721 1.89632 8.89608C1.91357 8.88433 1.93657 8.87258 1.95382 8.86083C2.00557 8.82557 2.06307 8.79032 2.11482 8.76094C2.15507 8.74331 2.19532 8.72568 2.24132 8.70805C2.27582 8.69042 2.31032 8.6728 2.35057 8.65517C2.43107 8.62579 2.51157 8.59641 2.59782 8.57878L13.5112 5.81711C13.7125 5.73485 13.9022 5.62908 14.0747 5.49393L18.7839 1.36317C19.4509 0.734448 19.9109 0.628682 20.9919 0.45828C26.9718 -0.0117923 34.2628 0.00583545 40.2829 0.45828C41.5077 0.45828 42.6462 1.11051 43.2787 2.17992C43.2787 2.17992 46.3606 7.42123 46.3721 7.47999L46.4411 7.78554L47.3381 11.8047L47.3496 11.8634C47.3784 11.9986 47.3956 12.1396 47.4014 12.2806C47.4129 12.498 47.3956 12.7154 47.3439 12.9328H47.3496Z" fill="#1C1E2B"/>
<path d="M26.5918 14.7193V1.33988C26.5918 1.06371 26.3675 0.840429 26.0916 0.846305C24.3263 0.905064 22.6301 0.993202 21.0604 1.1166C20.0081 1.287 19.7321 1.36926 19.2146 1.85108L19.1916 1.86871L15.2472 5.32375C14.7757 5.73506 14.5054 6.34028 14.5054 6.97487V14.7076C14.5054 15.1248 14.8389 15.4656 15.2472 15.4656H25.8443C26.2526 15.4656 26.586 15.1248 26.586 14.7076L26.5918 14.7193Z" fill="#1C1E2B"/>
<path d="M26.0801 1.61586V6.12856C26.0801 6.31071 25.9421 6.45761 25.7638 6.45761L15.4312 6.69264C15.2299 6.69264 15.0919 6.48699 15.1724 6.30484C15.2702 6.08743 15.4082 5.89352 15.5922 5.73487L19.5481 2.26809L19.5711 2.25046C19.9736 1.8744 20.1346 1.80977 21.1236 1.65112C22.5899 1.5336 24.1768 1.44546 25.8443 1.39258C25.9708 1.39258 26.0801 1.49247 26.0801 1.62174V1.61586Z" fill="white"/>
<path d="M2.45492 10.559L1.85117 12.0573C1.74192 12.3394 1.41418 12.5685 1.02318 12.6449C0.931184 12.6626 0.839183 12.6743 0.747184 12.6743H0.206692C0.160692 12.6743 0.114691 12.6626 0.0744412 12.6449C0.0801911 12.6214 0.0916915 12.5979 0.0974414 12.5744L1.11518 9.91852C1.16118 9.79512 1.21293 9.68348 1.27618 9.57771C1.31643 9.5072 1.36243 9.44256 1.40843 9.37793H1.54643C1.92017 9.37793 2.23067 9.52483 2.39742 9.77749C2.54117 10.0008 2.56417 10.2887 2.45492 10.559Z" fill="#1C1E2B"/>
<path d="M46.1836 15.8413C46.0973 15.8883 46.0111 15.9236 45.9191 15.9588L43.3546 17.0576H2.82327L1.75953 16.9166C1.17304 16.8402 0.690041 16.4171 0.523293 15.8413H46.1836Z" fill="#1C1E2B"/>
<path d="M3.84581 17.0577H2.81657L1.75283 16.9167C1.16634 16.8403 0.683342 16.4172 0.516594 15.8414C0.505094 15.8003 0.493595 15.7533 0.482095 15.7063L0.453348 15.5476L0.424597 15.4125L0.1371 13.9787L0.0221026 13.4029C0.0106027 13.3383 -0.000897646 13.2678 -0.000897646 13.2031H1.18934C2.12083 13.2031 2.94307 13.8318 3.20182 14.7485L3.85156 17.0518L3.84581 17.0577Z" fill="#1C1E2B"/>
<path d="M47.5 13.9142C47.454 14.6722 47.454 14.9249 46.9825 15.3715C46.4248 15.9003 43.3543 17.0579 43.3543 17.0579L43.7108 14.0846C43.9753 13.027 44.9068 12.2866 45.9763 12.2866H47.408C47.4195 12.504 47.5 13.9201 47.5 13.9201V13.9142Z" fill="#1C1E2B"/>
<path d="M47.3379 11.8106H47.1769C46.9411 11.8106 46.7399 11.6461 46.6881 11.4169L45.9809 8.4261C45.9464 8.27333 45.9809 8.1088 46.0729 7.98541C46.1649 7.86789 46.2972 7.79738 46.4409 7.7915L47.3379 11.8106Z" fill="#1C1E2B"/>
<path d="M47.499 10.189L46.6365 10.3653L46.8723 11.37C46.9068 11.5111 47.0333 11.611 47.177 11.611H47.3725C47.6082 11.611 47.7807 11.3877 47.7232 11.1526L47.4932 10.1831L47.499 10.189Z" fill="#1C1E2B"/>
<path d="M47.0458 8.26739C47.0055 8.10287 46.8618 7.98535 46.695 7.98535H46.4708C46.2695 7.98535 46.12 8.17926 46.166 8.37904L46.6375 10.3651L47.5 10.1888L47.0458 8.27327V8.26739Z" fill="#1C1E2B"/>
<path d="M15.0645 6.38719C15.0242 7.13343 15.7487 7.13343 16.295 7.16281C16.364 7.16281 16.433 7.16281 16.502 7.14518L15.8637 4.4834C15.421 4.71256 15.1047 5.74084 15.0702 6.39307L15.0645 6.38719Z" fill="#1C1E2B"/>
<g opacity="0.75">
<path d="M25.6504 1.65674L22.1889 6.2752L19.1127 6.34571L22.4822 1.80951C23.4942 1.74488 24.5522 1.69199 25.6504 1.65674Z" fill="white"/>
<path d="M22.0859 1.83887L18.7452 6.35744L17.7505 6.38094L21.0337 1.93288C21.0739 1.927 21.1142 1.92113 21.1544 1.91525C21.4592 1.89175 21.7697 1.86824 22.0802 1.84474L22.0859 1.83887Z" fill="white"/>
</g>
<path d="M14.1558 16.4584C14.1558 16.4031 14.1621 16.3478 14.1621 16.2925C14.1621 13.1403 11.844 10.5825 8.98716 10.5825C6.13028 10.5825 3.81221 13.1403 3.81221 16.2925C3.81221 16.3478 3.81221 16.4031 3.81847 16.4584H14.1558Z" fill="#1C1E2B"/>
<path d="M42.9039 16.4584C42.9039 16.4031 42.9102 16.3478 42.9102 16.2925C42.9102 13.1403 40.5921 10.5825 37.7352 10.5825C34.8783 10.5825 32.5603 13.1403 32.5603 16.2925C32.5603 16.3478 32.5603 16.4031 32.5665 16.4584H42.9039Z" fill="#1C1E2B"/>
<path d="M40.2711 6.13415L44.0431 6.04601C44.2731 6.04601 44.4168 5.7816 44.2961 5.57594C43.7268 4.58879 43.0829 3.43711 42.5136 2.53222C41.8179 1.43343 41.2314 1.14551 38.2529 1.14551C38.0287 1.14551 37.8849 1.38054 37.9769 1.5862C38.5231 2.79076 39.4259 4.61817 39.9836 5.94024C40.0296 6.05776 40.1446 6.12827 40.2711 6.12827V6.13415Z" fill="white"/>
<path d="M37.0749 6.19886L27.9152 6.40452C27.76 6.40452 27.6277 6.28112 27.6277 6.1166V1.66854C27.6277 1.41587 27.6852 1.33361 27.9267 1.33361C28.542 1.32774 28.91 1.31011 29.5252 1.31011C29.8587 1.31011 30.1864 1.31011 30.5199 1.31011C31.0029 1.31011 31.4227 1.3101 31.8137 1.29835C32.1587 1.29835 32.4864 1.29248 32.8257 1.29248C33.4639 1.29248 34.0332 1.30423 34.6886 1.33948C34.7921 1.33948 34.9014 1.39237 35.0164 1.46875C35.7294 1.96821 36.6436 3.82499 37.3336 5.81693C37.3969 6.00496 37.2646 6.19886 37.0749 6.20474V6.19886Z" fill="white"/>
<path d="M12.7071 15.8122C12.7071 15.8886 12.7013 15.965 12.6898 16.0355L12.8911 16.0531C12.8911 16.0531 12.9658 16.1119 13.0406 16.1765L13.0578 16.1883C13.0578 16.1883 13.0751 16.2059 13.0808 16.2118C13.0636 16.3352 13.0463 16.4586 13.0176 16.582C13.0176 16.6055 13.0118 16.6231 13.0061 16.6466L12.9716 16.6114C12.9256 16.5644 12.8911 16.5291 12.8911 16.5291L12.6323 16.4703C12.6151 16.5467 12.5978 16.6172 12.5806 16.6877L12.7416 16.7348L12.7703 16.7465C12.7703 16.7465 12.7876 16.7641 12.8163 16.7994C12.8393 16.8229 12.8681 16.8581 12.8968 16.8934C12.8968 16.8934 12.9083 16.9052 12.9083 16.911C12.9141 16.9169 12.9198 16.9287 12.9256 16.9345C12.8853 17.0756 12.8336 17.2166 12.7761 17.3517C12.7646 17.3341 12.7588 17.3223 12.7473 17.3047C12.7128 17.2518 12.6898 17.2107 12.6898 17.2107L12.4426 17.1049C12.4139 17.1754 12.3851 17.246 12.3506 17.3106L12.5289 17.3987C12.5289 17.3987 12.5806 17.4751 12.6266 17.5691L12.6381 17.5868C12.6381 17.5868 12.6438 17.6044 12.6496 17.6103C12.5806 17.7454 12.5116 17.8688 12.4311 17.9922C12.4254 17.9746 12.4196 17.9569 12.4139 17.9452C12.4139 17.9393 12.4081 17.9276 12.4024 17.9158C12.3794 17.8747 12.3679 17.8453 12.3679 17.8453L12.1379 17.6984C12.0976 17.763 12.0574 17.8277 12.0171 17.8864L12.1781 18.0039C12.1781 18.0039 12.2126 18.0921 12.2471 18.1861C12.2471 18.192 12.2471 18.1979 12.2529 18.2037C12.2529 18.2155 12.2586 18.2214 12.2644 18.2331C12.1781 18.3506 12.0861 18.4623 11.9884 18.568C11.9884 18.5504 11.9769 18.5328 11.9769 18.5152L11.9481 18.4094L11.7469 18.2272C11.6951 18.2801 11.6491 18.3389 11.5916 18.3918L11.7296 18.5328C11.7296 18.5328 11.7469 18.6268 11.7641 18.7267V18.7796C11.6664 18.8795 11.5571 18.9735 11.4421 19.0616C11.4421 19.044 11.4421 19.0264 11.4421 19.0087C11.4421 18.9441 11.4306 18.8971 11.4306 18.8971L11.2639 18.6856C11.2064 18.7326 11.1431 18.7737 11.0856 18.8207L11.2006 18.9852C11.2006 18.9852 11.2006 19.0792 11.2006 19.1791V19.1968C11.2006 19.1968 11.2006 19.2203 11.2006 19.232C11.0799 19.3143 10.9534 19.3848 10.8269 19.4494C10.8269 19.4318 10.8269 19.4142 10.8269 19.3965C10.8326 19.3319 10.8384 19.2849 10.8384 19.2849L10.7119 19.044C10.6486 19.0792 10.5796 19.1145 10.5164 19.1439L10.5969 19.3319C10.5969 19.3319 10.5969 19.3613 10.5854 19.3965C10.5796 19.4318 10.5739 19.4788 10.5624 19.5199V19.5434C10.5624 19.5434 10.5566 19.5669 10.5509 19.5728C10.4186 19.6316 10.2806 19.6786 10.1426 19.7256C10.1426 19.708 10.1541 19.6903 10.1599 19.6727C10.1771 19.6139 10.1886 19.5669 10.1886 19.5669L10.1024 19.3025C10.0334 19.326 9.96438 19.3495 9.88963 19.3672L9.93563 19.5611C9.93563 19.5611 9.90688 19.6492 9.87238 19.7491V19.7726C9.87238 19.7726 9.85513 19.7902 9.85513 19.7961C9.71713 19.8255 9.57338 19.8549 9.42963 19.8725C9.44113 19.8549 9.44688 19.8431 9.45263 19.8255C9.48138 19.7667 9.49863 19.7256 9.49863 19.7256L9.46413 19.4553C9.38938 19.4671 9.32038 19.4729 9.24563 19.4788L9.26288 19.6786C9.26288 19.6786 9.21688 19.7608 9.17088 19.849C9.17088 19.849 9.16513 19.8607 9.15938 19.8666C9.15938 19.8784 9.14788 19.8842 9.14213 19.896C9.10763 19.896 9.07313 19.896 9.03863 19.896C8.92938 19.896 8.81439 19.896 8.70514 19.8901C8.71664 19.8784 8.72814 19.8607 8.73389 19.849C8.76839 19.7961 8.79714 19.755 8.79714 19.755V19.4847C8.73389 19.4847 8.65914 19.4788 8.58439 19.4671L8.56714 19.6727C8.56714 19.6727 8.50964 19.7491 8.44639 19.8255C8.44639 19.8255 8.44064 19.8372 8.43489 19.8431C8.42914 19.849 8.41764 19.8607 8.41189 19.8666C8.26814 19.849 8.12439 19.8196 7.9864 19.7902C7.9979 19.7785 8.00939 19.7667 8.02089 19.755C8.06689 19.708 8.10139 19.6727 8.10139 19.6727L8.15889 19.4024C8.08414 19.3848 8.01515 19.3672 7.94615 19.3495L7.89439 19.5434C7.89439 19.5434 7.87715 19.5611 7.84265 19.5904C7.81965 19.614 7.78515 19.6433 7.75065 19.6727C7.75065 19.6727 7.73915 19.6845 7.7334 19.6845C7.72765 19.6903 7.71615 19.6962 7.7104 19.7021C7.5724 19.6551 7.4344 19.6081 7.30215 19.5493C7.3194 19.5376 7.3309 19.5317 7.34815 19.5199C7.3999 19.4847 7.44015 19.4612 7.44015 19.4612L7.54365 19.2085C7.47465 19.1791 7.40565 19.1498 7.3424 19.1145L7.25615 19.2967C7.25615 19.2967 7.1814 19.3495 7.0894 19.3965L7.07215 19.4083C7.07215 19.4083 7.0549 19.4142 7.04915 19.42C6.9169 19.3554 6.79616 19.279 6.67541 19.1968C6.69266 19.1909 6.70991 19.185 6.72141 19.1791C6.72716 19.1791 6.73866 19.1733 6.75016 19.1674C6.79041 19.1439 6.81916 19.1321 6.81916 19.1321L6.96291 18.8971C6.89966 18.856 6.83641 18.8148 6.77891 18.7737L6.66391 18.9382C6.66391 18.9382 6.57766 18.9735 6.48566 19.0087C6.47991 19.0087 6.47416 19.0087 6.46841 19.0146C6.45691 19.0146 6.45116 19.0205 6.43966 19.0264C6.36491 18.9735 6.29591 18.9147 6.23266 18.8501C6.19241 18.8148 6.15216 18.7796 6.11191 18.7384H6.11766C6.11766 18.7384 6.14641 18.7267 6.16366 18.7267L6.26716 18.6973L6.44541 18.4917C6.39366 18.4388 6.33616 18.3918 6.28441 18.3389L6.14641 18.4799C6.14641 18.4799 6.05442 18.4975 5.95667 18.5152C5.95092 18.5152 5.94516 18.5152 5.93941 18.5152H5.90491C5.80717 18.4094 5.71517 18.2977 5.62892 18.1802C5.64617 18.1802 5.66342 18.1802 5.68067 18.1802C5.74392 18.1802 5.78992 18.1685 5.78992 18.1685L5.99692 17.9981C5.95092 17.9393 5.91066 17.8806 5.86467 17.8159L5.70367 17.9334C5.70367 17.9334 5.61167 17.9334 5.51392 17.9334H5.49667C5.49667 17.9334 5.47367 17.9334 5.46217 17.9334C5.38167 17.81 5.31267 17.6808 5.24942 17.5515C5.26667 17.5515 5.28392 17.5515 5.30117 17.5574C5.36442 17.5633 5.41042 17.5691 5.41042 17.5691L5.64617 17.4399C5.61167 17.3752 5.57717 17.3047 5.54842 17.2401L5.36442 17.3223C5.36442 17.3223 5.33567 17.3223 5.30117 17.3106C5.26667 17.3047 5.22067 17.2988 5.18042 17.2871H5.15742C5.15742 17.2871 5.13442 17.2812 5.12867 17.2753C5.07117 17.1402 5.02517 16.9992 4.97917 16.8581C4.99642 16.8581 5.01368 16.8699 5.03092 16.8758C5.08842 16.8934 5.13442 16.9052 5.13442 16.9052L5.39317 16.817C5.37017 16.7465 5.34717 16.676 5.32992 16.5996L5.14017 16.6466C5.14017 16.6466 5.05392 16.6172 4.95617 16.582H4.93317C4.93317 16.582 4.91593 16.5644 4.91018 16.5644C4.88143 16.4233 4.85267 16.2764 4.83542 16.1295C4.85267 16.1413 4.86418 16.1472 4.88142 16.153C4.93892 16.1824 4.97917 16.2 4.97917 16.2L5.24367 16.1648C5.23217 16.0884 5.22642 16.0179 5.22067 15.9415L5.02517 15.9591C5.02517 15.9591 4.94467 15.9121 4.85843 15.8651C4.85843 15.8651 4.84693 15.8592 4.84118 15.8534C4.82968 15.8534 4.82392 15.8416 4.81242 15.8357C4.81242 15.8005 4.81242 15.7652 4.81242 15.73C4.81242 15.6183 4.81243 15.5008 4.81818 15.3892C4.82968 15.4009 4.84692 15.4127 4.85843 15.4186C4.91017 15.4597 4.95043 15.4832 4.95043 15.4832H5.21492C5.21492 15.4186 5.22067 15.3422 5.22642 15.2658L5.02517 15.2482C5.02517 15.2482 4.95042 15.1894 4.87567 15.1248C4.87567 15.1248 4.86417 15.1189 4.85843 15.113C4.85268 15.1071 4.84118 15.0954 4.83542 15.0895C4.85267 14.9426 4.88143 14.7957 4.91018 14.6547C4.92168 14.6664 4.93318 14.6782 4.94468 14.6899C4.99067 14.7369 5.02517 14.7722 5.02517 14.7722L5.28967 14.831C5.30692 14.7546 5.32417 14.6841 5.34142 14.6136L5.15167 14.5607L5.10567 14.5078C5.10567 14.5078 5.05392 14.449 5.02517 14.4138C5.02517 14.4138 5.01367 14.402 5.01367 14.3961C5.00792 14.3903 5.00217 14.3785 4.99642 14.3726C5.04242 14.2316 5.08842 14.0906 5.14592 13.9555C5.15742 13.9731 5.16317 13.9848 5.17467 14.0025C5.20917 14.0553 5.23217 14.0965 5.23217 14.0965L5.47942 14.1964C5.50817 14.1259 5.53692 14.0553 5.57142 13.9907L5.39317 13.9026C5.39317 13.9026 5.34142 13.8262 5.29542 13.7322L5.28392 13.7145C5.28392 13.7145 5.27817 13.6969 5.27242 13.691C5.34142 13.5559 5.41042 13.4325 5.49092 13.3091C5.49667 13.3267 5.50242 13.3444 5.50817 13.3561C5.50817 13.362 5.51392 13.3737 5.51967 13.3855C5.54267 13.4266 5.55417 13.456 5.55417 13.456L5.78417 13.6029C5.82442 13.5383 5.86467 13.4736 5.90491 13.4149L5.74392 13.2974C5.74392 13.2974 5.70942 13.2092 5.67492 13.1152C5.67492 13.1093 5.67492 13.1034 5.66917 13.0976C5.66917 13.0858 5.66342 13.0799 5.65767 13.0682C5.74392 12.9507 5.83592 12.839 5.93367 12.7274V12.745C5.93367 12.745 5.93941 12.7685 5.93941 12.7803L5.96816 12.886L6.16941 13.0682C6.22116 13.0153 6.26716 12.9565 6.31891 12.9037L6.18091 12.7568C6.18091 12.7568 6.16366 12.6628 6.14641 12.5629C6.14641 12.557 6.14641 12.5511 6.14641 12.5452V12.51C6.24991 12.4101 6.35916 12.3161 6.47416 12.2279C6.47416 12.2456 6.47416 12.2632 6.47416 12.2808C6.47416 12.3455 6.48566 12.3925 6.48566 12.3925L6.65241 12.604C6.70991 12.557 6.77316 12.5159 6.83066 12.4688L6.71566 12.3043C6.71566 12.3043 6.71566 12.2103 6.71566 12.1104V12.0928C6.71566 12.0928 6.71566 12.0693 6.71566 12.0575C6.83641 11.9753 6.9629 11.9048 7.0894 11.8401C7.0894 11.8578 7.0894 11.8754 7.0894 11.893C7.08365 11.9576 7.0779 12.0046 7.0779 12.0046L7.2044 12.2456C7.26765 12.2103 7.33665 12.1751 7.3999 12.1457L7.3194 11.9576C7.3194 11.9576 7.3194 11.9283 7.3309 11.893C7.33665 11.8578 7.3424 11.8107 7.3539 11.7696V11.7461C7.3539 11.7461 7.35965 11.7226 7.3654 11.7167C7.49765 11.658 7.63565 11.611 7.77365 11.564C7.77365 11.5816 7.76215 11.5992 7.7564 11.6168C7.73915 11.6756 7.72765 11.7226 7.72765 11.7226L7.8139 11.987C7.88289 11.9635 7.9519 11.94 8.02665 11.9224L7.98064 11.7285C7.98064 11.7285 8.00939 11.6403 8.04389 11.5405C8.04389 11.5346 8.0439 11.5228 8.04965 11.5169C8.04965 11.5111 8.05539 11.4993 8.06114 11.4934C8.19914 11.4641 8.34289 11.4347 8.48664 11.4171C8.47514 11.4347 8.46939 11.4464 8.46364 11.4641C8.43489 11.5228 8.41764 11.564 8.41764 11.564L8.45789 11.8342C8.53264 11.8225 8.60164 11.8166 8.67639 11.8107L8.65914 11.611C8.65914 11.611 8.70514 11.5287 8.75113 11.4406C8.75113 11.4406 8.75689 11.4288 8.76264 11.4229C8.76264 11.4112 8.77414 11.4053 8.77989 11.3936C8.81439 11.3936 8.84889 11.3936 8.88339 11.3936C8.99263 11.3936 9.10763 11.3936 9.21688 11.3994C9.20538 11.4112 9.19388 11.4288 9.18813 11.4406C9.14788 11.4934 9.12488 11.5346 9.12488 11.5346V11.8049C9.18813 11.8049 9.26288 11.8107 9.33763 11.8225L9.35488 11.6168C9.35488 11.6168 9.41238 11.5405 9.47563 11.4641C9.47563 11.4641 9.48138 11.4523 9.48713 11.4464C9.49288 11.4406 9.50438 11.4288 9.51013 11.4229C9.65388 11.4406 9.79763 11.4699 9.93563 11.4993C9.92413 11.5111 9.91262 11.5228 9.90112 11.5346C9.85512 11.5816 9.82063 11.6168 9.82063 11.6168L9.76313 11.8871C9.83788 11.9048 9.90688 11.9224 9.97588 11.94L10.0276 11.7461L10.0794 11.6991C10.0794 11.6991 10.1369 11.6462 10.1714 11.6168C10.1714 11.6168 10.1829 11.6051 10.1886 11.6051C10.1944 11.5992 10.2059 11.5933 10.2116 11.5875C10.3496 11.6345 10.4876 11.6815 10.6199 11.7402C10.6026 11.752 10.5911 11.7579 10.5739 11.7696C10.5221 11.8049 10.4819 11.8284 10.4819 11.8284L10.3841 12.081C10.4531 12.1104 10.5221 12.1398 10.5854 12.1751L10.6716 11.9929C10.6716 11.9929 10.7464 11.94 10.8384 11.893L10.8556 11.8813C10.8556 11.8813 10.8729 11.8754 10.8786 11.8695C11.0109 11.94 11.1316 12.0105 11.2524 12.0928C11.2351 12.0987 11.2179 12.1045 11.2064 12.1104C11.2006 12.1104 11.1891 12.1163 11.1776 12.1222C11.1374 12.1457 11.1086 12.1574 11.1086 12.1574L10.9649 12.3925C11.0281 12.4336 11.0914 12.4747 11.1489 12.5159L11.2639 12.3513C11.2639 12.3513 11.3501 12.3161 11.4421 12.2808C11.4479 12.2808 11.4536 12.2808 11.4594 12.2749C11.4709 12.2749 11.4766 12.2691 11.4881 12.2632C11.5916 12.3455 11.6894 12.4277 11.7871 12.5159C11.7986 12.5276 11.8101 12.5335 11.8216 12.5452C11.8044 12.5452 11.7871 12.557 11.7699 12.557L11.6664 12.5864L11.4881 12.792C11.5399 12.8449 11.5974 12.8919 11.6491 12.9448L11.7929 12.8038C11.7929 12.8038 11.8849 12.7861 11.9826 12.7685C11.9884 12.7685 11.9941 12.7685 11.9999 12.7685H12.0344C12.1321 12.8743 12.2241 12.9859 12.3104 13.1034C12.2931 13.1034 12.2759 13.1034 12.2586 13.1034C12.1954 13.1034 12.1494 13.1152 12.1494 13.1152L11.9424 13.2856C11.9884 13.3444 12.0286 13.409 12.0746 13.4678L12.2356 13.3502C12.2356 13.3502 12.3276 13.3502 12.4254 13.3502H12.4426C12.4426 13.3502 12.4656 13.3502 12.4771 13.3502C12.5576 13.4736 12.6266 13.6029 12.6898 13.7322C12.6726 13.7322 12.6553 13.7322 12.6381 13.7322C12.5748 13.7263 12.5289 13.7204 12.5289 13.7204L12.2931 13.8497C12.3276 13.9143 12.3621 13.9848 12.3909 14.0495L12.5749 13.9672C12.5749 13.9672 12.6036 13.9672 12.6381 13.979C12.6726 13.9848 12.7186 13.9907 12.7588 14.0025H12.7761C12.7761 14.0025 12.7991 14.0083 12.8048 14.0142C12.8623 14.1494 12.9083 14.2904 12.9543 14.4314C12.9371 14.4314 12.9198 14.4196 12.9026 14.4138C12.8451 14.3961 12.7991 14.3844 12.7991 14.3844L12.5404 14.4725C12.5634 14.543 12.5864 14.6136 12.6036 14.6899L12.7933 14.6429C12.7933 14.6429 12.8796 14.6723 12.9773 14.7076H13.0003C13.0003 14.7076 13.0176 14.7252 13.0233 14.7252C13.0521 14.8662 13.0808 15.0131 13.0981 15.16C13.0808 15.1483 13.0693 15.1424 13.0521 15.1365C12.9946 15.1071 12.9543 15.0895 12.9543 15.0895L12.6898 15.1248C12.7013 15.2011 12.7071 15.2717 12.7128 15.348L12.9083 15.3304C12.9083 15.3304 12.9888 15.3774 13.0751 15.4244C13.0751 15.4244 13.0866 15.4303 13.0923 15.4362C13.1038 15.4362 13.1096 15.4479 13.1211 15.4538C13.1211 15.4891 13.1211 15.5243 13.1211 15.5596C13.1211 15.6712 13.1211 15.7887 13.1153 15.9004C13.1038 15.8886 13.0866 15.8769 13.0751 15.871C13.0233 15.8299 12.9831 15.8064 12.9831 15.8064H12.7186L12.7071 15.8122Z" fill="#1C1E2B"/>
<path d="M5.89453 13.4676C5.85428 13.5264 5.81403 13.591 5.77378 13.6557L5.54378 13.5088C5.54378 13.5088 5.53228 13.4794 5.50928 13.4383C5.50928 13.4324 5.50353 13.4206 5.49778 13.4089C5.54953 13.3266 5.60703 13.2444 5.66453 13.168C5.69903 13.2679 5.73353 13.3501 5.73353 13.3501L5.89453 13.4676Z" fill="#1C1E2B"/>
<path d="M12.247 15.6007C12.201 13.7497 10.6887 12.2749 8.87751 12.3219C7.06628 12.3689 5.62305 13.9143 5.66904 15.7652C5.71504 17.6161 7.22728 19.0909 9.03851 19.0439C10.8497 18.9969 12.293 17.4516 12.247 15.6007Z" fill="#1C1E2B"/>
<path d="M12.6084 15.5947C12.5567 13.5382 10.8777 11.9047 8.86519 11.9517C6.85271 12.0046 5.25423 13.7203 5.30023 15.7769C5.35198 17.8335 7.03096 19.467 9.04344 19.4199C11.0559 19.3671 12.6544 17.6513 12.6084 15.5947ZM12.5682 15.5947C12.6199 17.6278 11.0387 19.3259 9.04344 19.3788C7.05396 19.4317 5.39223 17.8158 5.34048 15.7769C5.28873 13.7438 6.86996 12.0457 8.86519 11.9928C10.8547 11.9399 12.5164 13.5558 12.5682 15.5947Z" fill="#1C1E2B"/>
<path d="M6.45117 18.5385L6.27293 18.7442L6.16943 18.7736C6.10043 18.703 6.02568 18.6384 5.96243 18.562C6.06018 18.5444 6.15218 18.5268 6.15218 18.5268L6.29017 18.3857C6.34192 18.4386 6.39367 18.4915 6.45117 18.5385Z" fill="#1C1E2B"/>
<path d="M6.00195 18.0508L5.79495 18.2212C5.79495 18.2212 5.74896 18.2212 5.68571 18.2329C5.62821 18.1566 5.57071 18.0743 5.51896 17.992C5.61671 17.992 5.70871 17.992 5.70871 17.992L5.86971 17.8745C5.90996 17.9333 5.95595 17.9979 6.00195 18.0567V18.0508Z" fill="#1C1E2B"/>
<path d="M7.55469 19.2439C7.48569 19.2145 7.41669 19.1851 7.35344 19.1558L7.26719 19.3379C7.26719 19.3379 7.19244 19.3908 7.10044 19.4378C7.18669 19.4848 7.27294 19.5201 7.35919 19.5612C7.41094 19.5259 7.44544 19.5024 7.44544 19.5024L7.54894 19.2439H7.55469Z" fill="#1C1E2B"/>
<path d="M6.83086 19.1734L6.97461 18.9383C6.91136 18.8972 6.84811 18.8561 6.79061 18.8149L6.67561 18.9795C6.67561 18.9795 6.58936 19.0147 6.49736 19.05C6.57211 19.1087 6.65261 19.1675 6.73311 19.2204L6.76186 19.2086L6.83086 19.1734Z" fill="#1C1E2B"/>
<path d="M5.64648 17.4869L5.41073 17.6161C5.41073 17.6161 5.36473 17.6161 5.30148 17.6044C5.25548 17.5163 5.22099 17.4281 5.18074 17.34C5.22674 17.3459 5.26698 17.3576 5.30148 17.3635C5.34173 17.3635 5.36473 17.3752 5.36473 17.3752L5.54873 17.293C5.57748 17.3635 5.61198 17.4281 5.64648 17.4928V17.4869Z" fill="#1C1E2B"/>
<path d="M5.22081 15.3305C5.21506 15.4069 5.20931 15.4833 5.20931 15.5538H4.94482C4.94482 15.5538 4.90456 15.5185 4.85282 15.4774C4.85282 15.3775 4.86432 15.2835 4.87582 15.1836C4.95056 15.2482 5.02532 15.307 5.02532 15.307L5.22656 15.3246L5.22081 15.3305Z" fill="#1C1E2B"/>
<path d="M8.18175 19.4376C8.107 19.42 8.038 19.4024 7.969 19.3848L7.91725 19.5787L7.8655 19.6257C7.8655 19.6257 7.808 19.6786 7.7735 19.7079C7.8655 19.7373 7.9575 19.7608 8.0495 19.7843C8.0955 19.7373 8.13 19.7079 8.13 19.7079L8.1875 19.4376H8.18175Z" fill="#1C1E2B"/>
<path d="M5.39258 16.8756L5.13383 16.9638C5.13383 16.9638 5.08783 16.952 5.03033 16.9344C5.00158 16.8404 4.97283 16.7464 4.95558 16.6523C5.04758 16.6876 5.13958 16.717 5.13958 16.717L5.32933 16.67C5.34658 16.7405 5.36958 16.8169 5.39258 16.8874V16.8756Z" fill="#1C1E2B"/>
<path d="M5.33594 14.6725C5.31869 14.743 5.30144 14.8194 5.28419 14.8899L5.01969 14.8311C5.01969 14.8311 4.98519 14.7958 4.93919 14.7488C4.96219 14.6548 4.98519 14.5608 5.01394 14.4668C5.04269 14.5021 5.07144 14.5373 5.09444 14.5608L5.14044 14.6137L5.33019 14.6666L5.33594 14.6725Z" fill="#1C1E2B"/>
<path d="M5.56445 14.0437C5.52995 14.1142 5.5012 14.1788 5.47245 14.2493L5.2252 14.1494C5.2252 14.1494 5.20221 14.1142 5.16771 14.0554C5.20796 13.9673 5.24245 13.8733 5.28845 13.791C5.3402 13.8792 5.3862 13.9614 5.3862 13.9614L5.56445 14.0496V14.0437Z" fill="#1C1E2B"/>
<path d="M5.24414 16.2235L4.97964 16.2588C4.97964 16.2588 4.9394 16.2411 4.8819 16.2118C4.8704 16.1177 4.86465 16.0179 4.8589 15.918C4.94514 15.9709 5.02564 16.012 5.02564 16.012L5.22114 15.9944C5.22689 16.0707 5.23264 16.1412 5.24414 16.2176V16.2235Z" fill="#1C1E2B"/>
<path d="M12.3681 17.8569L12.1381 17.71C12.0978 17.7746 12.0576 17.8392 12.0173 17.898L12.1783 18.0155C12.1783 18.0155 12.2128 18.1036 12.2473 18.1977C12.3048 18.1213 12.3623 18.039 12.4141 17.9568L12.4026 17.9274L12.3681 17.8569Z" fill="#1C1E2B"/>
<path d="M12.4375 17.1167C12.4088 17.1872 12.38 17.2577 12.3513 17.3224L12.5295 17.4105C12.5295 17.4105 12.5813 17.4869 12.6273 17.5809C12.6733 17.4928 12.7078 17.4046 12.748 17.3165C12.7135 17.2636 12.6905 17.2225 12.6905 17.2225L12.4375 17.1226V17.1167Z" fill="#1C1E2B"/>
<path d="M8.83214 19.5142C8.75739 19.5142 8.68264 19.5083 8.61364 19.5024L8.59639 19.7022C8.59639 19.7022 8.5389 19.7786 8.47565 19.855C8.57339 19.8667 8.66539 19.8726 8.76314 19.8785C8.80339 19.8256 8.82639 19.7845 8.82639 19.7845L8.83789 19.5142H8.83214Z" fill="#1C1E2B"/>
<path d="M11.7465 18.2446C11.6947 18.3034 11.6487 18.3563 11.5912 18.4092L11.7292 18.5502C11.7292 18.5502 11.7465 18.6442 11.7637 18.7441C11.8327 18.6736 11.9017 18.6089 11.9707 18.5325C11.9535 18.4679 11.942 18.4268 11.942 18.4268L11.7407 18.2446H11.7465Z" fill="#1C1E2B"/>
<path d="M12.9725 15.8242L12.708 15.8125C12.708 15.8889 12.7022 15.9653 12.6965 16.0358L12.892 16.0534C12.892 16.0534 12.9667 16.1122 13.0415 16.1768C13.053 16.0769 13.0587 15.9829 13.0645 15.883C13.0127 15.8419 12.9725 15.8184 12.9725 15.8184V15.8242Z" fill="#1C1E2B"/>
<path d="M12.6256 16.4761C12.6083 16.5525 12.5911 16.623 12.5738 16.6935L12.7636 16.7464C12.7636 16.7464 12.7808 16.764 12.8096 16.7993C12.8326 16.8228 12.8613 16.858 12.8901 16.8933C12.9188 16.7993 12.9418 16.7053 12.9648 16.6112C12.9188 16.5642 12.8901 16.529 12.8901 16.529L12.6256 16.4702V16.4761Z" fill="#1C1E2B"/>
<path d="M10.1187 19.332C10.0497 19.3555 9.98072 19.379 9.90597 19.3967L9.95772 19.5906C9.95772 19.5906 9.92897 19.6787 9.89447 19.7786C9.98647 19.7551 10.0785 19.7316 10.1705 19.7022C10.1877 19.6435 10.1992 19.5964 10.1992 19.5964L10.113 19.332H10.1187Z" fill="#1C1E2B"/>
<path d="M9.48709 19.4785C9.41235 19.4903 9.34334 19.4961 9.26859 19.502L9.28584 19.7018C9.28584 19.7018 9.23985 19.7841 9.19385 19.8722C9.2916 19.8722 9.38934 19.8604 9.48134 19.8487C9.51009 19.7899 9.52734 19.7488 9.52734 19.7488L9.48709 19.4785Z" fill="#1C1E2B"/>
<path d="M10.7231 19.0674C10.6599 19.1026 10.5909 19.1379 10.5276 19.1673L10.6139 19.3553L10.6024 19.4199L10.5794 19.5433C10.6656 19.5022 10.7576 19.4611 10.8381 19.4199C10.8439 19.3553 10.8496 19.3083 10.8496 19.3083L10.7231 19.0674Z" fill="#1C1E2B"/>
<path d="M11.2689 18.7031C11.2114 18.7501 11.1539 18.7913 11.0907 18.8383L11.2057 19.0028C11.2057 19.0028 11.2057 19.0968 11.2057 19.1967C11.2862 19.1438 11.3667 19.0851 11.4414 19.0263C11.4414 18.9617 11.4299 18.9147 11.4299 18.9147L11.2632 18.7031H11.2689Z" fill="#1C1E2B"/>
<path d="M11.418 12.3218C11.3202 12.357 11.2397 12.3923 11.2397 12.3923L11.1247 12.5568C11.0672 12.5157 11.004 12.4745 10.9407 12.4334L11.0845 12.1984C11.0845 12.1984 11.1132 12.1866 11.1535 12.1631C11.1592 12.1631 11.1707 12.1572 11.1822 12.1514C11.2627 12.2043 11.3432 12.263 11.418 12.3218Z" fill="#1C1E2B"/>
<path d="M8.63066 11.664L8.64791 11.8638C8.57316 11.8697 8.50416 11.8756 8.42941 11.8873L8.38916 11.617C8.38916 11.617 8.40641 11.5759 8.43516 11.5172C8.52716 11.5054 8.62491 11.4995 8.72266 11.4937C8.67091 11.5818 8.63066 11.664 8.63066 11.664Z" fill="#1C1E2B"/>
<path d="M7.38867 12.1983C7.31967 12.2277 7.25642 12.263 7.19317 12.2982L7.06668 12.0573C7.06668 12.0573 7.06667 12.0103 7.07817 11.9457C7.16442 11.8987 7.25067 11.8634 7.33692 11.8223C7.33117 11.8693 7.31967 11.9104 7.31392 11.9457C7.31392 11.9868 7.30242 12.0103 7.30242 12.0103L7.38292 12.1983H7.38867Z" fill="#1C1E2B"/>
<path d="M7.95801 11.7813L8.00401 11.9752C7.93502 11.9928 7.86026 12.0163 7.79126 12.0398L7.70501 11.7754C7.70501 11.7754 7.71652 11.7343 7.73377 11.6696C7.82577 11.6403 7.91777 11.6109 8.00977 11.5933C7.97527 11.6873 7.94652 11.7813 7.94652 11.7813H7.95801Z" fill="#1C1E2B"/>
<path d="M10.1427 11.6638C10.1082 11.6932 10.0737 11.7226 10.0507 11.7461L9.99894 11.7931L9.94719 11.987C9.87819 11.9694 9.80344 11.9517 9.73445 11.9341L9.79194 11.6638C9.79194 11.6638 9.82644 11.6286 9.87244 11.5815C9.96444 11.605 10.0564 11.6286 10.1484 11.6579L10.1427 11.6638Z" fill="#1C1E2B"/>
<path d="M11.9136 13.3208C11.9596 13.3796 11.9998 13.4383 12.0458 13.503L12.2126 13.3854C12.2126 13.3854 12.3046 13.3854 12.4023 13.3854C12.3506 13.3032 12.2931 13.2209 12.2356 13.1445C12.1723 13.1445 12.1263 13.1504 12.1263 13.1504L11.9193 13.3208H11.9136Z" fill="#1C1E2B"/>
<path d="M12.522 14.4958C12.545 14.5664 12.568 14.6369 12.5852 14.7132L12.775 14.6604C12.775 14.6604 12.8612 14.6897 12.959 14.725C12.936 14.631 12.913 14.537 12.8842 14.443C12.8267 14.4253 12.7807 14.4136 12.7807 14.4136L12.5277 14.5017L12.522 14.4958Z" fill="#1C1E2B"/>
<path d="M9.44151 11.5172C9.37827 11.5935 9.32077 11.6699 9.32077 11.6699L9.30352 11.8756C9.22877 11.8697 9.15402 11.8638 9.08502 11.858V11.5877C9.08502 11.5877 9.11952 11.5465 9.15977 11.4937C9.25752 11.4937 9.34952 11.5054 9.44727 11.5172H9.44151Z" fill="#1C1E2B"/>
<path d="M10.8086 11.9339C10.7223 11.9868 10.6418 12.0338 10.6418 12.0338L10.5556 12.216C10.4866 12.1807 10.4233 12.1514 10.3543 12.122L10.4521 11.8693C10.4521 11.8693 10.4866 11.8458 10.5441 11.8105C10.6303 11.8517 10.7223 11.8869 10.8028 11.9339H10.8086Z" fill="#1C1E2B"/>
<path d="M12.2706 13.8793C12.3051 13.9439 12.3396 14.0144 12.3683 14.079L12.5523 13.9909L12.6156 14.0027C12.6501 14.0085 12.6903 14.0144 12.7363 14.0262C12.6961 13.938 12.6558 13.8499 12.6156 13.7618C12.5523 13.7559 12.5063 13.75 12.5063 13.75L12.2706 13.8793Z" fill="#1C1E2B"/>
<path d="M12.6714 15.1486C12.6829 15.2249 12.6886 15.2955 12.6944 15.3718L12.8899 15.3542C12.8899 15.3542 12.9704 15.4012 13.0566 15.4482C13.0566 15.3483 13.0451 15.2484 13.0336 15.1544C12.9761 15.1251 12.9359 15.1074 12.9359 15.1074L12.6714 15.1486Z" fill="#1C1E2B"/>
<path d="M6.81836 12.5332C6.75511 12.5744 6.69761 12.6214 6.64011 12.6684L6.47336 12.4569C6.47336 12.4569 6.47336 12.4098 6.46186 12.3452C6.53661 12.2864 6.61711 12.2277 6.69761 12.1748C6.69761 12.2747 6.69761 12.3687 6.69761 12.3687L6.81261 12.5332H6.81836Z" fill="#1C1E2B"/>
<path d="M11.4644 12.8332C11.5219 12.886 11.5736 12.9331 11.6254 12.9918L11.7634 12.8508C11.7634 12.8508 11.8554 12.8332 11.9531 12.8155C11.8841 12.745 11.8151 12.6745 11.7461 12.604C11.6829 12.6216 11.6426 12.6334 11.6426 12.6334L11.4644 12.839V12.8332Z" fill="#1C1E2B"/>
<path d="M6.31836 12.9624C6.26661 13.0153 6.21486 13.0681 6.16886 13.1269L5.96761 12.9447L5.93886 12.839C6.00786 12.7685 6.07111 12.6921 6.14586 12.6274C6.16311 12.7273 6.18036 12.8213 6.18036 12.8213L6.31836 12.9682V12.9624Z" fill="#1C1E2B"/>
<path opacity="0.1" d="M6.31836 12.9624C6.26661 13.0153 6.21486 13.0681 6.16886 13.1269L5.96761 12.9447L5.93886 12.839C6.00786 12.7685 6.07111 12.6921 6.14586 12.6274C6.16311 12.7273 6.18036 12.8213 6.18036 12.8213L6.31836 12.9682V12.9624Z" fill="#1C1E2B"/>
<g style="mix-blend-mode:multiply" opacity="0.15">
<g style="mix-blend-mode:multiply">
<path d="M12.9716 16.6173L13.0061 16.6525C13.0061 16.6525 13.0176 16.6114 13.0176 16.5879C13.0003 16.5996 12.9888 16.6055 12.9716 16.6173Z" fill="#1C1E2B"/>
</g>
</g>
<path d="M12.0566 15.6832C12.0566 17.4342 10.6709 18.8503 8.95742 18.8503C7.24394 18.8503 5.8582 17.4342 5.8582 15.6832C5.8582 13.9322 7.24394 12.5161 8.95742 12.5161C10.6709 12.5161 12.0566 13.9322 12.0566 15.6832Z" fill="white"/>
<path d="M8.9569 18.2979C7.54375 18.2979 6.39817 17.1272 6.39817 15.6831C6.39817 14.239 7.54375 13.0684 8.9569 13.0684C10.37 13.0684 11.5156 14.239 11.5156 15.6831C11.5156 17.1272 10.37 18.2979 8.9569 18.2979Z" fill="#1C1E2B"/>
<path d="M9.09547 16.1065L8.81947 15.2427L11.4702 14.5259L11.6484 15.09L9.09547 16.1065Z" fill="white"/>
<path d="M8.59475 15.9414L9.31925 15.4067L10.8027 17.763L10.3312 18.1155L8.59475 15.9414Z" fill="white"/>
<path d="M8.59582 15.4067L9.32031 15.9414L7.58383 18.1155L7.11233 17.763L8.59582 15.4067Z" fill="white"/>
<path d="M9.0957 15.2427L8.8197 16.1065L6.26098 15.09L6.43923 14.5259L9.0957 15.2427Z" fill="white"/>
<path d="M9.40039 15.6773H8.50915L8.6644 12.8745H9.24514L9.40039 15.6773Z" fill="white"/>
<path d="M9.89453 15.6834C9.89453 16.2122 9.47478 16.6411 8.95729 16.6411C8.43979 16.6411 8.02005 16.2122 8.02005 15.6834C8.02005 15.1545 8.43979 14.7256 8.95729 14.7256C9.47478 14.7256 9.89453 15.1545 9.89453 15.6834Z" fill="white"/>
<path d="M41.5019 15.8122C41.5019 15.8886 41.4962 15.965 41.4904 16.0355L41.6917 16.0531C41.6917 16.0531 41.7664 16.1119 41.8412 16.1765L41.8584 16.1883C41.8584 16.1883 41.8757 16.2059 41.8814 16.2118C41.8642 16.3352 41.8469 16.4586 41.8182 16.582C41.8182 16.6055 41.8124 16.6231 41.8067 16.6466L41.7722 16.6114C41.7262 16.5644 41.6917 16.5291 41.6917 16.5291L41.4272 16.4703C41.4099 16.5467 41.3927 16.6172 41.3754 16.6877L41.5364 16.7348L41.5652 16.7465L41.6112 16.7994C41.6112 16.7994 41.6629 16.8581 41.6917 16.8934C41.6917 16.8934 41.7032 16.9052 41.7032 16.911C41.7089 16.9169 41.7147 16.9287 41.7204 16.9345C41.6744 17.0756 41.6284 17.2166 41.5709 17.3517C41.5594 17.3341 41.5537 17.3223 41.5422 17.3047C41.5077 17.2518 41.4847 17.2107 41.4847 17.2107L41.2374 17.1049C41.2087 17.1754 41.1799 17.246 41.1454 17.3106L41.3237 17.3987C41.3237 17.3987 41.3754 17.4751 41.4214 17.5691L41.4329 17.5868C41.4329 17.5868 41.4444 17.6044 41.4444 17.6103C41.3812 17.7454 41.3064 17.8688 41.2259 17.9922C41.2202 17.9746 41.2144 17.9569 41.2087 17.9452C41.2087 17.9393 41.1972 17.9276 41.1972 17.9158C41.1742 17.8747 41.1627 17.8453 41.1627 17.8453L40.9327 17.6984C40.8924 17.763 40.8522 17.8277 40.8119 17.8864L40.9729 18.0039C40.9729 18.0039 41.0074 18.0921 41.0419 18.1861C41.0419 18.192 41.0419 18.1979 41.0477 18.2037C41.0477 18.2155 41.0477 18.2214 41.0592 18.2331C40.9729 18.3506 40.8809 18.4623 40.7832 18.568C40.7832 18.5504 40.7717 18.5328 40.7717 18.5152C40.7544 18.4505 40.7429 18.4094 40.7429 18.4094L40.5417 18.2272C40.4899 18.2801 40.4439 18.3389 40.3922 18.3918L40.5302 18.5328C40.5302 18.5328 40.5474 18.6268 40.5647 18.7267V18.7796C40.4669 18.8795 40.3577 18.9735 40.2427 19.0616C40.2427 19.044 40.2427 19.0264 40.2427 19.0087C40.2427 18.9441 40.2312 18.8971 40.2312 18.8971L40.0644 18.6856C40.0069 18.7326 39.9437 18.7737 39.8862 18.8207L40.0012 18.9852C40.0012 18.9852 40.0012 19.0792 40.0012 19.1791V19.1968C40.0012 19.1968 40.0012 19.2203 40.0012 19.232C39.8804 19.3143 39.7539 19.3848 39.6274 19.4494C39.6274 19.4318 39.6274 19.4142 39.6274 19.3965C39.6332 19.3319 39.6389 19.2849 39.6389 19.2849L39.5124 19.044C39.4492 19.0792 39.3802 19.1145 39.3169 19.1439L39.3974 19.3319C39.3974 19.3319 39.3974 19.3613 39.3859 19.3965C39.3802 19.4318 39.3744 19.4788 39.3629 19.5199V19.5434C39.3629 19.5434 39.3572 19.5669 39.3514 19.5728C39.2192 19.6316 39.0812 19.6786 38.9432 19.7256C38.9432 19.708 38.9547 19.6903 38.9604 19.6727C38.9777 19.6139 38.9892 19.5669 38.9892 19.5669L38.9029 19.3025C38.8339 19.326 38.7649 19.3495 38.6902 19.3672L38.7419 19.5611C38.7419 19.5611 38.7132 19.6492 38.6787 19.7491C38.6787 19.755 38.6787 19.7667 38.6729 19.7726C38.6729 19.7785 38.6672 19.7902 38.6614 19.7961C38.5234 19.8255 38.3797 19.8549 38.2359 19.8725C38.2474 19.8549 38.2532 19.8431 38.2589 19.8255C38.2877 19.7667 38.3049 19.7256 38.3049 19.7256L38.2704 19.4553C38.1957 19.4671 38.1267 19.4729 38.0519 19.4788L38.0692 19.6786C38.0692 19.6786 38.0232 19.7608 37.9772 19.849C37.9772 19.849 37.9714 19.8607 37.9657 19.8666C37.9657 19.8784 37.9542 19.8842 37.9484 19.896C37.9139 19.896 37.8794 19.896 37.8449 19.896C37.7357 19.896 37.6207 19.896 37.5114 19.8901C37.5229 19.8784 37.5344 19.8607 37.5402 19.849C37.5747 19.7961 37.6034 19.755 37.6034 19.755V19.4847C37.5402 19.4847 37.4654 19.4788 37.3907 19.4671L37.3735 19.6727C37.3735 19.6727 37.316 19.7491 37.2527 19.8255L37.2412 19.8431C37.2412 19.8431 37.224 19.8607 37.2182 19.8666C37.0745 19.849 36.9307 19.8196 36.7927 19.7902C36.8042 19.7785 36.8157 19.7667 36.8272 19.755C36.8732 19.708 36.9077 19.6727 36.9077 19.6727L36.9652 19.4024C36.8905 19.3848 36.8215 19.3672 36.7525 19.3495L36.7007 19.5434C36.7007 19.5434 36.6835 19.5611 36.649 19.5904C36.626 19.614 36.5915 19.6433 36.557 19.6727C36.557 19.6727 36.5455 19.6845 36.5397 19.6845C36.534 19.6903 36.5225 19.6962 36.5167 19.7021C36.3787 19.6551 36.2407 19.6081 36.1085 19.5493C36.1257 19.5376 36.1372 19.5317 36.1545 19.5199C36.2062 19.4847 36.2465 19.4612 36.2465 19.4612L36.3442 19.2085C36.2752 19.1791 36.2062 19.1498 36.143 19.1145L36.0567 19.2967C36.0567 19.2967 35.982 19.3495 35.89 19.3965L35.8727 19.4083L35.8497 19.42C35.7175 19.3554 35.5967 19.279 35.476 19.1968C35.4932 19.1909 35.5105 19.185 35.522 19.1791C35.5277 19.1791 35.5392 19.1733 35.5507 19.1674C35.591 19.1439 35.6197 19.1321 35.6197 19.1321L35.7635 18.8971C35.7002 18.856 35.637 18.8148 35.5795 18.7737L35.4645 18.9382C35.4645 18.9382 35.3782 18.9735 35.2862 19.0087C35.2805 19.0087 35.2747 19.0087 35.269 19.0146C35.2575 19.0146 35.2517 19.0205 35.2402 19.0264C35.1712 18.9735 35.0965 18.9147 35.0332 18.8501C34.993 18.8148 34.9527 18.7796 34.9125 18.7384H34.9182C34.9182 18.7384 34.947 18.7267 34.9642 18.7267C35.0275 18.7091 35.0677 18.6973 35.0677 18.6973L35.246 18.4917C35.1885 18.4388 35.1367 18.3918 35.085 18.3389L34.947 18.4799C34.947 18.4799 34.855 18.4975 34.7572 18.5152C34.7515 18.5152 34.7457 18.5152 34.74 18.5152H34.7055C34.6077 18.4094 34.5157 18.2977 34.4295 18.1802C34.4467 18.1802 34.464 18.1802 34.4812 18.1802C34.5445 18.1802 34.5905 18.1685 34.5905 18.1685L34.7975 17.9981C34.7515 17.9393 34.7112 17.8806 34.6652 17.8159L34.5042 17.9334C34.5042 17.9334 34.4122 17.9334 34.3145 17.9334H34.2972C34.2972 17.9334 34.2742 17.9334 34.2627 17.9334C34.1822 17.81 34.1132 17.6808 34.05 17.5515C34.0672 17.5515 34.0845 17.5515 34.1017 17.5574C34.165 17.5633 34.211 17.5691 34.211 17.5691L34.4467 17.4399C34.4122 17.3752 34.3777 17.3047 34.349 17.2401L34.165 17.3223C34.165 17.3223 34.1362 17.3223 34.1017 17.3106C34.0672 17.3047 34.0212 17.2988 33.981 17.2871H33.9637C33.9637 17.2871 33.9407 17.2812 33.935 17.2753C33.8775 17.1402 33.8315 16.9992 33.7855 16.8581C33.8027 16.8581 33.82 16.8699 33.8372 16.8758C33.8947 16.8934 33.9407 16.9052 33.9407 16.9052L34.1995 16.817C34.1765 16.7465 34.1535 16.676 34.1362 16.5996L33.9465 16.6466C33.9465 16.6466 33.8602 16.6172 33.7625 16.582H33.7395C33.7395 16.582 33.7222 16.5644 33.7165 16.5644C33.6877 16.4233 33.659 16.2764 33.6417 16.1295C33.659 16.1413 33.6705 16.1472 33.6877 16.153C33.7452 16.1824 33.7855 16.2 33.7855 16.2L34.05 16.1648C34.0385 16.0884 34.0327 16.0179 34.027 15.9415L33.8315 15.9591C33.8315 15.9591 33.751 15.9121 33.6647 15.8651C33.6647 15.8651 33.6532 15.8592 33.6475 15.8534C33.636 15.8534 33.6302 15.8416 33.6187 15.8357C33.6187 15.8005 33.6187 15.7652 33.6187 15.73C33.6187 15.6183 33.6187 15.5008 33.6245 15.3892C33.636 15.4009 33.6532 15.4127 33.6647 15.4186C33.7165 15.4597 33.7567 15.4832 33.7567 15.4832H34.0212C34.0212 15.4186 34.027 15.3422 34.0385 15.2658L33.8372 15.2482C33.8372 15.2482 33.7625 15.1894 33.6877 15.1248C33.6877 15.1248 33.6762 15.1189 33.6705 15.113C33.6647 15.1071 33.6532 15.0954 33.6475 15.0895C33.6647 14.9426 33.6935 14.7957 33.7222 14.6547C33.7337 14.6664 33.7452 14.6782 33.7567 14.6899C33.8027 14.7369 33.8372 14.7722 33.8372 14.7722L34.096 14.831C34.1132 14.7546 34.1305 14.6841 34.1477 14.6136L33.958 14.5607C33.958 14.5607 33.9407 14.543 33.912 14.5078C33.889 14.4843 33.8602 14.449 33.8315 14.4138C33.8315 14.4138 33.82 14.402 33.82 14.3961C33.8142 14.3903 33.8085 14.3785 33.8027 14.3726C33.8487 14.2316 33.8947 14.0906 33.9522 13.9555C33.9637 13.9731 33.9695 13.9848 33.981 14.0025C34.0155 14.0553 34.0385 14.0965 34.0385 14.0965L34.2857 14.1964C34.3145 14.1259 34.3432 14.0553 34.3777 13.9907L34.1995 13.9026C34.1995 13.9026 34.1477 13.8262 34.1017 13.7322L34.0902 13.7145C34.0902 13.7145 34.0845 13.6969 34.0787 13.691C34.1477 13.5559 34.2167 13.4325 34.2972 13.3091C34.303 13.3267 34.3087 13.3444 34.3145 13.3561C34.3145 13.362 34.3202 13.3737 34.326 13.3855C34.349 13.4266 34.3605 13.456 34.3605 13.456L34.5905 13.6029C34.6307 13.5383 34.671 13.4736 34.7112 13.4149L34.5502 13.2974C34.5502 13.2974 34.5157 13.2092 34.4812 13.1152C34.4812 13.1093 34.4812 13.1034 34.4755 13.0976C34.4755 13.0858 34.4755 13.0799 34.464 13.0682C34.5502 12.9507 34.6422 12.839 34.74 12.7274V12.745C34.74 12.745 34.74 12.7685 34.7457 12.7803L34.7745 12.886L34.9757 13.0682C35.0275 13.0153 35.0735 12.9565 35.1252 12.9037L34.9872 12.7568C34.9872 12.7568 34.97 12.6628 34.9527 12.5629V12.51C35.0505 12.4101 35.1597 12.3161 35.2747 12.2279C35.2747 12.2456 35.2747 12.2632 35.2747 12.2808C35.2747 12.3455 35.2862 12.3925 35.2862 12.3925L35.453 12.604C35.5105 12.557 35.5737 12.5159 35.6312 12.4688L35.5162 12.3043C35.5162 12.3043 35.5162 12.2103 35.5162 12.1104V12.0928C35.5162 12.0928 35.5162 12.0693 35.5162 12.0575C35.637 11.9753 35.7635 11.9048 35.89 11.8401C35.89 11.8578 35.89 11.8754 35.89 11.893C35.8842 11.9576 35.8785 12.0046 35.8785 12.0046L36.005 12.2456C36.0682 12.2103 36.1372 12.1751 36.2005 12.1457L36.12 11.9576C36.12 11.9576 36.12 11.9283 36.1315 11.893C36.1315 11.8578 36.143 11.8107 36.1545 11.7696V11.7461C36.1545 11.7461 36.1602 11.7226 36.166 11.7167C36.2982 11.658 36.4362 11.611 36.5742 11.564C36.5742 11.5816 36.5627 11.5992 36.557 11.6168C36.5397 11.6756 36.5282 11.7226 36.5282 11.7226L36.6145 11.987C36.6835 11.9635 36.7525 11.94 36.8272 11.9224L36.7755 11.7285C36.7755 11.7285 36.8042 11.6403 36.8387 11.5405V11.5169C36.8387 11.5169 36.856 11.4993 36.856 11.4934C36.9997 11.4641 37.1377 11.4347 37.2815 11.4171C37.27 11.4347 37.2642 11.4464 37.2585 11.4641C37.2297 11.5228 37.2125 11.564 37.2125 11.564L37.247 11.8342C37.3217 11.8225 37.3907 11.8166 37.4654 11.8107L37.4482 11.611C37.4482 11.611 37.4942 11.5287 37.5402 11.4406C37.5402 11.4406 37.5459 11.4288 37.5517 11.4229C37.5517 11.4112 37.5632 11.4053 37.5689 11.3936C37.6034 11.3936 37.6379 11.3936 37.6724 11.3936C37.7817 11.3936 37.8967 11.3936 38.0059 11.3994C37.9944 11.4112 37.9829 11.4288 37.9772 11.4406C37.9427 11.4934 37.9139 11.5346 37.9139 11.5346V11.8049C37.9772 11.8049 38.0519 11.8107 38.1267 11.8225L38.1439 11.6168C38.1439 11.6168 38.2014 11.5405 38.2647 11.4641L38.2762 11.4464C38.2762 11.4464 38.2934 11.4288 38.2992 11.4229C38.4429 11.4406 38.5867 11.4699 38.7247 11.4993C38.7132 11.5111 38.7017 11.5228 38.6902 11.5346C38.6442 11.5816 38.6097 11.6168 38.6097 11.6168L38.5522 11.8871C38.6269 11.9048 38.6959 11.9224 38.7649 11.94L38.8167 11.7461L38.8684 11.6991C38.8684 11.6991 38.9259 11.6462 38.9604 11.6168C38.9604 11.6168 38.9719 11.6051 38.9777 11.6051C38.9834 11.5992 38.9949 11.5933 39.0007 11.5875C39.1387 11.6345 39.2767 11.6815 39.4089 11.7402C39.3917 11.752 39.3802 11.7579 39.3629 11.7696C39.3112 11.8049 39.2709 11.8284 39.2709 11.8284L39.1732 12.081C39.2422 12.1104 39.3112 12.1398 39.3744 12.1751L39.4607 11.9929C39.4607 11.9929 39.5354 11.94 39.6274 11.893L39.6447 11.8813C39.6447 11.8813 39.6619 11.8754 39.6677 11.8695C39.7999 11.94 39.9207 12.0105 40.0414 12.0928C40.0242 12.0987 40.0069 12.1045 39.9954 12.1104C39.9897 12.1104 39.9782 12.1163 39.9667 12.1222C39.9264 12.1457 39.8977 12.1574 39.8977 12.1574L39.7539 12.3925C39.8172 12.4336 39.8804 12.4747 39.9379 12.5159L40.0529 12.3513C40.0529 12.3513 40.1392 12.3161 40.2312 12.2808C40.2369 12.2808 40.2427 12.2808 40.2484 12.2749C40.2599 12.2749 40.2657 12.2691 40.2772 12.2632C40.3807 12.3455 40.4784 12.4277 40.5762 12.5159C40.5877 12.5276 40.5992 12.5335 40.6107 12.5452C40.5934 12.5452 40.5762 12.557 40.5589 12.557L40.4554 12.5864L40.2772 12.792C40.3347 12.8449 40.3864 12.8919 40.4382 12.9448L40.5762 12.8038C40.5762 12.8038 40.6682 12.7861 40.7659 12.7685H40.8177C40.9154 12.8684 41.0074 12.9801 41.0937 13.0976C41.0764 13.0976 41.0592 13.0976 41.0419 13.0976C40.9787 13.0976 40.9327 13.1093 40.9327 13.1093L40.7257 13.2797C40.7717 13.3385 40.8119 13.4031 40.8579 13.4619L41.0189 13.3444C41.0189 13.3444 41.1109 13.3444 41.2087 13.3444H41.2259C41.2259 13.3444 41.2489 13.3444 41.2604 13.3444C41.3409 13.4677 41.4099 13.597 41.4732 13.7263C41.4559 13.7263 41.4387 13.7263 41.4214 13.7263C41.3582 13.7204 41.3122 13.7145 41.3122 13.7145L41.0764 13.8438C41.1109 13.9084 41.1454 13.979 41.1742 14.0436L41.3582 13.9613C41.3582 13.9613 41.3869 13.9613 41.4214 13.9731C41.4559 13.979 41.4962 13.9848 41.5422 13.9966H41.5652C41.5652 13.9966 41.5824 14.0025 41.5939 14.0083C41.6514 14.1435 41.6974 14.2845 41.7434 14.4255C41.7262 14.4255 41.7089 14.4138 41.6917 14.4079C41.6342 14.3903 41.5882 14.3785 41.5882 14.3785L41.3294 14.4667C41.3524 14.5372 41.3754 14.6077 41.3927 14.6841L41.5824 14.6371C41.5824 14.6371 41.6687 14.6664 41.7664 14.7017H41.7894C41.7894 14.7017 41.8067 14.7193 41.8124 14.7193C41.8412 14.8603 41.8699 15.0072 41.8872 15.1541C41.8699 15.1424 41.8584 15.1365 41.8412 15.1306C41.7837 15.1013 41.7434 15.0836 41.7434 15.0836L41.4789 15.1189C41.4904 15.1953 41.4962 15.2658 41.5019 15.3422L41.6974 15.3245C41.6974 15.3245 41.7779 15.3715 41.8642 15.4186L41.8814 15.4303C41.8814 15.4303 41.8987 15.4421 41.9102 15.4479C41.9102 15.4832 41.9102 15.5184 41.9102 15.5537C41.9102 15.6653 41.9102 15.7829 41.9044 15.8945C41.8929 15.8827 41.8757 15.871 41.8642 15.8651C41.8124 15.824 41.7722 15.8005 41.7722 15.8005H41.5077L41.5019 15.8122Z" fill="#1C1E2B"/>
<path d="M34.6875 13.4676C34.6473 13.5264 34.607 13.591 34.5668 13.6557L34.3368 13.5088C34.3368 13.5088 34.3253 13.4794 34.3023 13.4383C34.3023 13.4324 34.2965 13.4206 34.2908 13.4089C34.3425 13.3266 34.4 13.2444 34.4575 13.168C34.492 13.2679 34.5265 13.3501 34.5265 13.3501L34.6875 13.4676Z" fill="#1C1E2B"/>
<path d="M41.0419 15.6007C40.9959 13.7497 39.4837 12.2749 37.6724 12.3219C35.8554 12.3689 34.418 13.9143 34.464 15.7652C34.51 17.6161 36.0222 19.0909 37.8334 19.0439C39.6447 18.9969 41.0879 17.4516 41.0419 15.6007Z" fill="#1C1E2B"/>
<path d="M41.4033 15.5947C41.3516 13.5382 39.6726 11.9047 37.6601 11.9517C35.6476 12.0046 34.0492 13.7203 34.0952 15.7769C34.1469 17.8335 35.8259 19.467 37.8384 19.4199C39.8508 19.3671 41.4493 17.6513 41.4033 15.5947ZM41.3631 15.5947C41.4148 17.6278 39.8336 19.3259 37.8384 19.3788C35.8489 19.4317 34.1871 17.8158 34.1354 15.7769C34.0837 13.7438 35.6649 12.0457 37.6601 11.9928C39.6496 11.9399 41.3113 13.5558 41.3631 15.5947Z" fill="#1C1E2B"/>
<path d="M35.2461 18.5385L35.0678 18.7442C35.0678 18.7442 35.0218 18.7559 34.9643 18.7736C34.8953 18.703 34.8206 18.6384 34.7573 18.562C34.8551 18.5444 34.9471 18.5268 34.9471 18.5268L35.0851 18.3857C35.1368 18.4386 35.1886 18.4915 35.2461 18.5385Z" fill="#1C1E2B"/>
<path d="M34.7969 18.0508L34.5899 18.2212C34.5899 18.2212 34.5439 18.2212 34.4806 18.2329C34.4231 18.1566 34.3656 18.0743 34.3139 17.992C34.4116 17.992 34.5036 17.992 34.5036 17.992L34.6646 17.8745C34.7049 17.9333 34.7509 17.9979 34.7969 18.0567V18.0508Z" fill="#1C1E2B"/>
<path d="M36.3496 19.2439C36.2806 19.2145 36.2116 19.1851 36.1484 19.1558L36.0621 19.3379C36.0621 19.3379 35.9874 19.3908 35.8954 19.4378C35.9816 19.4848 36.0679 19.5201 36.1541 19.5612C36.2059 19.5259 36.2404 19.5024 36.2404 19.5024L36.3439 19.2439H36.3496Z" fill="#1C1E2B"/>
<path d="M35.6258 19.1734L35.7695 18.9383C35.7063 18.8972 35.643 18.8561 35.5855 18.8149L35.4705 18.9795C35.4705 18.9795 35.3843 19.0147 35.2923 19.05C35.367 19.1087 35.4475 19.1675 35.528 19.2204C35.5395 19.2204 35.5453 19.2145 35.5568 19.2086C35.597 19.191 35.6258 19.1734 35.6258 19.1734Z" fill="#1C1E2B"/>
<path d="M34.4414 17.4869L34.2057 17.6161C34.2057 17.6161 34.1597 17.6161 34.0964 17.6044C34.0504 17.5163 34.0159 17.4281 33.9757 17.34C34.0217 17.3459 34.0619 17.3576 34.0964 17.3635C34.1367 17.3635 34.1597 17.3752 34.1597 17.3752L34.3437 17.293C34.3724 17.3635 34.4069 17.4281 34.4414 17.4928V17.4869Z" fill="#1C1E2B"/>
<path d="M34.0156 15.3305C34.0099 15.4069 34.0041 15.4833 33.9984 15.5538H33.7339C33.7339 15.5538 33.6936 15.5185 33.6419 15.4774C33.6419 15.3775 33.6534 15.2835 33.6649 15.1836C33.7396 15.2482 33.8144 15.307 33.8144 15.307L34.0156 15.3246V15.3305Z" fill="#1C1E2B"/>
<path d="M36.9767 19.4376C36.9019 19.42 36.8329 19.4024 36.7639 19.3848L36.7122 19.5787L36.6604 19.6257C36.6604 19.6257 36.6029 19.6786 36.5684 19.7079C36.6604 19.7373 36.7524 19.7608 36.8444 19.7843C36.8904 19.7373 36.9249 19.7079 36.9249 19.7079L36.9824 19.4376H36.9767Z" fill="#1C1E2B"/>
<path d="M34.1816 16.8756L33.9229 16.9638C33.9229 16.9638 33.8826 16.952 33.8194 16.9344C33.7906 16.8404 33.7619 16.7464 33.7446 16.6523C33.8366 16.6876 33.9286 16.717 33.9286 16.717L34.1184 16.67C34.1356 16.7405 34.1586 16.8169 34.1816 16.8874V16.8756Z" fill="#1C1E2B"/>
<path d="M34.1309 14.6725C34.1136 14.743 34.0964 14.8194 34.0791 14.8899L33.8204 14.8311C33.8204 14.8311 33.7859 14.7958 33.7399 14.7488C33.7629 14.6548 33.7859 14.5608 33.8146 14.4668C33.8434 14.5021 33.8721 14.5373 33.8951 14.5608C33.9239 14.5902 33.9411 14.6137 33.9411 14.6137L34.1309 14.6666V14.6725Z" fill="#1C1E2B"/>
<path d="M34.3594 14.0437C34.3249 14.1142 34.2961 14.1788 34.2674 14.2493L34.0201 14.1494C34.0201 14.1494 33.9971 14.1142 33.9626 14.0554C34.0029 13.9673 34.0374 13.8733 34.0834 13.791C34.1351 13.8792 34.1811 13.9614 34.1811 13.9614L34.3594 14.0496V14.0437Z" fill="#1C1E2B"/>
<path d="M34.0391 16.2235L33.7746 16.2588C33.7746 16.2588 33.7343 16.2411 33.6768 16.2118C33.6653 16.1177 33.6596 16.0179 33.6538 15.918C33.7401 15.9709 33.8206 16.012 33.8206 16.012L34.0161 15.9944C34.0218 16.0707 34.0276 16.1412 34.0391 16.2176V16.2235Z" fill="#1C1E2B"/>
<path d="M41.163 17.8569L40.933 17.71C40.8927 17.7746 40.8525 17.8392 40.8122 17.898L40.9732 18.0155C40.9732 18.0155 41.0077 18.1036 41.0422 18.1977C41.0997 18.1213 41.1572 18.039 41.209 17.9568L41.1975 17.9274L41.163 17.8569Z" fill="#1C1E2B"/>
<path d="M41.2324 17.1167C41.2036 17.1872 41.1749 17.2577 41.1404 17.3224L41.3186 17.4105C41.3186 17.4105 41.3704 17.4869 41.4164 17.5809C41.4566 17.4928 41.4969 17.4046 41.5371 17.3165C41.5026 17.2636 41.4796 17.2225 41.4796 17.2225L41.2324 17.1226V17.1167Z" fill="#1C1E2B"/>
<path d="M37.6271 19.5137C37.5523 19.5137 37.4776 19.5078 37.4086 19.502L37.3913 19.7017C37.3913 19.7017 37.3338 19.7781 37.2706 19.8545C37.3683 19.8663 37.4603 19.8721 37.5581 19.878C37.5983 19.8251 37.6213 19.784 37.6213 19.784L37.6328 19.5137H37.6271Z" fill="#1C1E2B"/>
<path d="M40.5413 18.2446C40.4895 18.3034 40.4435 18.3563 40.386 18.4092L40.524 18.5502C40.524 18.5502 40.5413 18.6442 40.5585 18.7441C40.6275 18.6736 40.6965 18.6089 40.7598 18.5325C40.7425 18.4679 40.731 18.4268 40.731 18.4268L40.5298 18.2446H40.5413Z" fill="#1C1E2B"/>
<path d="M41.7654 15.8238L41.5009 15.812C41.5009 15.8884 41.4952 15.9648 41.4894 16.0353L41.6849 16.0529C41.6849 16.0529 41.7597 16.1117 41.8344 16.1763C41.8459 16.0764 41.8517 15.9824 41.8574 15.8825C41.8057 15.8414 41.7654 15.8179 41.7654 15.8179V15.8238Z" fill="#1C1E2B"/>
<path d="M41.4226 16.4761C41.4053 16.5525 41.3881 16.623 41.3708 16.6935L41.5663 16.7464L41.6123 16.7993C41.6123 16.7993 41.6641 16.858 41.6928 16.8933C41.7216 16.7993 41.7446 16.7053 41.7676 16.6112C41.7216 16.5642 41.6928 16.529 41.6928 16.529L41.4283 16.4702L41.4226 16.4761Z" fill="#1C1E2B"/>
<path d="M38.9136 19.332C38.8446 19.3555 38.7756 19.379 38.7009 19.3967L38.7526 19.5906C38.7526 19.5906 38.7239 19.6787 38.6894 19.7786C38.7814 19.7551 38.8734 19.7316 38.9654 19.7022C38.9826 19.6435 38.9941 19.5964 38.9941 19.5964L38.9079 19.332H38.9136Z" fill="#1C1E2B"/>
<path d="M38.282 19.479C38.2073 19.4908 38.1383 19.4966 38.0635 19.5025L38.0808 19.7023C38.0808 19.7023 38.0348 19.7845 37.9888 19.8727C38.0865 19.8727 38.1843 19.8609 38.2763 19.8492C38.305 19.7904 38.3223 19.7493 38.3223 19.7493L38.2878 19.479H38.282Z" fill="#1C1E2B"/>
<path d="M39.518 19.0674C39.4548 19.1026 39.3858 19.1379 39.3225 19.1673L39.4088 19.3553L39.3973 19.4199C39.3915 19.4552 39.3858 19.4963 39.3743 19.5433C39.4605 19.5022 39.5468 19.4611 39.633 19.4199C39.6388 19.3553 39.6445 19.3083 39.6445 19.3083L39.518 19.0674Z" fill="#1C1E2B"/>
<path d="M40.0638 18.7031C40.0063 18.7501 39.9488 18.7913 39.8856 18.8383L40.0006 19.0028C40.0006 19.0028 40.0006 19.0968 40.0006 19.1967C40.0811 19.1438 40.1616 19.0851 40.2363 19.0263C40.2363 18.9617 40.2248 18.9147 40.2248 18.9147L40.0581 18.7031H40.0638Z" fill="#1C1E2B"/>
<path d="M40.2129 12.3218C40.1151 12.357 40.0346 12.3923 40.0346 12.3923L39.9196 12.5568C39.8621 12.5157 39.7989 12.4745 39.7356 12.4334L39.8794 12.1984C39.8794 12.1984 39.9081 12.1866 39.9484 12.1631C39.9541 12.1631 39.9656 12.1572 39.9771 12.1514C40.0576 12.2043 40.1381 12.263 40.2129 12.3218Z" fill="#1C1E2B"/>
<path d="M37.4257 11.664L37.4429 11.8638C37.3682 11.8697 37.2992 11.8756 37.2244 11.8873L37.1899 11.617C37.1899 11.617 37.2072 11.5759 37.2359 11.5172C37.3279 11.5054 37.4257 11.4995 37.5234 11.4937C37.4717 11.5818 37.4314 11.664 37.4314 11.664H37.4257Z" fill="#1C1E2B"/>
<path d="M36.1836 12.1988C36.1146 12.2282 36.0513 12.2634 35.9881 12.2987L35.8616 12.0578C35.8616 12.0578 35.8616 12.0108 35.8731 11.9461C35.9593 11.8991 36.0456 11.8639 36.1318 11.8228C36.1261 11.8698 36.1146 11.9109 36.1088 11.9461C36.1031 11.9873 36.0973 12.0108 36.0973 12.0108L36.1778 12.1988H36.1836Z" fill="#1C1E2B"/>
<path d="M36.7472 11.7813L36.7989 11.9752C36.7299 11.9928 36.6552 12.0163 36.5862 12.0398L36.4999 11.7754C36.4999 11.7754 36.5114 11.7343 36.5287 11.6696C36.6207 11.6403 36.7127 11.6109 36.8047 11.5933C36.7702 11.6873 36.7414 11.7813 36.7414 11.7813H36.7472Z" fill="#1C1E2B"/>
<path d="M38.9376 11.6638C38.9031 11.6932 38.8686 11.7226 38.8456 11.7461L38.7939 11.7931L38.7421 11.987C38.6731 11.9694 38.5984 11.9517 38.5294 11.9341L38.5869 11.6638C38.5869 11.6638 38.6214 11.6286 38.6674 11.5815C38.7594 11.605 38.8514 11.6286 38.9434 11.6579L38.9376 11.6638Z" fill="#1C1E2B"/>
<path d="M40.7026 13.3208C40.7486 13.3796 40.7888 13.4383 40.8348 13.503L40.9958 13.3854C40.9958 13.3854 41.0878 13.3854 41.1855 13.3854C41.1338 13.3032 41.0763 13.2209 41.0188 13.1445C40.9555 13.1445 40.9095 13.1504 40.9095 13.1504L40.7026 13.3208Z" fill="#1C1E2B"/>
<path d="M41.3169 14.4963C41.3399 14.5668 41.3629 14.6373 41.3802 14.7137L41.5699 14.6609C41.5699 14.6609 41.6562 14.6902 41.7539 14.7255C41.7309 14.6315 41.7079 14.5375 41.6792 14.4434C41.6217 14.4258 41.5757 14.4141 41.5757 14.4141L41.3169 14.5022V14.4963Z" fill="#1C1E2B"/>
<path d="M38.2364 11.5172C38.1732 11.5935 38.1157 11.6699 38.1157 11.6699L38.0984 11.8756C38.0237 11.8697 37.9489 11.8638 37.8799 11.858V11.5877C37.8799 11.5877 37.9144 11.5465 37.9547 11.4937C38.0524 11.4937 38.1502 11.5054 38.2422 11.5172H38.2364Z" fill="#1C1E2B"/>
<path d="M39.6035 11.9344C39.5173 11.9873 39.4368 12.0343 39.4368 12.0343L39.3505 12.2165C39.2815 12.1812 39.2183 12.1518 39.1493 12.1225L39.247 11.8698C39.247 11.8698 39.2815 11.8463 39.339 11.811C39.4253 11.8522 39.5115 11.8874 39.5978 11.9344H39.6035Z" fill="#1C1E2B"/>
<path d="M41.0596 13.8793C41.0941 13.9439 41.1286 14.0144 41.1574 14.079L41.3414 13.9909L41.4046 14.0027C41.4391 14.0085 41.4794 14.0144 41.5254 14.0262C41.4851 13.938 41.4449 13.8499 41.4046 13.7618C41.3414 13.7559 41.2954 13.75 41.2954 13.75L41.0596 13.8793Z" fill="#1C1E2B"/>
<path d="M41.4663 15.1481C41.4778 15.2245 41.4836 15.295 41.4893 15.3714L41.6848 15.3537C41.6848 15.3537 41.7653 15.4007 41.8516 15.4477C41.8516 15.3478 41.8401 15.248 41.8286 15.1539C41.7711 15.1246 41.7308 15.1069 41.7308 15.1069L41.4663 15.1481Z" fill="#1C1E2B"/>
<path d="M35.6133 12.5337C35.5558 12.5749 35.4925 12.6219 35.435 12.6689L35.2683 12.4573C35.2683 12.4573 35.2683 12.4103 35.2568 12.3457C35.3315 12.2869 35.412 12.2282 35.4925 12.1753C35.4925 12.2752 35.4925 12.3692 35.4925 12.3692L35.6075 12.5337H35.6133Z" fill="#1C1E2B"/>
<path d="M40.2593 12.8332C40.3168 12.886 40.3686 12.9331 40.4203 12.9918L40.5583 12.8508C40.5583 12.8508 40.6503 12.8332 40.748 12.8155C40.679 12.745 40.6158 12.6745 40.541 12.604C40.4778 12.6216 40.4375 12.6334 40.4375 12.6334L40.2593 12.839V12.8332Z" fill="#1C1E2B"/>
<path d="M35.1133 12.9624C35.0615 13.0153 35.0098 13.0681 34.9638 13.1269L34.7625 12.9447L34.7338 12.839C34.8028 12.7685 34.866 12.6921 34.9408 12.6274C34.958 12.7273 34.9753 12.8213 34.9753 12.8213L35.1133 12.9682V12.9624Z" fill="#1C1E2B"/>
<path opacity="0.1" d="M35.1133 12.9624C35.0615 13.0153 35.0098 13.0681 34.9638 13.1269L34.7625 12.9447L34.7338 12.839C34.8028 12.7685 34.866 12.6921 34.9408 12.6274C34.958 12.7273 34.9753 12.8213 34.9753 12.8213L35.1133 12.9682V12.9624Z" fill="#1C1E2B"/>
<g style="mix-blend-mode:multiply" opacity="0.15">
<g style="mix-blend-mode:multiply">
<path d="M41.7606 16.6173L41.7951 16.6525C41.7951 16.6525 41.8009 16.6114 41.8066 16.5879C41.7894 16.5996 41.7779 16.6055 41.7606 16.6173Z" fill="#1C1E2B"/>
</g>
</g>
<path d="M40.8535 15.6832C40.8535 17.4342 39.4678 18.8503 37.7543 18.8503C36.0408 18.8503 34.6551 17.4342 34.6551 15.6832C34.6551 13.9322 36.0408 12.5161 37.7543 12.5161C39.4678 12.5161 40.8535 13.9322 40.8535 15.6832Z" fill="white"/>
<path d="M37.7538 18.2979C36.3406 18.2979 35.1951 17.1272 35.1951 15.6831C35.1951 14.239 36.3406 13.0684 37.7538 13.0684C39.1669 13.0684 40.3125 14.239 40.3125 15.6831C40.3125 17.1272 39.1669 18.2979 37.7538 18.2979Z" fill="#1C1E2B"/>
<path d="M37.8904 16.1065L37.6144 15.2427L40.2651 14.5259L40.4434 15.09L37.8904 16.1065Z" fill="white"/>
<path d="M37.3897 15.9414L38.1142 15.4067L39.5977 17.763L39.1262 18.1155L37.3897 15.9414Z" fill="white"/>
<path d="M37.3907 15.4067L38.1152 15.9414L36.3788 18.1155L35.9073 17.763L37.3907 15.4067Z" fill="white"/>
<path d="M37.8906 15.2427L37.6146 16.1065L35.0559 15.09L35.2342 14.5259L37.8906 15.2427Z" fill="white"/>
<path d="M38.1953 15.6773H37.3041L37.4593 12.8745H38.0401L38.1953 15.6773Z" fill="white"/>
<path d="M38.6836 15.6834C38.6836 16.2122 38.2638 16.6411 37.7464 16.6411C37.2289 16.6411 36.8091 16.2122 36.8091 15.6834C36.8091 15.1545 37.2289 14.7256 37.7464 14.7256C38.2638 14.7256 38.6836 15.1545 38.6836 15.6834Z" fill="white"/>
<g opacity="0.75">
<path d="M35.3204 2.15649L32.411 6.04046L29.3347 6.11097L32.7272 1.55127H32.8249C33.4402 1.55127 34.0094 1.56302 34.6764 1.59828C34.7109 1.59828 34.7742 1.61591 34.8719 1.68642C35.0099 1.78043 35.1594 1.94496 35.3262 2.16236L35.3204 2.15649Z" fill="white"/>
<path d="M32.3418 1.55127L28.9608 6.11685L27.9661 6.14036L31.3471 1.55715C31.4506 1.55715 31.5483 1.55715 31.6461 1.55715H31.8818C32.037 1.55715 32.1923 1.55715 32.3418 1.55127Z" fill="white"/>
</g>
<g opacity="0.75">
<path d="M43.0312 3.90178L41.5765 5.84083L40.2598 5.87021C40.2598 5.87021 40.2253 5.85846 40.2195 5.84083C40.0413 5.41189 39.8228 4.93007 39.5928 4.43649L41.519 1.84521C41.8583 2.03912 42.0653 2.30941 42.2953 2.67372C42.531 3.0439 42.7783 3.46109 43.0312 3.89003V3.90178Z" fill="white"/>
<path d="M41.2363 1.71588L39.4481 4.13087C39.3216 3.86058 39.1951 3.59029 39.0686 3.32L40.3968 1.52197C40.7418 1.56898 41.0121 1.63361 41.2363 1.72175V1.71588Z" fill="white"/>
</g>
</svg>
