<svg width="17" height="19" viewBox="0 0 17 19" fill="none" xmlns="http://www.w3.org/2000/svg">
<path d="M10.1944 3.39934C10.1944 3.08655 9.94089 2.83301 9.62809 2.83301H3.96477C3.65198 2.83301 3.39844 3.08655 3.39844 3.39934V7.93C3.39844 8.24279 3.65198 8.49633 3.96477 8.49633H9.62809C9.94089 8.49633 10.1944 8.24279 10.1944 7.93V3.39934ZM9.06176 7.36367H4.5311V3.96567H9.06176V7.36367Z" fill="white"/>
<path d="M16.6904 4.01576L14.4319 2.88309C14.1515 2.74261 13.8153 2.85683 13.6754 3.13638C13.5354 3.41622 13.6505 3.75638 13.9304 3.8963L14.7905 4.32596C14.7675 4.38755 14.7377 4.45268 14.7377 4.52238C14.7377 5.25974 15.291 5.88249 15.8573 6.11699V13.0174C15.8573 13.3296 15.6032 13.5837 15.291 13.5837C14.9788 13.5837 14.7246 13.3296 14.7246 13.0174V8.4867C14.7246 7.11933 13.592 5.97541 12.4593 5.71228V2.25705C12.4593 1.00797 11.4701 0 10.221 0H3.42504C2.17595 0 1.13266 1.00797 1.13266 2.25705V14.9326L0.31304 15.3424C0.121124 15.4384 0 15.6344 0 15.849V17.548C0 17.8608 0.280618 18.1226 0.593374 18.1226H13.0527C13.3654 18.1226 13.592 17.8608 13.592 17.548V15.849C13.592 15.6344 13.4708 15.4384 13.2789 15.3424L12.4593 14.9326V6.89209C13.0256 7.12658 13.592 7.74934 13.592 8.4867V13.0174C13.592 13.9543 14.3541 14.7164 15.291 14.7164C16.2279 14.7164 16.99 13.9543 16.99 13.0174V4.52238C16.99 4.30777 16.8824 4.11171 16.6904 4.01576ZM12.4593 16.99H1.13266V16.1991L1.95229 15.7893C2.1442 15.6933 2.26533 15.4973 2.26533 15.2827V2.25701C2.26533 1.63235 2.80034 1.13266 3.42504 1.13266H10.221C10.8457 1.13266 11.3266 1.63235 11.3266 2.25705V15.2827C11.3266 15.4973 11.4478 15.6934 11.6397 15.7893L12.4593 16.1991V16.99Z" fill="white"/>
</svg>
