<svg width="19" height="19" viewBox="0 0 19 19" fill="none" xmlns="http://www.w3.org/2000/svg">
<path fill-rule="evenodd" clip-rule="evenodd" d="M3.14647 1.77344C1.95246 1.77344 0.983398 2.7425 0.983398 3.93651C0.983398 5.13053 1.95246 6.09959 3.14647 6.09959C4.34049 6.09959 5.30955 5.13053 5.30955 3.93651C5.30955 2.7425 4.34049 1.77344 3.14647 1.77344ZM3.14647 2.9533C3.68921 2.9533 4.12969 3.39378 4.12969 3.93651C4.12969 4.47925 3.68921 4.91973 3.14647 4.91973C2.60374 4.91973 2.16326 4.47925 2.16326 3.93651C2.16326 3.39378 2.60374 2.9533 3.14647 2.9533Z" fill="white"/>
<path fill-rule="evenodd" clip-rule="evenodd" d="M3.14647 12.7852C1.95246 12.7852 0.983398 13.7542 0.983398 14.9482C0.983398 16.1422 1.95246 17.1113 3.14647 17.1113C4.34049 17.1113 5.30955 16.1422 5.30955 14.9482C5.30955 13.7542 4.34049 12.7852 3.14647 12.7852ZM3.14647 13.965C3.68921 13.965 4.12969 14.4055 4.12969 14.9482C4.12969 15.491 3.68921 15.9314 3.14647 15.9314C2.60374 15.9314 2.16326 15.491 2.16326 14.9482C2.16326 14.4055 2.60374 13.965 3.14647 13.965Z" fill="white"/>
<path fill-rule="evenodd" clip-rule="evenodd" d="M9.43847 1.77344C8.24445 1.77344 7.27539 2.7425 7.27539 3.93651C7.27539 5.13053 8.24445 6.09959 9.43847 6.09959C10.6325 6.09959 11.6015 5.13053 11.6015 3.93651C11.6015 2.7425 10.6325 1.77344 9.43847 1.77344ZM9.43847 2.9533C9.9812 2.9533 10.4217 3.39378 10.4217 3.93651C10.4217 4.47925 9.9812 4.91973 9.43847 4.91973C8.89573 4.91973 8.45525 4.47925 8.45525 3.93651C8.45525 3.39378 8.89573 2.9533 9.43847 2.9533Z" fill="white"/>
<path fill-rule="evenodd" clip-rule="evenodd" d="M9.43847 12.7852C8.24445 12.7852 7.27539 13.7542 7.27539 14.9482C7.27539 16.1422 8.24445 17.1113 9.43847 17.1113C10.6325 17.1113 11.6015 16.1422 11.6015 14.9482C11.6015 13.7542 10.6325 12.7852 9.43847 12.7852ZM9.43847 13.965C9.9812 13.965 10.4217 14.4055 10.4217 14.9482C10.4217 15.491 9.9812 15.9314 9.43847 15.9314C8.89573 15.9314 8.45525 15.491 8.45525 14.9482C8.45525 14.4055 8.89573 13.965 9.43847 13.965Z" fill="white"/>
<path fill-rule="evenodd" clip-rule="evenodd" d="M15.7314 1.77344C14.5374 1.77344 13.5684 2.7425 13.5684 3.93651C13.5684 5.13053 14.5374 6.09959 15.7314 6.09959C16.9255 6.09959 17.8945 5.13053 17.8945 3.93651C17.8945 2.7425 16.9255 1.77344 15.7314 1.77344ZM15.7314 2.9533C16.2742 2.9533 16.7146 3.39378 16.7146 3.93651C16.7146 4.47925 16.2742 4.91973 15.7314 4.91973C15.1887 4.91973 14.7482 4.47925 14.7482 3.93651C14.7482 3.39378 15.1887 2.9533 15.7314 2.9533Z" fill="white"/>
<path fill-rule="evenodd" clip-rule="evenodd" d="M15.7314 12.7852C14.5374 12.7852 13.5684 13.7542 13.5684 14.9482C13.5684 16.1422 14.5374 17.1113 15.7314 17.1113C16.9255 17.1113 17.8945 16.1422 17.8945 14.9482C17.8945 13.7542 16.9255 12.7852 15.7314 12.7852ZM15.7314 13.965C16.2742 13.965 16.7146 14.4055 16.7146 14.9482C16.7146 15.491 16.2742 15.9314 15.7314 15.9314C15.1887 15.9314 14.7482 15.491 14.7482 14.9482C14.7482 14.4055 15.1887 13.965 15.7314 13.965Z" fill="white"/>
<path fill-rule="evenodd" clip-rule="evenodd" d="M2.55664 5.50887V13.3746C2.55664 13.7002 2.82093 13.9645 3.14657 13.9645C3.47221 13.9645 3.7365 13.7002 3.7365 13.3746V5.50887C3.7365 5.18323 3.47221 4.91895 3.14657 4.91895C2.82093 4.91895 2.55664 5.18323 2.55664 5.50887Z" fill="white"/>
<path fill-rule="evenodd" clip-rule="evenodd" d="M8.84863 5.50887V13.3746C8.84863 13.7002 9.11292 13.9645 9.43856 13.9645C9.7642 13.9645 10.0285 13.7002 10.0285 13.3746V5.50887C10.0285 5.18323 9.7642 4.91895 9.43856 4.91895C9.11292 4.91895 8.84863 5.18323 8.84863 5.50887Z" fill="white"/>
<path fill-rule="evenodd" clip-rule="evenodd" d="M15.1418 5.50887V8.65517C15.1418 8.76371 15.0537 8.85181 14.9452 8.85181H3.14657C2.82093 8.85181 2.55664 9.1161 2.55664 9.44174C2.55664 9.76738 2.82093 10.0317 3.14657 10.0317H14.9452C15.7058 10.0317 16.3217 9.41499 16.3217 8.65517C16.3217 7.50756 16.3217 5.50887 16.3217 5.50887C16.3217 5.18323 16.0574 4.91895 15.7317 4.91895C15.4061 4.91895 15.1418 5.18323 15.1418 5.50887Z" fill="white"/>
</svg>
