<svg width="26" height="29" viewBox="0 0 26 29" fill="none" xmlns="http://www.w3.org/2000/svg">
<g clip-path="url(#clip0_2659_12147)">
<path d="M13.0238 0.662109C5.90528 0.662109 0.137695 6.79565 0.137695 14.3659C0.137695 21.9361 5.90528 28.0696 13.0238 28.0696C20.1424 28.0696 25.91 21.9361 25.91 14.3659C25.9619 6.85091 20.1424 0.662109 13.0238 0.662109ZM18.7914 11.2715C18.7914 11.382 18.7914 11.5478 18.7914 11.6583C18.7914 15.8578 15.8297 20.6652 10.3219 20.6652C8.65918 20.6652 7.10036 20.1679 5.7494 19.2285C5.95724 19.2837 6.21705 19.2837 6.47685 19.2837C7.87978 19.2837 9.12681 18.7864 10.166 17.9576C8.86701 17.9576 7.77585 17.0182 7.41213 15.7473C7.56801 15.8026 7.77586 15.8026 7.9837 15.8026C8.2435 15.8026 8.5033 15.7473 8.7631 15.692C7.41213 15.4158 6.37292 14.1448 6.37292 12.5976C6.37292 12.5976 6.37292 12.5976 6.37292 12.5424C6.78861 12.7634 7.25625 12.9292 7.72389 12.9292C6.94449 12.3766 6.42489 11.382 6.42489 10.2769C6.42489 9.72428 6.58076 9.1717 6.84056 8.67438C8.29545 10.6084 10.4778 11.824 12.9719 11.9898C12.9199 11.7688 12.9199 11.4925 12.9199 11.2715C12.9199 9.50325 14.2709 8.12181 15.8817 8.12181C16.713 8.12181 17.4924 8.50862 18.064 9.11645C18.7395 8.95068 19.363 8.72966 19.9346 8.34286C19.7267 9.0612 19.2591 9.72427 18.6355 10.1111C19.2591 10.0558 19.8306 9.89005 20.3502 9.61376C19.8826 10.2768 19.363 10.8294 18.7914 11.2715Z" fill="white"/>
</g>
<defs>
<clipPath id="clip0_2659_12147">
<rect width="25.8242" height="27.4628" fill="white" transform="translate(0.137695 0.662109)"/>
</clipPath>
</defs>
</svg>
