<svg width="27" height="28" viewBox="0 0 27 28" fill="none" xmlns="http://www.w3.org/2000/svg">
<g clip-path="url(#clip0_2659_12155)">
<path d="M11.9329 16.6805L16.1841 14.1533L11.9329 11.626V16.6805Z" fill="white"/>
<path d="M13.5608 0.663086C6.3439 0.663086 0.491455 6.7038 0.491455 14.1528C0.491455 21.6019 6.3439 27.6426 13.5608 27.6426C20.7777 27.6426 26.6301 21.6019 26.6301 14.1528C26.6301 6.7038 20.7777 0.663086 13.5608 0.663086ZM21.7271 14.1666C21.7271 14.1666 21.7271 16.9024 21.3909 18.2216C21.2024 18.9437 20.6508 19.5131 19.9513 19.7074C18.6732 20.0546 13.5608 20.0546 13.5608 20.0546C13.5608 20.0546 8.46176 20.0546 7.1703 19.6936C6.47073 19.4993 5.91913 18.9297 5.73067 18.2076C5.39425 16.9024 5.39425 14.1528 5.39425 14.1528C5.39425 14.1528 5.39425 11.4173 5.73067 10.0981C5.91893 9.37598 6.48409 8.79263 7.1703 8.59832C8.4484 8.25108 13.5608 8.25108 13.5608 8.25108C13.5608 8.25108 18.6732 8.25108 19.9513 8.61211C20.6508 8.80642 21.2024 9.37598 21.3909 10.0981C21.7407 11.4173 21.7271 14.1666 21.7271 14.1666Z" fill="white"/>
</g>
<defs>
<clipPath id="clip0_2659_12155">
<rect width="26.1387" height="26.9795" fill="white" transform="translate(0.491455 0.663086)"/>
</clipPath>
</defs>
</svg>
